{
.appVersion = "3151";
.formatVersion = 3;
axes = (
{
name = Weight;
tag = wght;
}
);
classes = (
{
automatic = 1;
code = "A Aacute Abreve Acircumflex Adieresis Adotbelow Agrave Amacron Aogonek Aring Aringacute Atilde AE AEacute B C Cacute Ccaron Ccedilla Ccircumflex Cdot D Eth Dcaron Dcroat E Eacute Ebreve Ecaron Ecircumflex Edieresis Edotaccent Edotbelow Egrave Emacron Eogonek Etilde F G Gacute Gbreve Gcaron Gcircumflex Gcommaaccent Gdotaccent H Hbar Hcaron Hcircumflex I IJ Iacute Ibreve Icircumflex Idieresis Idotaccent Idotbelow Igrave Imacron Iogonek Itilde J Jacute Jcircumflex K Kcommaaccent L Lacute Lcaron Lcommaaccent Ldot Lslash M N Nacute Ncaron Ncommaaccent Eng Nhookleft Ntilde O Oacute Obreve Ocircumflex Odieresis Odotbelow Ograve Ohungarumlaut Omacron Oogonek Oslash Oslashacute Otilde OE P Thorn Q R Racute Rcaron Rcommaaccent S Sacute Scaron Scedilla Scircumflex Scommaaccent Germandbls Schwa T Tbar Tcaron Tcedilla Tcommaaccent Tdotbelow U Uacute Ubreve Ucircumflex Udieresis Udotbelow Ugrave Uhungarumlaut Umacron Uogonek Uring Utilde V W Wacute Wcircumflex Wdieresis Wgrave X Y Yacute Ycircumflex Ydieresis Ygrave Ymacron Ytilde Z Zacute Zcaron Zcircumflex Zdotaccent Cacute.loclPLK Nacute.loclPLK Oacute.loclPLK Sacute.loclPLK Zacute.loclPLK K.ss01 Kcommaaccent.ss01 Q.ss01 R.ss01 Racute.ss01 Rcaron.ss01 Rcommaaccent.ss01 Y.ss01 Yacute.ss01 Ycircumflex.ss01 Ydieresis.ss01 Ygrave.ss01 Ymacron.ss01 Ytilde.ss01 Z.ss01 Zacute.ss01 Zcaron.ss01 Zcircumflex.ss01 Zdotaccent.ss01 Zacute.loclPLK.ss01 A.ss10 B.ss10 C.ss10 D.ss10 E.ss10 F.ss10 G.ss10 H.ss10 I.ss10 J.ss10 K.ss10 L.ss10 M.ss10 N.ss10 O.ss10 P.ss10 Q.ss10 R.ss10 S.ss10 T.ss10 U.ss10 V.ss10 W.ss10 X.ss10 Y.ss10 Z.ss10";
name = Uppercase;
},
{
automatic = 1;

glyphs = (
{
glyphname = A;
kernLeft = A;
kernRight = A;
lastChange = "2023-06-14 19:43:19 +0000";
layers = (
{
layerId = "6D97EE47-94AA-478E-ABFB-936E6C32B491";
shapes = (
{
closed = 1;
nodes = (
(221,0,l),
(221,30,l),
(202,30,o),
(163,33,o),
(133,46,c),
(216,249,l),
(478,249,l),
(552,46,l),
(522,33,o),
(483,30,o),
(464,30,c),
(464,0,l),
(721,0,l),
(721,30,l),
(705,30,o),
(671,33,o),
(645,46,c),
(394,737,l),
(312,707,l),
(327,665,l),
(75,45,l),
(50,33,o),
(19,30,o),
(4,30,c),
(4,0,l)
);
},
{
closed = 1;
nodes = (
(355,589,l),
(460,300,l),
(237,300,l)
);
}
);
width = 715;
}
);
unicode = 65;
},
{
glyphname = Aacute;
kernLeft = A;
kernRight = A;
lastChange = "2023-06-14 19:43:19 +0000";
layers = (
{
layerId = "6D97EE47-94AA-478E-ABFB-936E6C32B491";
shapes = (
{
closed = 1;
nodes = (
(221,0,l),
(221,30,l),
(202,30,o),
(163,33,o),
(133,46,c),
(216,249,l),
(478,249,l),
(552,46,l),
(522,33,o),
(483,30,o),
(464,30,c),
(464,0,l),
(721,0,l),
(721,30,l),
(705,30,o),
(671,33,o),
(645,46,c),
(394,737,l),
(312,707,l),
(327,665,l),
(75,45,l),
(50,33,o),
(19,30,o),
(4,30,c),
(4,0,l)
);
},
{
closed = 1;
nodes = (
(355,589,l),
(460,300,l),
(237,300,l)
);
},
{
closed = 1;
nodes = (
(542,864,l),
(507,924,l),
(301,805,l),
(315,781,l)
);
}
);
width = 715;
}
);
unicode = 193;
},
{
glyphname = Abreve;
kernLeft = A;
kernRight = A;
lastChange = "2023-06-14 19:43:19 +0000";
layers = (
{
layerId = "6D97EE47-94AA-478E-ABFB-936E6C32B491";
shapes = (
{
closed = 1;
nodes = (
(221,0,l),
(221,30,l),
(202,30,o),
(163,33,o),
(133,46,c),
(216,249,l),
(478,249,l),
(552,46,l),
(522,33,o),
(483,30,o),
(464,30,c),
(464,0,l),
(721,0,l),
(721,30,l),
(705,30,o),
(671,33,o),
(645,46,c),
(394,737,l),
(312,707,l),
(327,665,l),
(75,45,l),
(50,33,o),
(19,30,o),
(4,30,c),
(4,0,l)
);
},
{
closed = 1;
nodes = (
(355,589,l),
(460,300,l),
(237,300,l)
);
},
{
closed = 1;
nodes = (
(418,811,o),
(478,837,o),
(511,923,c),
(488,935,l),
(454,883,o),
(404,877,o),
(361,877,cs),
(316,877,o),
(269,883,o),
(234,935,c),
(211,923,l),
(243,837,o),
(305,809,o),
(361,810,cs)
);
}
);
width = 715;
}
);
unicode = 258;
},
{
glyphname = Acircumflex;
kernLeft = A;
kernRight = A;
lastChange = "2023-06-14 19:43:19 +0000";
layers = (
{
layerId = "6D97EE47-94AA-478E-ABFB-936E6C32B491";
shapes = (
{
closed = 1;
nodes = (
(221,0,l),
(221,30,l),
(202,30,o),
(163,33,o),
(133,46,c),
(216,249,l),
(478,249,l),
(552,46,l),
(522,33,o),
(483,30,o),
(464,30,c),
(464,0,l),
(721,0,l),
(721,30,l),
(705,30,o),
(671,33,o),
(645,46,c),
(394,737,l),
(312,707,l),
(327,665,l),
(75,45,l),
(50,33,o),
(19,30,o),
(4,30,c),
(4,0,l)
);
},
{
closed = 1;
nodes = (
(355,589,l),
(460,300,l),
(237,300,l)
);
},
{
closed = 1;
nodes = (
(361,877,l),
(515,789,l),
(534,812,l),
(373,948,l),
(349,948,l),
(188,812,l),
(207,789,l)
);
}
);
width = 715;
}
);
unicode = 194;
},
{
glyphname = Adieresis;
kernLeft = A;
kernRight = A;
lastChange = "2023-06-14 19:43:19 +0000";
layers = (
{
layerId = "6D97EE47-94AA-478E-ABFB-936E6C32B491";
shapes = (
{
closed = 1;
nodes = (
(221,0,l),
(221,30,l),
(202,30,o),
(163,33,o),
(133,46,c),
(216,249,l),
(478,249,l),
(552,46,l),
(522,33,o),
(483,30,o),
(464,30,c),
(464,0,l),
(721,0,l),
(721,30,l),
(705,30,o),
(671,33,o),
(645,46,c),
(394,737,l),
(312,707,l),
(327,665,l),
(75,45,l),
(50,33,o),
(19,30,o),
(4,30,c),
(4,0,l)
);
},
{
closed = 1;
nodes = (
(355,589,l),
(460,300,l),
(237,300,l)
);
},
{
closed = 1;
nodes = (
(298,800,o),
(320,823,o),
(320,850,cs),
(320,877,o),
(298,898,o),
(270,898,cs),
(242,898,o),
(221,875,o),
(221,848,cs),
(221,821,o),
(242,800,o),
(270,800,cs)
);
},
{
closed = 1;
nodes = (
(479,800,o),
(501,823,o),
(501,850,cs),
(501,877,o),
(479,898,o),
(451,898,cs),
(423,898,o),
(402,875,o),
(402,848,cs),
(402,821,o),
(423,800,o),
(451,800,cs)
);
}
);
width = 715;
}
);
unicode = 196;
},
{
glyphname = Adotbelow;
kernLeft = A;
kernRight = A;
lastChange = "2023-06-14 19:43:19 +0000";
layers = (
{
layerId = "6D97EE47-94AA-478E-ABFB-936E6C32B491";
shapes = (
{
closed = 1;
nodes = (
(221,0,l),
(221,30,l),
(202,30,o),
(163,33,o),
(133,46,c),
(216,249,l),
(478,249,l),
(552,46,l),
(522,33,o),
(483,30,o),
(464,30,c),
(464,0,l),
(721,0,l),
(721,30,l),
(705,30,o),
(671,33,o),
(645,46,c),
(394,737,l),
(312,707,l),
(327,665,l),
(75,45,l),
(50,33,o),
(19,30,o),
(4,30,c),
(4,0,l)
);
},
{
closed = 1;
nodes = (
(375,-181,o),
(399,-155,o),
(399,-125,cs),
(399,-94,o),
(375,-70,o),
(343,-70,cs),
(311,-70,o),
(288,-97,o),
(288,-126,cs),
(288,-157,o),
(311,-181,o),
(343,-181,cs)
);
},
{
closed = 1;
nodes = (
(355,589,l),
(460,300,l),
(237,300,l)
);
}
);
width = 715;
}
);
unicode = 7840;
},
{
glyphname = Agrave;
kernLeft = A;
kernRight = A;
lastChange = "2023-06-14 19:43:19 +0000";
layers = (
{
layerId = "6D97EE47-94AA-478E-ABFB-936E6C32B491";
shapes = (
{
closed = 1;
nodes = (
(221,0,l),
(221,30,l),
(202,30,o),
(163,33,o),
(133,46,c),
(216,249,l),
(478,249,l),
(552,46,l),
(522,33,o),
(483,30,o),
(464,30,c),
(464,0,l),
(721,0,l),
(721,30,l),
(705,30,o),
(671,33,o),
(645,46,c),
(394,737,l),
(312,707,l),
(327,665,l),
(75,45,l),
(50,33,o),
(19,30,o),
(4,30,c),
(4,0,l)
);
},
{
closed = 1;
nodes = (
(355,589,l),
(460,300,l),
(237,300,l)
);
},
{
closed = 1;
nodes = (
(441,813,l),
(235,932,l),
(200,872,l),
(427,789,l)
);
}
);
width = 715;
}
);
unicode = 192;
},
{
glyphname = Amacron;
kernLeft = A;
kernRight = A;
lastChange = "2023-06-14 19:43:19 +0000";
layers = (
{
layerId = "6D97EE47-94AA-478E-ABFB-936E6C32B491";
shapes = (
{
closed = 1;
nodes = (
(221,0,l),
(221,30,l),
(202,30,o),
(163,33,o),
(133,46,c),
(216,249,l),
(478,249,l),
(552,46,l),
(522,33,o),
(483,30,o),
(464,30,c),
(464,0,l),
(721,0,l),
(721,30,l),
(705,30,o),
(671,33,o),
(645,46,c),
(394,737,l),
(312,707,l),
(327,665,l),
(75,45,l),
(50,33,o),
(19,30,o),
(4,30,c),
(4,0,l)
);
},
{
closed = 1;
nodes = (
(355,589,l),
(460,300,l),
(237,300,l)
);
},
{
closed = 1;
nodes = (
(531,806,l),
(531,854,l),
(191,854,l),
(191,806,l)
);
}
);
width = 715;
}
);
unicode = 256;
},
{
glyphname = Aogonek;
kernLeft = A;
kernRight = A;
lastChange = "2023-06-14 19:43:19 +0000";
layers = (
{
layerId = "6D97EE47-94AA-478E-ABFB-936E6C32B491";
shapes = (
{
closed = 1;
nodes = (
(617,-240,o),
(658,-218,o),
(681,-190,c),
(670,-174,l),
(659,-183,o),
(640,-192,o),
(621,-192,cs),
(586,-192,o),
(566,-168,o),
(566,-135,cs),
(566,-96,o),
(598,-48,o),
(649,0,c),
(721,0,l),
(721,30,l),
(705,30,o),
(671,33,o),
(645,46,c),
(394,737,l),
(312,707,l),
(327,665,l),
(75,45,l),
(50,33,o),
(19,30,o),
(4,30,c),
(4,0,l),
(221,0,l),
(221,30,l),
(202,30,o),
(163,33,o),
(133,46,c),
(216,249,l),
(478,249,l),
(552,46,l),
(522,33,o),
(483,30,o),
(464,30,c),
(464,0,l),
(610,0,l),
(533,-57,o),
(497,-106,o),
(497,-162,cs),
(497,-217,o),
(536,-240,o),
(585,-240,cs)
);
},
{
closed = 1;
nodes = (
(355,589,l),
(460,300,l),
(237,300,l)
);
}
);
width = 715;
}
);
unicode = 260;
},
{
glyphname = Aring;
kernLeft = A;
kernRight = A;
lastChange = "2023-06-14 19:43:19 +0000";
layers = (
{
layerId = "6D97EE47-94AA-478E-ABFB-936E6C32B491";
shapes = (
{
closed = 1;
nodes = (
(221,0,l),
(221,30,l),
(202,30,o),
(163,33,o),
(133,46,c),
(216,249,l),
(478,249,l),
(552,46,l),
(522,33,o),
(483,30,o),
(464,30,c),
(464,0,l),
(721,0,l),
(721,30,l),
(705,30,o),
(671,33,o),
(645,46,c),
(394,737,l),
(312,707,l),
(327,665,l),
(75,45,l),
(50,33,o),
(19,30,o),
(4,30,c),
(4,0,l)
);
},
{
closed = 1;
nodes = (
(355,589,l),
(460,300,l),
(237,300,l)
);
},
{
closed = 1;
nodes = (
(411,800,o),
(453,844,o),
(453,895,cs),
(453,945,o),
(412,989,o),
(360,989,cs),
(309,989,o),
(268,945,o),
(268,893,cs),
(268,838,o),
(312,800,o),
(361,800,cs)
);
},
{
closed = 1;
nodes = (
(334,830,o),
(312,869,o),
(312,903,cs),
(312,933,o),
(332,956,o),
(355,956,cs),
(386,956,o),
(409,919,o),
(409,887,cs),
(409,851,o),
(391,835,o),
(366,833,cs)
);
}
);
width = 715;
}
);
unicode = 197;
},
{
glyphname = Aringacute;
kernLeft = A;
kernRight = A;
lastChange = "2023-06-14 19:43:19 +0000";
layers = (
{
layerId = "6D97EE47-94AA-478E-ABFB-936E6C32B491";
shapes = (
{
closed = 1;
nodes = (
(221,0,l),
(221,30,l),
(202,30,o),
(163,33,o),
(133,46,c),
(216,249,l),
(478,249,l),
(552,46,l),
(522,33,o),
(483,30,o),
(464,30,c),
(464,0,l),
(721,0,l),
(721,30,l),
(705,30,o),
(671,33,o),
(645,46,c),
(394,737,l),
(312,707,l),
(327,665,l),
(75,45,l),
(50,33,o),
(19,30,o),
(4,30,c),
(4,0,l)
);
},
{
closed = 1;
nodes = (
(355,589,l),
(460,300,l),
(237,300,l)
);
},
{
closed = 1;
nodes = (
(409,762,o),
(451,806,o),
(451,857,cs),
(451,907,o),
(410,951,o),
(358,951,cs),
(307,951,o),
(266,907,o),
(266,855,cs),
(266,800,o),
(310,762,o),
(359,762,cs)
);
},
{
closed = 1;
nodes = (
(332,792,o),
(310,831,o),
(310,865,cs),
(310,895,o),
(330,918,o),
(353,918,cs),
(384,918,o),
(407,881,o),
(407,849,cs),
(407,813,o),
(389,797,o),
(364,795,cs)
);
},
{
closed = 1;
nodes = (
(510,1059,l),
(478,1113,l),
(293,1006,l),
(306,984,l)
);
}
);
width = 715;
}
);
unicode = 506;
},
{
glyphname = Atilde;
kernLeft = A;
kernRight = A;
lastChange = "2023-06-14 19:43:19 +0000";
layers = (
{
layerId = "6D97EE47-94AA-478E-ABFB-936E6C32B491";
shapes = (
{
closed = 1;
nodes = (
(221,0,l),
(221,30,l),
(202,30,o),
(163,33,o),
(133,46,c),
(216,249,l),
(478,249,l),
(552,46,l),
(522,33,o),
(483,30,o),
(464,30,c),
(464,0,l),
(721,0,l),
(721,30,l),
(705,30,o),
(671,33,o),
(645,46,c),
(394,737,l),
(312,707,l),
(327,665,l),
(75,45,l),
(50,33,o),
(19,30,o),
(4,30,c),
(4,0,l)
);
},
{
closed = 1;
nodes = (
(355,589,l),
(460,300,l),
(237,300,l)
);
},
{
closed = 1;
nodes = (
(244,822,o),
(258,847,o),
(297,850,cs),
(346,852,o),
(371,796,o),
(439,800,cs),
(490,803,o),
(529,867,o),
(546,903,c),
(525,914,l),
(507,885,o),
(493,861,o),
(454,859,cs),
(406,857,o),
(381,912,o),
(312,908,cs),
(261,906,o),
(222,842,o),
(205,805,c),
(226,794,l)
);
}
);
width = 715;
}
);
unicode = 195;
},
{
glyphname = AE;
kernLeft = AE;
kernRight = E;
lastChange = "2023-06-14 19:43:19 +0000";
layers = (
{
layerId = "6D97EE47-94AA-478E-ABFB-936E6C32B491";
shapes = (
{
closed = 1;
nodes = (
(224,0,l),
(224,30,l),
(205,30,o),
(166,33,o),
(136,46,c),
(245,249,l),
(460,249,l),
(460,46,l),
(430,33,o),
(391,30,o),
(372,30,c),
(372,0,l),
(861,0,l),
(894,151,l),
(863,159,l),
(859,146,o),
(835,85,o),
(809,51,c),
(547,51,l),
(547,342,l),
(753,342,l),
(763,314,o),
(765,280,o),
(765,263,c),
(797,263,l),
(797,463,l),
(765,463,l),
(765,447,o),
(763,419,o),
(755,393,c),
(547,393,l),
(547,656,l),
(789,656,l),
(803,626,o),
(807,591,o),
(809,569,c),
(842,571,l),
(837,707,l),
(332,707,l),
(332,677,l),
(348,677,o),
(378,675,o),
(405,666,c),
(210,300,l),
(75,45,l),
(50,33,o),
(19,30,o),
(4,30,c),
(4,0,l)
);
},
{
closed = 1;
nodes = (
(460,654,l),
(460,300,l),
(272,300,l)
);
}
);
width = 919;
}
);
metricLeft = A;
metricRight = E;
unicode = 198;
},
{
glyphname = AEacute;
kernLeft = AE;
kernRight = E;
lastChange = "2023-06-14 19:43:19 +0000";
layers = (
{
layerId = "6D97EE47-94AA-478E-ABFB-936E6C32B491";
shapes = (
{
closed = 1;
nodes = (
(224,0,l),
(224,30,l),
(205,30,o),
(166,33,o),
(136,46,c),
(245,249,l),
(460,249,l),
(460,46,l),
(430,33,o),
(391,30,o),
(372,30,c),
(372,0,l),
(861,0,l),
(894,151,l),
(863,159,l),
(859,146,o),
(835,85,o),
(809,51,c),
(547,51,l),
(547,342,l),
(753,342,l),
(763,314,o),
(765,280,o),
(765,263,c),
(797,263,l),
(797,463,l),
(765,463,l),
(765,447,o),
(763,419,o),
(755,393,c),
(547,393,l),
(547,656,l),
(789,656,l),
(803,626,o),
(807,591,o),
(809,569,c),
(842,571,l),
(837,707,l),
(332,707,l),
(332,677,l),
(348,677,o),
(378,675,o),
(405,666,c),
(210,300,l),
(75,45,l),
(50,33,o),
(19,30,o),
(4,30,c),
(4,0,l)
);
},
{
closed = 1;
nodes = (
(460,654,l),
(460,300,l),
(272,300,l)
);
},
{
closed = 1;
nodes = (
(766,872,l),
(731,932,l),
(525,813,l),
(539,789,l)
);
}
);
width = 919;
}
);
unicode = 508;
},
{
glyphname = B;
kernLeft = H;
kernRight = B;
lastChange = "2023-06-14 19:43:19 +0000";
layers = (
{
layerId = "6D97EE47-94AA-478E-ABFB-936E6C32B491";
shapes = (
{
closed = 1;
nodes = (
(360,0,ls),
(523,0,o),
(600,105,o),
(600,198,cs),
(600,292,o),
(523,370,o),
(436,398,c),
(491,424,o),
(533,490,o),
(533,558,cs),
(533,613,o),
(507,662,o),
(460,690,cs),
(420,714,o),
(366,721,o),
(311,721,cs),
(227,721,o),
(138,710,o),
(50,699,c),
(53,669,l),
(71,670,o),
(108,672,o),
(138,663,c),
(138,46,l),
(108,33,o),
(69,30,o),
(50,30,c),
(50,0,l)
);
},
{
closed = 1;
nodes = (
(289,43,o),
(242,54,o),
(225,69,c),
(225,349,l),
(275,349,o),
(338,354,o),
(392,334,cs),
(463,310,o),
(509,249,o),
(509,175,cs),
(509,89,o),
(438,43,o),
(338,43,cs)
);
},
{
closed = 1;
nodes = (
(225,668,l),
(359,687,o),
(449,650,o),
(449,531,cs),
(449,483,o),
(428,439,o),
(396,419,cs),
(349,388,o),
(249,394,o),
(225,395,c)
);
}
);
width = 625;
}
);
metricLeft = H;
metricRight = "=H/2";
unicode = 66;
},
{
glyphname = C;
kernLeft = O;
kernRight = C;
lastChange = "2023-06-14 19:43:19 +0000";
layers = (
{
layerId = "6D97EE47-94AA-478E-ABFB-936E6C32B491";
shapes = (
{
closed = 1;
nodes = (
(505,-14,o),
(568,-5,o),
(637,13,c),
(715,161,l),
(685,176,l),
(626,83,o),
(563,33,o),
(452,33,cs),
(284,33,o),
(145,197,o),
(145,380,cs),
(145,549,o),
(254,673,o),
(425,673,cs),
(520,673,o),
(606,635,o),
(642,540,c),
(672,546,l),
(652,688,l),
(605,701,o),
(523,721,o),
(431,721,cs),
(221,721,o),
(50,560,o),
(50,350,cs),
(50,135,o),
(217,-14,o),
(448,-14,cs)
);
}
);
width = 740;
}
);
metricLeft = O;
metricRight = "=H/2";
unicode = 67;
},
{
glyphname = Cacute;
kernLeft = O;
kernRight = C;
lastChange = "2023-06-14 19:43:19 +0000";
layers = (
{
layerId = "6D97EE47-94AA-478E-ABFB-936E6C32B491";
shapes = (
{
closed = 1;
nodes = (
(505,-14,o),
(568,-5,o),
(637,13,c),
(715,161,l),
(685,176,l),
(626,83,o),
(563,33,o),
(452,33,cs),
(284,33,o),
(145,197,o),
(145,380,cs),
(145,549,o),
(254,673,o),
(425,673,cs),
(520,673,o),
(606,635,o),
(642,540,c),
(672,546,l),
(652,688,l),
(605,701,o),
(523,721,o),
(431,721,cs),
(221,721,o),
(50,560,o),
(50,350,cs),
(50,135,o),
(217,-14,o),
(448,-14,cs)
);
},
{
closed = 1;
nodes = (
(584,864,l),
(549,924,l),
(343,805,l),
(357,781,l)
);
}
);
width = 740;
}
);
unicode = 262;
},
{
glyphname = Ccaron;
kernLeft = O;
kernRight = C;
lastChange = "2023-06-14 19:43:19 +0000";
layers = (
{
layerId = "6D97EE47-94AA-478E-ABFB-936E6C32B491";
shapes = (
{
closed = 1;
nodes = (
(505,-14,o),
(568,-5,o),
(637,13,c),
(715,161,l),
(685,176,l),
(626,83,o),
(563,33,o),
(452,33,cs),
(284,33,o),
(145,197,o),
(145,380,cs),
(145,549,o),
(254,673,o),
(425,673,cs),
(520,673,o),
(606,635,o),
(642,540,c),
(672,546,l),
(652,688,l),
(605,701,o),
(523,721,o),
(431,721,cs),
(221,721,o),
(50,560,o),
(50,350,cs),
(50,135,o),
(217,-14,o),
(448,-14,cs)
);
},
{
closed = 1;
nodes = (
(418,796,l),
(579,932,l),
(560,955,l),
(406,867,l),
(252,955,l),
(233,932,l),
(394,796,l)
);
}
);
width = 740;
}
);
unicode = 268;
},
{
glyphname = Ccedilla;
kernLeft = O;
kernRight = C;
lastChange = "2023-06-14 19:43:19 +0000";
layers = (
{
layerId = "6D97EE47-94AA-478E-ABFB-936E6C32B491";
shapes = (
{
closed = 1;
nodes = (
(453,-240,o),
(492,-206,o),
(492,-151,cs),
(492,-97,o),
(450,-66,o),
(413,-46,c),
(430,-14,l),
(448,-14,ls),
(505,-14,o),
(568,-5,o),
(637,13,c),
(715,161,l),
(685,176,l),
(626,83,o),
(563,33,o),
(452,33,cs),
(284,33,o),
(145,197,o),
(145,380,cs),
(145,549,o),
(254,673,o),
(425,673,cs),
(520,673,o),
(606,635,o),
(642,540,c),
(672,546,l),
(652,688,l),
(605,701,o),
(523,721,o),
(431,721,cs),
(221,721,o),
(50,560,o),
(50,350,cs),
(50,154,o),
(188,13,o),
(388,-10,c),
(351,-83,l),
(376,-88,o),
(430,-117,o),
(430,-162,cs),
(430,-187,o),
(413,-210,o),
(385,-210,cs),
(365,-210,o),
(341,-198,o),
(325,-181,c),
(309,-197,l),
(327,-222,o),
(360,-240,o),
(397,-240,cs)
);
}
);
width = 740;
}
);
unicode = 199;
},
{
glyphname = Ccircumflex;
kernLeft = O;
kernRight = C;
lastChange = "2023-06-14 19:43:19 +0000";
layers = (
{
layerId = "6D97EE47-94AA-478E-ABFB-936E6C32B491";
shapes = (
{
closed = 1;
nodes = (
(505,-14,o),
(568,-5,o),
(637,13,c),
(715,161,l),
(685,176,l),
(626,83,o),
(563,33,o),
(452,33,cs),
(284,33,o),
(145,197,o),
(145,380,cs),
(145,549,o),
(254,673,o),
(425,673,cs),
(520,673,o),
(606,635,o),
(642,540,c),
(672,546,l),
(652,688,l),
(605,701,o),
(523,721,o),
(431,721,cs),
(221,721,o),
(50,560,o),
(50,350,cs),
(50,135,o),
(217,-14,o),
(448,-14,cs)
);
},
{
closed = 1;
nodes = (
(403,877,l),
(557,789,l),
(576,812,l),
(415,948,l),
(391,948,l),
(230,812,l),
(249,789,l)
);
}
);
width = 740;
}
);
unicode = 264;
},
{
glyphname = Cdot;
kernLeft = O;
kernRight = C;
lastChange = "2023-06-14 19:43:19 +0000";
layers = (
{
layerId = "6D97EE47-94AA-478E-ABFB-936E6C32B491";
shapes = (
{
closed = 1;
nodes = (
(505,-14,o),
(568,-5,o),
(637,13,c),
(715,161,l),
(685,176,l),
(626,83,o),
(563,33,o),
(452,33,cs),
(284,33,o),
(145,197,o),
(145,380,cs),
(145,549,o),
(254,673,o),
(425,673,cs),
(520,673,o),
(606,635,o),
(642,540,c),
(672,546,l),
(652,688,l),
(605,701,o),
(523,721,o),
(431,721,cs),
(221,721,o),
(50,560,o),
(50,350,cs),
(50,135,o),
(217,-14,o),
(448,-14,cs)
);
},
{
closed = 1;
nodes = (
(435,800,o),
(459,826,o),
(459,856,cs),
(459,887,o),
(435,911,o),
(403,911,cs),
(371,911,o),
(348,884,o),
(348,855,cs),
(348,824,o),
(371,800,o),
(403,800,cs)
);
}
);
width = 740;
}
);
unicode = 266;
},
{
glyphname = D;
kernLeft = H;
kernRight = O;
lastChange = "2023-06-14 19:43:19 +0000";
layers = (
{
layerId = "6D97EE47-94AA-478E-ABFB-936E6C32B491";
shapes = (
{
closed = 1;
nodes = (
(211,0,ls),
(217,0,o),
(221,0,o),
(225,0,cs),
(310,0,ls),
(373,0,o),
(451,7,o),
(495,19,cs),
(658,62,o),
(782,203,o),
(782,364,cs),
(782,597,o),
(590,721,o),
(332,721,cs),
(237,721,o),
(140,711,o),
(50,699,c),
(53,669,l),
(71,670,o),
(108,672,o),
(138,663,c),
(138,46,l),
(108,33,o),
(69,30,o),
(50,30,c),
(50,0,l)
);
},
{
closed = 1;
nodes = (
(302,47,o),
(259,56,o),
(225,69,c),
(225,668,l),
(480,705,o),
(684,575,o),
(684,337,cs),
(684,157,o),
(548,47,o),
(353,47,cs)
);
}
);
width = 832;
}
);
metricLeft = H;
metricRight = O;
unicode = 68;
},
{
glyphname = Eth;
kernLeft = H;
kernRight = O;
lastChange = "2023-06-14 19:43:19 +0000";
layers = (
{
layerId = "6D97EE47-94AA-478E-ABFB-936E6C32B491";
shapes = (
{
closed = 1;
nodes = (
(215,0,l),
(229,0,l),
(314,0,ls),
(377,0,o),
(455,7,o),
(499,19,cs),
(662,62,o),
(786,203,o),
(786,364,cs),
(786,597,o),
(594,721,o),
(336,721,cs),
(241,721,o),
(144,711,o),
(54,699,c),
(57,669,l),
(75,670,o),
(112,672,o),
(142,663,c),
(142,386,l),
(50,386,l),
(50,344,l),
(142,344,l),
(142,46,l),
(112,33,o),
(73,30,o),
(54,30,c),
(54,0,l)
);
},
{
closed = 1;
nodes = (
(306,47,o),
(263,56,o),
(229,69,c),
(229,344,l),
(419,344,l),
(419,386,l),
(229,386,l),
(229,668,l),
(484,705,o),
(688,575,o),
(688,337,cs),
(688,157,o),
(552,47,o),
(357,47,cs)
);
}
);
width = 836;
}
);
metricLeft = D;
metricRight = D;
unicode = 208;
},
{
glyphname = Dcaron;
kernLeft = H;
kernRight = O;
lastChange = "2023-06-14 19:43:19 +0000";
layers = (
{
layerId = "6D97EE47-94AA-478E-ABFB-936E6C32B491";
shapes = (
{
closed = 1;
nodes = (
(211,0,l),
(225,0,l),
(310,0,ls),
(373,0,o),
(451,7,o),
(495,19,cs),
(658,62,o),
(782,203,o),
(782,364,cs),
(782,597,o),
(590,721,o),
(332,721,cs),
(237,721,o),
(140,711,o),
(50,699,c),
(53,669,l),
(71,670,o),
(108,672,o),
(138,663,c),
(138,46,l),
(108,33,o),
(69,30,o),
(50,30,c),
(50,0,l)
);
},
{
closed = 1;
nodes = (
(302,47,o),
(259,56,o),
(225,69,c),
(225,668,l),
(480,705,o),
(684,575,o),
(684,337,cs),
(684,157,o),
(548,47,o),
(353,47,cs)
);
},
{
closed = 1;
nodes = (
(395,796,l),
(556,932,l),
(537,955,l),
(383,867,l),
(229,955,l),
(210,932,l),
(371,796,l)
);
}
);
width = 832;
}
);
unicode = 270;
},
{
glyphname = Dcroat;
kernLeft = H;
kernRight = O;
lastChange = "2023-06-14 19:43:19 +0000";
layers = (
{
layerId = "6D97EE47-94AA-478E-ABFB-936E6C32B491";
shapes = (
{
closed = 1;
nodes = (
(314,0,ls),
(377,0,o),
(455,7,o),
(499,19,cs),
(662,62,o),
(786,203,o),
(786,364,cs),
(786,597,o),
(594,721,o),
(336,721,cs),
(241,721,o),
(144,711,o),
(54,699,c),
(57,669,l),
(75,670,o),
(112,672,o),
(142,663,c),
(142,386,l),
(50,386,l),
(50,344,l),
(142,344,l),
(142,46,l),
(112,33,o),
(73,30,o),
(54,30,c),
(54,0,l)
);
},
{
closed = 1;
nodes = (
(306,47,o),
(263,56,o),
(229,69,c),
(229,344,l),
(419,344,l),
(419,386,l),
(229,386,l),
(229,668,l),
(484,705,o),
(688,575,o),
(688,337,cs),
(688,157,o),
(552,47,o),
(357,47,cs)
);
}
);
width = 836;
}
);
unicode = 272;
},
{
glyphname = E;
kernLeft = H;
kernRight = E;
lastChange = "2023-06-14 19:43:19 +0000";
layers = (
{
layerId = "6D97EE47-94AA-478E-ABFB-936E6C32B491";
shapes = (
{
closed = 1;
nodes = (
(540,0,l),
(573,151,l),
(541,159,l),
(538,146,o),
(514,85,o),
(488,51,c),
(225,51,l),
(225,342,l),
(431,342,l),
(441,314,o),
(443,280,o),
(443,263,c),
(475,263,l),
(475,463,l),
(443,463,l),
(443,447,o),
(441,419,o),
(434,393,c),
(225,393,l),
(225,656,l),
(468,656,l),
(481,626,o),
(486,591,o),
(488,569,c),
(520,571,l),
(515,707,l),
(50,707,l),
(50,677,l),
(69,677,o),
(108,674,o),
(138,661,c),
(138,46,l),
(108,33,o),
(69,30,o),
(50,30,c),
(50,0,l)
);
}
);
width = 598;
}
);
metricLeft = H;
metricRight = "=H/2";
unicode = 69;
},
{
glyphname = Eacute;
kernLeft = H;
kernRight = E;
lastChange = "2023-06-14 19:43:19 +0000";
layers = (
{
layerId = "6D97EE47-94AA-478E-ABFB-936E6C32B491";
shapes = (
{
closed = 1;
nodes = (
(540,0,l),
(573,151,l),
(541,159,l),
(538,146,o),
(514,85,o),
(488,51,c),
(225,51,l),
(225,342,l),
(431,342,l),
(441,314,o),
(443,280,o),
(443,263,c),
(475,263,l),
(475,463,l),
(443,463,l),
(443,447,o),
(441,419,o),
(434,393,c),
(225,393,l),
(225,656,l),
(468,656,l),
(481,626,o),
(486,591,o),
(488,569,c),
(520,571,l),
(515,707,l),
(50,707,l),
(50,677,l),
(69,677,o),
(108,674,o),
(138,661,c),
(138,46,l),
(108,33,o),
(69,30,o),
(50,30,c),
(50,0,l)
);
},
{
closed = 1;
nodes = (
(495,864,l),
(460,924,l),
(254,805,l),
(268,781,l)
);
}
);
width = 598;
}
);
unicode = 201;
},
{
glyphname = Ebreve;
kernLeft = H;
kernRight = E;
lastChange = "2023-06-14 19:43:19 +0000";
layers = (
{
layerId = "6D97EE47-94AA-478E-ABFB-936E6C32B491";
shapes = (
{
closed = 1;
nodes = (
(540,0,l),
(573,151,l),
(541,159,l),
(538,146,o),
(514,85,o),
(488,51,c),
(225,51,l),
(225,342,l),
(431,342,l),
(441,314,o),
(443,280,o),
(443,263,c),
(475,263,l),
(475,463,l),
(443,463,l),
(443,447,o),
(441,419,o),
(434,393,c),
(225,393,l),
(225,656,l),
(468,656,l),
(481,626,o),
(486,591,o),
(488,569,c),
(520,571,l),
(515,707,l),
(50,707,l),
(50,677,l),
(69,677,o),
(108,674,o),
(138,661,c),
(138,46,l),
(108,33,o),
(69,30,o),
(50,30,c),
(50,0,l)
);
},
{
closed = 1;
nodes = (
(371,811,o),
(431,837,o),
(464,923,c),
(441,935,l),
(407,883,o),
(357,877,o),
(314,877,cs),
(269,877,o),
(222,883,o),
(187,935,c),
(164,923,l),
(196,837,o),
(258,809,o),
(314,810,cs)
);
}
);
width = 598;
}
);
unicode = 276;
},
{
glyphname = Ecaron;
kernLeft = H;
kernRight = E;
lastChange = "2023-06-14 19:43:19 +0000";
layers = (
{
layerId = "6D97EE47-94AA-478E-ABFB-936E6C32B491";
shapes = (
{
closed = 1;
nodes = (
(540,0,l),
(573,151,l),
(541,159,l),
(538,146,o),
(514,85,o),
(488,51,c),
(225,51,l),
(225,342,l),
(431,342,l),
(441,314,o),
(443,280,o),
(443,263,c),
(475,263,l),
(475,463,l),
(443,463,l),
(443,447,o),
(441,419,o),
(434,393,c),
(225,393,l),
(225,656,l),
(468,656,l),
(481,626,o),
(486,591,o),
(488,569,c),
(520,571,l),
(515,707,l),
(50,707,l),
(50,677,l),
(69,677,o),
(108,674,o),
(138,661,c),
(138,46,l),
(108,33,o),
(69,30,o),
(50,30,c),
(50,0,l)
);
},
{
closed = 1;
nodes = (
(329,796,l),
(490,932,l),
(471,955,l),
(317,867,l),
(163,955,l),
(144,932,l),
(305,796,l)
);
}
);
width = 598;
}
);
unicode = 282;
},
{
glyphname = Ecircumflex;
kernLeft = H;
kernRight = E;
lastChange = "2023-06-14 19:43:19 +0000";
layers = (
{
layerId = "6D97EE47-94AA-478E-ABFB-936E6C32B491";
shapes = (
{
closed = 1;
nodes = (
(540,0,l),
(573,151,l),
(541,159,l),
(538,146,o),
(514,85,o),
(488,51,c),
(225,51,l),
(225,342,l),
(431,342,l),
(441,314,o),
(443,280,o),
(443,263,c),
(475,263,l),
(475,463,l),
(443,463,l),
(443,447,o),
(441,419,o),
(434,393,c),
(225,393,l),
(225,656,l),
(468,656,l),
(481,626,o),
(486,591,o),
(488,569,c),
(520,571,l),
(515,707,l),
(50,707,l),
(50,677,l),
(69,677,o),
(108,674,o),
(138,661,c),
(138,46,l),
(108,33,o),
(69,30,o),
(50,30,c),
(50,0,l)
);
},
{
closed = 1;
nodes = (
(314,877,l),
(468,789,l),
(487,812,l),
(326,948,l),
(302,948,l),
(141,812,l),
(160,789,l)
);
}
);
width = 598;
}
);
unicode = 202;
},
{
glyphname = Edieresis;
kernLeft = H;
kernRight = E;
lastChange = "2023-06-14 19:43:19 +0000";
layers = (
{
layerId = "6D97EE47-94AA-478E-ABFB-936E6C32B491";
shapes = (
{
closed = 1;
nodes = (
(540,0,l),
(573,151,l),
(541,159,l),
(538,146,o),
(514,85,o),
(488,51,c),
(225,51,l),
(225,342,l),
(431,342,l),
(441,314,o),
(443,280,o),
(443,263,c),
(475,263,l),
(475,463,l),
(443,463,l),
(443,447,o),
(441,419,o),
(434,393,c),
(225,393,l),
(225,656,l),
(468,656,l),
(481,626,o),
(486,591,o),
(488,569,c),
(520,571,l),
(515,707,l),
(50,707,l),
(50,677,l),
(69,677,o),
(108,674,o),
(138,661,c),
(138,46,l),
(108,33,o),
(69,30,o),
(50,30,c),
(50,0,l)
);
},
{
closed = 1;
nodes = (
(251,800,o),
(273,823,o),
(273,850,cs),
(273,877,o),
(251,898,o),
(223,898,cs),
(195,898,o),
(174,875,o),
(174,848,cs),
(174,821,o),
(195,800,o),
(223,800,cs)
);
},
{
closed = 1;
nodes = (
(432,800,o),
(454,823,o),
(454,850,cs),
(454,877,o),
(432,898,o),
(404,898,cs),
(376,898,o),
(355,875,o),
(355,848,cs),
(355,821,o),
(376,800,o),
(404,800,cs)
);
}
);
width = 598;
}
);
unicode = 203;
},
{
glyphname = Edotaccent;
kernLeft = H;
kernRight = E;
lastChange = "2023-06-14 19:43:19 +0000";
layers = (
{
layerId = "6D97EE47-94AA-478E-ABFB-936E6C32B491";
shapes = (
{
closed = 1;
nodes = (
(540,0,l),
(573,151,l),
(541,159,l),
(538,146,o),
(514,85,o),
(488,51,c),
(225,51,l),
(225,342,l),
(431,342,l),
(441,314,o),
(443,280,o),
(443,263,c),
(475,263,l),
(475,463,l),
(443,463,l),
(443,447,o),
(441,419,o),
(434,393,c),
(225,393,l),
(225,656,l),
(468,656,l),
(481,626,o),
(486,591,o),
(488,569,c),
(520,571,l),
(515,707,l),
(50,707,l),
(50,677,l),
(69,677,o),
(108,674,o),
(138,661,c),
(138,46,l),
(108,33,o),
(69,30,o),
(50,30,c),
(50,0,l)
);
},
{
closed = 1;
nodes = (
(346,800,o),
(370,826,o),
(370,856,cs),
(370,887,o),
(346,911,o),
(314,911,cs),
(282,911,o),
(259,884,o),
(259,855,cs),
(259,824,o),
(282,800,o),
(314,800,cs)
);
}
);
width = 598;
}
);
unicode = 278;
},
{
glyphname = Edotbelow;
kernLeft = H;
kernRight = E;
lastChange = "2023-06-14 19:43:19 +0000";
layers = (
{
layerId = "6D97EE47-94AA-478E-ABFB-936E6C32B491";
shapes = (
{
closed = 1;
nodes = (
(540,0,l),
(573,151,l),
(541,159,l),
(538,146,o),
(514,85,o),
(488,51,c),
(225,51,l),
(225,342,l),
(431,342,l),
(441,314,o),
(443,280,o),
(443,263,c),
(475,263,l),
(475,463,l),
(443,463,l),
(443,447,o),
(441,419,o),
(434,393,c),
(225,393,l),
(225,656,l),
(468,656,l),
(481,626,o),
(486,591,o),
(488,569,c),
(520,571,l),
(515,707,l),
(50,707,l),
(50,677,l),
(69,677,o),
(108,674,o),
(138,661,c),
(138,46,l),
(108,33,o),
(69,30,o),
(50,30,c),
(50,0,l)
);
},
{
closed = 1;
nodes = (
(355,-181,o),
(379,-155,o),
(379,-125,cs),
(379,-94,o),
(355,-70,o),
(323,-70,cs),
(291,-70,o),
(268,-97,o),
(268,-126,cs),
(268,-157,o),
(291,-181,o),
(323,-181,cs)
);
}
);
width = 598;
}
);
unicode = 7864;
},
{
glyphname = Egrave;
kernLeft = H;
kernRight = E;
lastChange = "2023-06-14 19:43:19 +0000";
layers = (
{
layerId = "6D97EE47-94AA-478E-ABFB-936E6C32B491";
shapes = (
{
closed = 1;
nodes = (
(540,0,l),
(573,151,l),
(541,159,l),
(538,146,o),
(514,85,o),
(488,51,c),
(225,51,l),
(225,342,l),
(431,342,l),
(441,314,o),
(443,280,o),
(443,263,c),
(475,263,l),
(475,463,l),
(443,463,l),
(443,447,o),
(441,419,o),
(434,393,c),
(225,393,l),
(225,656,l),
(468,656,l),
(481,626,o),
(486,591,o),
(488,569,c),
(520,571,l),
(515,707,l),
(50,707,l),
(50,677,l),
(69,677,o),
(108,674,o),
(138,661,c),
(138,46,l),
(108,33,o),
(69,30,o),
(50,30,c),
(50,0,l)
);
},
{
closed = 1;
nodes = (
(394,813,l),
(188,932,l),
(153,872,l),
(380,789,l)
);
}
);
width = 598;
}
);
unicode = 200;
},
{
glyphname = Emacron;
kernLeft = H;
kernRight = E;
lastChange = "2023-06-14 19:43:19 +0000";
layers = (
{
layerId = "6D97EE47-94AA-478E-ABFB-936E6C32B491";
shapes = (
{
closed = 1;
nodes = (
(540,0,l),
(573,151,l),
(541,159,l),
(538,146,o),
(514,85,o),
(488,51,c),
(225,51,l),
(225,342,l),
(431,342,l),
(441,314,o),
(443,280,o),
(443,263,c),
(475,263,l),
(475,463,l),
(443,463,l),
(443,447,o),
(441,419,o),
(434,393,c),
(225,393,l),
(225,656,l),
(468,656,l),
(481,626,o),
(486,591,o),
(488,569,c),
(520,571,l),
(515,707,l),
(50,707,l),
(50,677,l),
(69,677,o),
(108,674,o),
(138,661,c),
(138,46,l),
(108,33,o),
(69,30,o),
(50,30,c),
(50,0,l)
);
},
{
closed = 1;
nodes = (
(484,806,l),
(484,854,l),
(144,854,l),
(144,806,l)
);
}
);
width = 598;
}
);
unicode = 274;
},
{
glyphname = Eogonek;
kernLeft = H;
kernRight = E;
lastChange = "2023-06-14 19:43:19 +0000";
layers = (
{
layerId = "6D97EE47-94AA-478E-ABFB-936E6C32B491";
shapes = (
{
closed = 1;
nodes = (
(442,-240,o),
(483,-218,o),
(506,-190,c),
(495,-174,l),
(484,-183,o),
(465,-192,o),
(446,-192,cs),
(411,-192,o),
(391,-168,o),
(391,-135,cs),
(391,-96,o),
(423,-48,o),
(474,0,c),
(540,0,l),
(573,151,l),
(541,159,l),
(538,146,o),
(514,85,o),
(488,51,c),
(225,51,l),
(225,342,l),
(431,342,l),
(441,314,o),
(443,280,o),
(443,263,c),
(475,263,l),
(475,463,l),
(443,463,l),
(443,447,o),
(441,419,o),
(434,393,c),
(225,393,l),
(225,656,l),
(468,656,l),
(481,626,o),
(486,591,o),
(488,569,c),
(520,571,l),
(515,707,l),
(50,707,l),
(50,677,l),
(69,677,o),
(108,674,o),
(138,661,c),
(138,46,l),
(108,33,o),
(69,30,o),
(50,30,c),
(50,0,l),
(435,0,l),
(358,-57,o),
(322,-106,o),
(322,-162,cs),
(322,-217,o),
(361,-240,o),
(410,-240,cs)
);
}
);
width = 598;
}
);
unicode = 280;
},
{
glyphname = Etilde;
kernLeft = H;
kernRight = E;
lastChange = "2023-06-14 19:43:19 +0000";
layers = (
{
layerId = "6D97EE47-94AA-478E-ABFB-936E6C32B491";
shapes = (
{
closed = 1;
nodes = (
(540,0,l),
(573,151,l),
(541,159,l),
(538,146,o),
(514,85,o),
(488,51,c),
(225,51,l),
(225,342,l),
(431,342,l),
(441,314,o),
(443,280,o),
(443,263,c),
(475,263,l),
(475,463,l),
(443,463,l),
(443,447,o),
(441,419,o),
(434,393,c),
(225,393,l),
(225,656,l),
(468,656,l),
(481,626,o),
(486,591,o),
(488,569,c),
(520,571,l),
(515,707,l),
(50,707,l),
(50,677,l),
(69,677,o),
(108,674,o),
(138,661,c),
(138,46,l),
(108,33,o),
(69,30,o),
(50,30,c),
(50,0,l)
);
},
{
closed = 1;
nodes = (
(197,822,o),
(211,847,o),
(250,850,cs),
(299,852,o),
(324,796,o),
(392,800,cs),
(443,803,o),
(482,867,o),
(499,903,c),
(478,914,l),
(460,885,o),
(446,861,o),
(407,859,cs),
(359,857,o),
(334,912,o),
(265,908,cs),
(214,906,o),
(175,842,o),
(158,805,c),
(179,794,l)
);
}
);
width = 598;
}
);
unicode = 7868;
},
{
glyphname = Schwa;
kernLeft = Schwa;
kernRight = O;
lastChange = "2023-06-14 19:43:19 +0000";
layers = (
{
layerId = "6D97EE47-94AA-478E-ABFB-936E6C32B491";
shapes = (
{
closed = 1;
nodes = (
(533,-14,o),
(684,118,o),
(684,360,cs),
(684,562,o),
(527,721,o),
(324,721,cs),
(192,721,o),
(108,647,o),
(78,609,c),
(108,580,l),
(142,613,o),
(216,667,o),
(301,667,cs),
(467,667,o),
(593,507,o),
(593,319,cs),
(593,309,o),
(593,299,o),
(592,289,c),
(42,289,l),
(22,108,o),
(168,-14,o),
(345,-14,cs)
);
},
{
closed = 1;
nodes = (
(223,34,o),
(143,153,o),
(143,238,c),
(585,238,l),
(563,125,o),
(491,34,o),
(347,34,cs)
);
}
);
width = 734;
}
);
metricRight = O;
unicode = 399;
},
{
glyphname = F;
kernLeft = H;
kernRight = F;
lastChange = "2023-06-14 19:43:19 +0000";
layers = (
{
layerId = "6D97EE47-94AA-478E-ABFB-936E6C32B491";
shapes = (
{
closed = 1;
nodes = (
(322,0,l),
(322,30,l),
(301,30,o),
(258,33,o),
(225,46,c),
(225,331,l),
(428,331,l),
(438,303,o),
(440,269,o),
(440,252,c),
(470,252,l),
(470,452,l),
(440,452,l),
(440,437,o),
(438,408,o),
(430,382,c),
(225,382,l),
(225,656,l),
(468,656,l),
(481,626,o),
(486,591,o),
(488,569,c),
(520,571,l),
(515,707,l),
(50,707,l),
(50,677,l),
(69,677,o),
(108,674,o),
(138,661,c),
(138,46,l),
(108,33,o),
(69,30,o),
(50,30,c),
(50,0,l)
);
}
);
width = 545;
}
);
metricLeft = H;
metricRight = "=H/2";
unicode = 70;
},
{
glyphname = G;
kernLeft = O;
kernRight = G;
lastChange = "2023-06-14 19:43:19 +0000";
layers = (
{
layerId = "6D97EE47-94AA-478E-ABFB-936E6C32B491";
shapes = (
{
closed = 1;
nodes = (
(563,-14,o),
(646,13,o),
(730,17,c),
(730,52,l),
(720,57,o),
(708,67,o),
(704,76,c),
(704,221,l),
(715,228,o),
(743,237,o),
(759,237,c),
(759,269,l),
(529,269,l),
(529,237,l),
(547,237,o),
(587,234,o),
(617,221,c),
(617,70,l),
(562,43,o),
(511,31,o),
(463,31,cs),
(288,31,o),
(145,192,o),
(145,380,cs),
(145,552,o),
(255,673,o),
(435,673,cs),
(531,673,o),
(628,634,o),
(664,539,c),
(694,545,l),
(673,687,l),
(627,700,o),
(534,721,o),
(434,721,cs),
(221,721,o),
(50,563,o),
(50,349,cs),
(50,129,o),
(220,-14,o),
(458,-14,cs)
);
}
);
width = 799;
}
);
metricLeft = O;
metricRight = "=H-10";
unicode = 71;
},
{
glyphname = Gacute;
kernLeft = O;
kernRight = G;
lastChange = "2023-06-14 19:43:19 +0000";
layers = (
{
layerId = "6D97EE47-94AA-478E-ABFB-936E6C32B491";
shapes = (
{
closed = 1;
nodes = (
(563,-14,o),
(646,13,o),
(730,17,c),
(730,52,l),
(720,57,o),
(708,67,o),
(704,76,c),
(704,221,l),
(715,228,o),
(743,237,o),
(759,237,c),
(759,269,l),
(529,269,l),
(529,237,l),
(547,237,o),
(587,234,o),
(617,221,c),
(617,70,l),
(562,43,o),
(511,31,o),
(463,31,cs),
(288,31,o),
(145,192,o),
(145,380,cs),
(145,552,o),
(255,673,o),
(435,673,cs),
(531,673,o),
(628,634,o),
(664,539,c),
(694,545,l),
(673,687,l),
(627,700,o),
(534,721,o),
(434,721,cs),
(221,721,o),
(50,563,o),
(50,349,cs),
(50,129,o),
(220,-14,o),
(458,-14,cs)
);
},
{
closed = 1;
nodes = (
(610,864,l),
(575,924,l),
(369,805,l),
(383,781,l)
);
}
);
width = 799;
}
);
unicode = 500;
},
{
glyphname = Gbreve;
kernLeft = O;
kernRight = G;
lastChange = "2023-06-14 19:43:19 +0000";
layers = (
{
layerId = "6D97EE47-94AA-478E-ABFB-936E6C32B491";
shapes = (
{
closed = 1;
nodes = (
(563,-14,o),
(646,13,o),
(730,17,c),
(730,52,l),
(720,57,o),
(708,67,o),
(704,76,c),
(704,221,l),
(715,228,o),
(743,237,o),
(759,237,c),
(759,269,l),
(529,269,l),
(529,237,l),
(547,237,o),
(587,234,o),
(617,221,c),
(617,70,l),
(562,43,o),
(511,31,o),
(463,31,cs),
(288,31,o),
(145,192,o),
(145,380,cs),
(145,552,o),
(255,673,o),
(435,673,cs),
(531,673,o),
(628,634,o),
(664,539,c),
(694,545,l),
(673,687,l),
(627,700,o),
(534,721,o),
(434,721,cs),
(221,721,o),
(50,563,o),
(50,349,cs),
(50,129,o),
(220,-14,o),
(458,-14,cs)
);
},
{
closed = 1;
nodes = (
(486,811,o),
(546,837,o),
(579,923,c),
(556,935,l),
(522,883,o),
(472,877,o),
(429,877,cs),
(384,877,o),
(337,883,o),
(302,935,c),
(279,923,l),
(311,837,o),
(373,809,o),
(429,810,cs)
);
}
);
width = 799;
}
);
unicode = 286;
},
{
glyphname = Gcaron;
kernLeft = O;
kernRight = G;
lastChange = "2023-06-14 19:43:19 +0000";
layers = (
{
layerId = "6D97EE47-94AA-478E-ABFB-936E6C32B491";
shapes = (
{
closed = 1;
nodes = (
(563,-14,o),
(646,13,o),
(730,17,c),
(730,52,l),
(720,57,o),
(708,67,o),
(704,76,c),
(704,221,l),
(715,228,o),
(743,237,o),
(759,237,c),
(759,269,l),
(529,269,l),
(529,237,l),
(547,237,o),
(587,234,o),
(617,221,c),
(617,70,l),
(562,43,o),
(511,31,o),
(463,31,cs),
(288,31,o),
(145,192,o),
(145,380,cs),
(145,552,o),
(255,673,o),
(435,673,cs),
(531,673,o),
(628,634,o),
(664,539,c),
(694,545,l),
(673,687,l),
(627,700,o),
(534,721,o),
(434,721,cs),
(221,721,o),
(50,563,o),
(50,349,cs),
(50,129,o),
(220,-14,o),
(458,-14,cs)
);
},
{
closed = 1;
nodes = (
(444,796,l),
(605,932,l),
(586,955,l),
(432,867,l),
(278,955,l),
(259,932,l),
(420,796,l)
);
}
);
width = 799;
}
);
unicode = 486;
},
{
glyphname = Gcircumflex;
kernLeft = O;
kernRight = G;
lastChange = "2023-06-14 19:43:19 +0000";
layers = (
{
layerId = "6D97EE47-94AA-478E-ABFB-936E6C32B491";
shapes = (
{
closed = 1;
nodes = (
(563,-14,o),
(646,13,o),
(730,17,c),
(730,52,l),
(720,57,o),
(708,67,o),
(704,76,c),
(704,221,l),
(715,228,o),
(743,237,o),
(759,237,c),
(759,269,l),
(529,269,l),
(529,237,l),
(547,237,o),
(587,234,o),
(617,221,c),
(617,70,l),
(562,43,o),
(511,31,o),
(463,31,cs),
(288,31,o),
(145,192,o),
(145,380,cs),
(145,552,o),
(255,673,o),
(435,673,cs),
(531,673,o),
(628,634,o),
(664,539,c),
(694,545,l),
(673,687,l),
(627,700,o),
(534,721,o),
(434,721,cs),
(221,721,o),
(50,563,o),
(50,349,cs),
(50,129,o),
(220,-14,o),
(458,-14,cs)
);
},
{
closed = 1;
nodes = (
(429,877,l),
(583,789,l),
(602,812,l),
(441,948,l),
(417,948,l),
(256,812,l),
(275,789,l)
);
}
);
width = 799;
}
);
unicode = 284;
},
{
glyphname = Gcommaaccent;
kernLeft = O;
kernRight = G;
lastChange = "2023-06-14 19:43:19 +0000";
layers = (
{
layerId = "6D97EE47-94AA-478E-ABFB-936E6C32B491";
shapes = (
{
closed = 1;
nodes = (
(563,-14,o),
(646,13,o),
(730,17,c),
(730,52,l),
(720,57,o),
(708,67,o),
(704,76,c),
(704,221,l),
(715,228,o),
(743,237,o),
(759,237,c),
(759,269,l),
(529,269,l),
(529,237,l),
(547,237,o),
(587,234,o),
(617,221,c),
(617,70,l),
(562,43,o),
(511,31,o),
(463,31,cs),
(288,31,o),
(145,192,o),
(145,380,cs),
(145,552,o),
(255,673,o),
(435,673,cs),
(531,673,o),
(628,634,o),
(664,539,c),
(694,545,l),
(673,687,l),
(627,700,o),
(534,721,o),
(434,721,cs),
(221,721,o),
(50,563,o),
(50,349,cs),
(50,129,o),
(220,-14,o),
(458,-14,cs)
);
},
{
closed = 1;
nodes = (
(464,-273,o),
(493,-185,o),
(487,-128,cs),
(484,-94,o),
(463,-70,o),
(432,-70,cs),
(400,-70,o),
(377,-96,o),
(377,-126,cs),
(377,-157,o),
(400,-180,o),
(432,-180,cs),
(433,-180,l),
(433,-228,o),
(410,-269,o),
(371,-298,c),
(385,-317,l)
);
}
);
width = 799;
}
);
unicode = 290;
},
{
glyphname = Gdotaccent;
kernLeft = O;
kernRight = G;
lastChange = "2023-06-14 19:43:19 +0000";
layers = (
{
layerId = "6D97EE47-94AA-478E-ABFB-936E6C32B491";
shapes = (
{
closed = 1;
nodes = (
(563,-14,o),
(646,13,o),
(730,17,c),
(730,52,l),
(720,57,o),
(708,67,o),
(704,76,c),
(704,221,l),
(715,228,o),
(743,237,o),
(759,237,c),
(759,269,l),
(529,269,l),
(529,237,l),
(547,237,o),
(587,234,o),
(617,221,c),
(617,70,l),
(562,43,o),
(511,31,o),
(463,31,cs),
(288,31,o),
(145,192,o),
(145,380,cs),
(145,552,o),
(255,673,o),
(435,673,cs),
(531,673,o),
(628,634,o),
(664,539,c),
(694,545,l),
(673,687,l),
(627,700,o),
(534,721,o),
(434,721,cs),
(221,721,o),
(50,563,o),
(50,349,cs),
(50,129,o),
(220,-14,o),
(458,-14,cs)
);
},
{
closed = 1;
nodes = (
(461,800,o),
(485,826,o),
(485,856,cs),
(485,887,o),
(461,911,o),
(429,911,cs),
(397,911,o),
(374,884,o),
(374,855,cs),
(374,824,o),
(397,800,o),
(429,800,cs)
);
}
);
width = 799;
}
);
unicode = 288;
},
{
glyphname = H;
kernLeft = H;
kernRight = H;
lastChange = "2023-06-14 19:43:19 +0000";
layers = (
{
layerId = "6D97EE47-94AA-478E-ABFB-936E6C32B491";
shapes = (
{
closed = 1;
nodes = (
(313,0,l),
(313,30,l),
(294,30,o),
(255,33,o),
(225,46,c),
(225,348,l),
(625,348,l),
(625,46,l),
(595,33,o),
(556,30,o),
(537,30,c),
(537,0,l),
(800,0,l),
(800,30,l),
(781,30,o),
(742,33,o),
(712,46,c),
(712,661,l),
(742,674,o),
(781,677,o),
(800,677,c),
(800,707,l),
(537,707,l),
(537,677,l),
(556,677,o),
(595,674,o),
(625,661,c),
(625,399,l),
(225,399,l),
(225,661,l),
(255,674,o),
(294,677,o),
(313,677,c),
(313,707,l),
(50,707,l),
(50,677,l),
(69,677,o),
(108,674,o),
(138,661,c),
(138,46,l),
(108,33,o),
(69,30,o),
(50,30,c),
(50,0,l)
);
}
);
width = 850;
}
);
unicode = 72;
},
{
glyphname = Hbar;
kernLeft = H;
kernRight = H;
lastChange = "2023-06-14 19:43:19 +0000";
layers = (
{
layerId = "6D97EE47-94AA-478E-ABFB-936E6C32B491";
shapes = (
{
closed = 1;
nodes = (
(306,0,l),
(306,30,l),
(287,30,o),
(248,33,o),
(218,46,c),
(218,328,l),
(618,328,l),
(618,46,l),
(588,33,o),
(549,30,o),
(530,30,c),
(530,0,l),
(793,0,l),
(793,30,l),
(774,30,o),
(735,33,o),
(705,46,c),
(705,499,l),
(796,499,l),
(796,541,l),
(705,541,l),
(705,661,l),
(735,674,o),
(774,677,o),
(793,677,c),
(793,707,l),
(530,707,l),
(530,677,l),
(549,677,o),
(588,674,o),
(618,661,c),
(618,541,l),
(218,541,l),
(218,661,l),
(248,674,o),
(287,677,o),
(306,677,c),
(306,707,l),
(43,707,l),
(43,677,l),
(62,677,o),
(101,674,o),
(131,661,c),
(131,541,l),
(42,541,l),
(42,499,l),
(131,499,l),
(131,46,l),
(101,33,o),
(62,30,o),
(43,30,c),
(43,0,l)
);
},
{
closed = 1;
nodes = (
(218,499,l),
(618,499,l),
(618,379,l),
(218,379,l)
);
}
);
width = 834;
}
);
unicode = 294;
},
{
glyphname = Hcaron;
kernLeft = H;
kernRight = H;
lastChange = "2023-06-14 19:43:19 +0000";
layers = (
{
layerId = "6D97EE47-94AA-478E-ABFB-936E6C32B491";
shapes = (
{
closed = 1;
nodes = (
(313,0,l),
(313,30,l),
(294,30,o),
(255,33,o),
(225,46,c),
(225,348,l),
(625,348,l),
(625,46,l),
(595,33,o),
(556,30,o),
(537,30,c),
(537,0,l),
(800,0,l),
(800,30,l),
(781,30,o),
(742,33,o),
(712,46,c),
(712,661,l),
(742,674,o),
(781,677,o),
(800,677,c),
(800,707,l),
(537,707,l),
(537,677,l),
(556,677,o),
(595,674,o),
(625,661,c),
(625,399,l),
(225,399,l),
(225,661,l),
(255,674,o),
(294,677,o),
(313,677,c),
(313,707,l),
(50,707,l),
(50,677,l),
(69,677,o),
(108,674,o),
(138,661,c),
(138,46,l),
(108,33,o),
(69,30,o),
(50,30,c),
(50,0,l)
);
},
{
closed = 1;
nodes = (
(440,796,l),
(601,932,l),
(582,955,l),
(428,867,l),
(274,955,l),
(255,932,l),
(416,796,l)
);
}
);
width = 850;
}
);
unicode = 542;
},
{
glyphname = Hcircumflex;
kernLeft = H;
kernRight = H;
lastChange = "2023-06-14 19:43:19 +0000";
layers = (
{
layerId = "6D97EE47-94AA-478E-ABFB-936E6C32B491";
shapes = (
{
closed = 1;
nodes = (
(313,0,l),
(313,30,l),
(294,30,o),
(255,33,o),
(225,46,c),
(225,348,l),
(625,348,l),
(625,46,l),
(595,33,o),
(556,30,o),
(537,30,c),
(537,0,l),
(800,0,l),
(800,30,l),
(781,30,o),
(742,33,o),
(712,46,c),
(712,661,l),
(742,674,o),
(781,677,o),
(800,677,c),
(800,707,l),
(537,707,l),
(537,677,l),
(556,677,o),
(595,674,o),
(625,661,c),
(625,399,l),
(225,399,l),
(225,661,l),
(255,674,o),
(294,677,o),
(313,677,c),
(313,707,l),
(50,707,l),
(50,677,l),
(69,677,o),
(108,674,o),
(138,661,c),
(138,46,l),
(108,33,o),
(69,30,o),
(50,30,c),
(50,0,l)
);
},
{
closed = 1;
nodes = (
(425,877,l),
(579,789,l),
(598,812,l),
(437,948,l),
(413,948,l),
(252,812,l),
(271,789,l)
);
}
);
width = 850;
}
);
unicode = 292;
},
{
glyphname = I;
kernLeft = H;
kernRight = H;
lastChange = "2023-06-14 19:43:19 +0000";
layers = (
{
layerId = "6D97EE47-94AA-478E-ABFB-936E6C32B491";
shapes = (
{
closed = 1;
nodes = (
(313,0,l),
(313,30,l),
(294,30,o),
(255,33,o),
(225,46,c),
(225,661,l),
(255,674,o),
(294,677,o),
(313,677,c),
(313,707,l),
(50,707,l),
(50,677,l),
(69,677,o),
(108,674,o),
(138,661,c),
(138,46,l),
(108,33,o),
(69,30,o),
(50,30,c),
(50,0,l)
);
}
);
width = 363;
}
);
metricLeft = H;
metricRight = H;
unicode = 73;
},
{
glyphname = IJ;
kernLeft = H;
kernRight = H;
lastChange = "2023-06-14 19:43:19 +0000";
layers = (
{
layerId = "6D97EE47-94AA-478E-ABFB-936E6C32B491";
shapes = (
{
closed = 1;
nodes = (
(405,-271,o),
(534,-175,o),
(577,0,c),
(577,661,l),
(607,674,o),
(646,677,o),
(665,677,c),
(665,707,l),
(401,707,l),
(401,677,l),
(420,677,o),
(459,674,o),
(489,661,c),
(489,20,ls),
(488,-6,o),
(486,-33,o),
(479,-59,cs),
(454,-154,o),
(396,-230,o),
(359,-263,c),
(381,-286,l)
);
},
{
closed = 1;
nodes = (
(313,0,l),
(313,30,l),
(294,30,o),
(255,33,o),
(225,46,c),
(225,661,l),
(255,674,o),
(294,677,o),
(313,677,c),
(313,707,l),
(50,707,l),
(50,677,l),
(69,677,o),
(108,674,o),
(138,661,c),
(138,46,l),
(108,33,o),
(69,30,o),
(50,30,c),
(50,0,l)
);
}
);
width = 715;
}
);
metricLeft = H;
metricRight = H;
unicode = 306;
},
{
glyphname = Iacute;
kernLeft = H;
kernRight = H;
lastChange = "2023-06-14 19:43:19 +0000";
layers = (
{
layerId = "6D97EE47-94AA-478E-ABFB-936E6C32B491";
shapes = (
{
closed = 1;
nodes = (
(313,0,l),
(313,30,l),
(294,30,o),
(255,33,o),
(225,46,c),
(225,661,l),
(255,674,o),
(294,677,o),
(313,677,c),
(313,707,l),
(50,707,l),
(50,677,l),
(69,677,o),
(108,674,o),
(138,661,c),
(138,46,l),
(108,33,o),
(69,30,o),
(50,30,c),
(50,0,l)
);
},
{
closed = 1;
nodes = (
(362,864,l),
(327,924,l),
(121,805,l),
(135,781,l)
);
}
);
width = 363;
}
);
unicode = 205;
},
{
glyphname = Ibreve;
kernLeft = H;
kernRight = H;
lastChange = "2023-06-14 19:43:19 +0000";
layers = (
{
layerId = "6D97EE47-94AA-478E-ABFB-936E6C32B491";
shapes = (
{
closed = 1;
nodes = (
(313,0,l),
(313,30,l),
(294,30,o),
(255,33,o),
(225,46,c),
(225,661,l),
(255,674,o),
(294,677,o),
(313,677,c),
(313,707,l),
(50,707,l),
(50,677,l),
(69,677,o),
(108,674,o),
(138,661,c),
(138,46,l),
(108,33,o),
(69,30,o),
(50,30,c),
(50,0,l)
);
},
{
closed = 1;
nodes = (
(238,811,o),
(298,837,o),
(331,923,c),
(308,935,l),
(274,883,o),
(224,877,o),
(181,877,cs),
(136,877,o),
(89,883,o),
(54,935,c),
(31,923,l),
(63,837,o),
(125,809,o),
(181,810,cs)
);
}
);
width = 363;
}
);
unicode = 300;
},
{
glyphname = Icircumflex;
kernLeft = H;
kernRight = H;
lastChange = "2023-06-14 19:43:19 +0000";
layers = (
{
layerId = "6D97EE47-94AA-478E-ABFB-936E6C32B491";
shapes = (
{
closed = 1;
nodes = (
(313,0,l),
(313,30,l),
(294,30,o),
(255,33,o),
(225,46,c),
(225,661,l),
(255,674,o),
(294,677,o),
(313,677,c),
(313,707,l),
(50,707,l),
(50,677,l),
(69,677,o),
(108,674,o),
(138,661,c),
(138,46,l),
(108,33,o),
(69,30,o),
(50,30,c),
(50,0,l)
);
},
{
closed = 1;
nodes = (
(181,877,l),
(335,789,l),
(354,812,l),
(193,948,l),
(169,948,l),
(8,812,l),
(27,789,l)
);
}
);
width = 363;
}
);
unicode = 206;
},
{
glyphname = Idieresis;
kernLeft = H;
kernRight = H;
lastChange = "2023-06-14 19:43:19 +0000";
layers = (
{
layerId = "6D97EE47-94AA-478E-ABFB-936E6C32B491";
shapes = (
{
closed = 1;
nodes = (
(313,0,l),
(313,30,l),
(294,30,o),
(255,33,o),
(225,46,c),
(225,661,l),
(255,674,o),
(294,677,o),
(313,677,c),
(313,707,l),
(50,707,l),
(50,677,l),
(69,677,o),
(108,674,o),
(138,661,c),
(138,46,l),
(108,33,o),
(69,30,o),
(50,30,c),
(50,0,l)
);
},
{
closed = 1;
nodes = (
(118,800,o),
(140,823,o),
(140,850,cs),
(140,877,o),
(118,898,o),
(90,898,cs),
(62,898,o),
(41,875,o),
(41,848,cs),
(41,821,o),
(62,800,o),
(90,800,cs)
);
},
{
closed = 1;
nodes = (
(299,800,o),
(321,823,o),
(321,850,cs),
(321,877,o),
(299,898,o),
(271,898,cs),
(243,898,o),
(222,875,o),
(222,848,cs),
(222,821,o),
(243,800,o),
(271,800,cs)
);
}
);
width = 363;
}
);
unicode = 207;
},
{
glyphname = Idotaccent;
kernLeft = H;
kernRight = H;
lastChange = "2023-06-14 19:43:19 +0000";
layers = (
{
layerId = "6D97EE47-94AA-478E-ABFB-936E6C32B491";
shapes = (
{
closed = 1;
nodes = (
(313,0,l),
(313,30,l),
(294,30,o),
(255,33,o),
(225,46,c),
(225,661,l),
(255,674,o),
(294,677,o),
(313,677,c),
(313,707,l),
(50,707,l),
(50,677,l),
(69,677,o),
(108,674,o),
(138,661,c),
(138,46,l),
(108,33,o),
(69,30,o),
(50,30,c),
(50,0,l)
);
},
{
closed = 1;
nodes = (
(213,800,o),
(237,826,o),
(237,856,cs),
(237,887,o),
(213,911,o),
(181,911,cs),
(149,911,o),
(126,884,o),
(126,855,cs),
(126,824,o),
(149,800,o),
(181,800,cs)
);
}
);
width = 363;
}
);
unicode = 304;
},
{
glyphname = Idotbelow;
kernLeft = H;
kernRight = H;
lastChange = "2023-06-14 19:43:19 +0000";
layers = (
{
layerId = "6D97EE47-94AA-478E-ABFB-936E6C32B491";
shapes = (
{
closed = 1;
nodes = (
(313,0,l),
(313,30,l),
(294,30,o),
(255,33,o),
(225,46,c),
(225,661,l),
(255,674,o),
(294,677,o),
(313,677,c),
(313,707,l),
(50,707,l),
(50,677,l),
(69,677,o),
(108,674,o),
(138,661,c),
(138,46,l),
(108,33,o),
(69,30,o),
(50,30,c),
(50,0,l)
);
},
{
closed = 1;
nodes = (
(213,-181,o),
(237,-155,o),
(237,-125,cs),
(237,-94,o),
(213,-70,o),
(181,-70,cs),
(149,-70,o),
(126,-97,o),
(126,-126,cs),
(126,-157,o),
(149,-181,o),
(181,-181,cs)
);
}
);
width = 363;
}
);
unicode = 7882;
},
{
glyphname = Igrave;
kernLeft = H;
kernRight = H;
lastChange = "2023-06-14 19:43:19 +0000";
layers = (
{
layerId = "6D97EE47-94AA-478E-ABFB-936E6C32B491";
shapes = (
{
closed = 1;
nodes = (
(313,0,l),
(313,30,l),
(294,30,o),
(255,33,o),
(225,46,c),
(225,661,l),
(255,674,o),
(294,677,o),
(313,677,c),
(313,707,l),
(50,707,l),
(50,677,l),
(69,677,o),
(108,674,o),
(138,661,c),
(138,46,l),
(108,33,o),
(69,30,o),
(50,30,c),
(50,0,l)
);
},
{
closed = 1;
nodes = (
(261,813,l),
(55,932,l),
(20,872,l),
(247,789,l)
);
}
);
width = 363;
}
);
unicode = 204;
},
{
glyphname = Imacron;
kernLeft = H;
kernRight = H;
lastChange = "2023-06-14 19:43:19 +0000";
layers = (
{
layerId = "6D97EE47-94AA-478E-ABFB-936E6C32B491";
shapes = (
{
closed = 1;
nodes = (
(313,0,l),
(313,30,l),
(294,30,o),
(255,33,o),
(225,46,c),
(225,661,l),
(255,674,o),
(294,677,o),
(313,677,c),
(313,707,l),
(50,707,l),
(50,677,l),
(69,677,o),
(108,674,o),
(138,661,c),
(138,46,l),
(108,33,o),
(69,30,o),
(50,30,c),
(50,0,l)
);
},
{
closed = 1;
nodes = (
(334,806,l),
(334,854,l),
(28,854,l),
(28,806,l)
);
}
);
width = 363;
}
);
unicode = 298;
},
{
glyphname = Iogonek;
kernLeft = H;
kernRight = H;
lastChange = "2023-06-14 19:43:19 +0000";
layers = (
{
layerId = "6D97EE47-94AA-478E-ABFB-936E6C32B491";
shapes = (
{
closed = 1;
nodes = (
(191,-240,o),
(232,-218,o),
(255,-190,c),
(244,-174,l),
(233,-183,o),
(214,-192,o),
(195,-192,cs),
(160,-192,o),
(140,-168,o),
(140,-135,cs),
(140,-96,o),
(172,-48,o),
(223,0,c),
(313,0,l),
(313,30,l),
(294,30,o),
(255,33,o),
(225,46,c),
(225,661,l),
(255,674,o),
(294,677,o),
(313,677,c),
(313,707,l),
(50,707,l),
(50,677,l),
(69,677,o),
(108,674,o),
(138,661,c),
(138,46,l),
(108,33,o),
(69,30,o),
(50,30,c),
(50,0,l),
(184,0,l),
(107,-57,o),
(71,-106,o),
(71,-162,cs),
(71,-217,o),
(110,-240,o),
(159,-240,cs)
);
}
);
width = 363;
}
);
unicode = 302;
},
{
glyphname = Itilde;
kernLeft = H;
kernRight = H;
lastChange = "2023-06-14 19:43:19 +0000";
layers = (
{
layerId = "6D97EE47-94AA-478E-ABFB-936E6C32B491";
shapes = (
{
closed = 1;
nodes = (
(313,0,l),
(313,30,l),
(294,30,o),
(255,33,o),
(225,46,c),
(225,661,l),
(255,674,o),
(294,677,o),
(313,677,c),
(313,707,l),
(50,707,l),
(50,677,l),
(69,677,o),
(108,674,o),
(138,661,c),
(138,46,l),
(108,33,o),
(69,30,o),
(50,30,c),
(50,0,l)
);
},
{
closed = 1;
nodes = (
(58,822,o),
(72,847,o),
(111,850,cs),
(160,852,o),
(185,796,o),
(253,800,cs),
(304,803,o),
(343,867,o),
(360,903,c),
(339,914,l),
(321,885,o),
(307,861,o),
(268,859,cs),
(220,857,o),
(195,912,o),
(126,908,cs),
(75,906,o),
(36,842,o),
(19,805,c),
(40,794,l)
);
}
);
width = 363;
}
);
unicode = 296;
},
{
glyphname = J;
kernLeft = J;
kernRight = H;
lastChange = "2023-06-14 19:43:19 +0000";
layers = (
{
layerId = "6D97EE47-94AA-478E-ABFB-936E6C32B491";
shapes = (
{
closed = 1;
nodes = (
(92,-271,o),
(221,-175,o),
(264,0,c),
(264,661,l),
(294,674,o),
(333,677,o),
(352,677,c),
(352,707,l),
(88,707,l),
(88,677,l),
(107,677,o),
(146,674,o),
(176,661,c),
(176,20,ls),
(175,-6,o),
(173,-33,o),
(166,-59,cs),
(141,-154,o),
(83,-230,o),
(46,-263,c),
(68,-286,l)
);
}
);
width = 402;
}
);
metricRight = H;
unicode = 74;
},
{
glyphname = Jacute;
kernLeft = J;
kernRight = H;
lastChange = "2023-06-14 19:43:19 +0000";
layers = (
{
layerId = "6D97EE47-94AA-478E-ABFB-936E6C32B491";
shapes = (
{
closed = 1;
nodes = (
(92,-271,o),
(221,-175,o),
(264,0,c),
(264,661,l),
(294,674,o),
(333,677,o),
(352,677,c),
(352,707,l),
(88,707,l),
(88,677,l),
(107,677,o),
(146,674,o),
(176,661,c),
(176,20,ls),
(175,-6,o),
(173,-33,o),
(166,-59,cs),
(141,-154,o),
(83,-230,o),
(46,-263,c),
(68,-286,l)
);
},
{
closed = 1;
nodes = (
(401,864,l),
(366,924,l),
(160,805,l),
(174,781,l)
);
}
);
width = 402;
}
);
},
{
glyphname = Jcircumflex;
kernLeft = J;
kernRight = H;
lastChange = "2023-06-14 19:43:19 +0000";
layers = (
{
layerId = "6D97EE47-94AA-478E-ABFB-936E6C32B491";
shapes = (
{
closed = 1;
nodes = (
(92,-271,o),
(221,-175,o),
(264,0,c),
(264,661,l),
(294,674,o),
(333,677,o),
(352,677,c),
(352,707,l),
(88,707,l),
(88,677,l),
(107,677,o),
(146,674,o),
(176,661,c),
(176,20,ls),
(175,-6,o),
(173,-33,o),
(166,-59,cs),
(141,-154,o),
(83,-230,o),
(46,-263,c),
(68,-286,l)
);
},
{
closed = 1;
nodes = (
(220,877,l),
(374,789,l),
(393,812,l),
(232,948,l),
(208,948,l),
(47,812,l),
(66,789,l)
);
}
);
width = 402;
}
);
unicode = 308;
},
{
glyphname = K;
kernLeft = H;
kernRight = K;
lastChange = "2023-06-14 19:43:19 +0000";
layers = (
{
layerId = "6D97EE47-94AA-478E-ABFB-936E6C32B491";
shapes = (
{
closed = 1;
nodes = (
(712,0,l),
(623,27,o),
(591,68,o),
(538,127,cs),
(473,199,o),
(374,342,o),
(331,392,c),
(581,661,l),
(611,674,o),
(649,677,o),
(668,677,c),
(668,707,l),
(440,707,l),
(440,677,l),
(455,677,o),
(487,674,o),
(512,661,c),
(243,373,l),
(275,331,o),
(418,117,o),
(469,65,cs),
(525,7,o),
(568,-29,o),
(705,-30,c)
);
},
{
closed = 1;
nodes = (
(317,0,l),
(317,30,l),
(297,30,o),
(256,33,o),
(225,46,c),
(225,661,l),
(255,674,o),
(294,677,o),
(313,677,c),
(313,707,l),
(50,707,l),
(50,677,l),
(69,677,o),
(108,674,o),
(138,661,c),
(138,46,l),
(108,33,o),
(69,30,o),
(50,30,c),
(50,0,l)
);
}
);
width = 706;
}
);
metricLeft = H;
unicode = 75;
},
{
glyphname = Kcommaaccent;
kernLeft = H;
kernRight = K;
lastChange = "2023-06-14 19:43:19 +0000";
layers = (
{
layerId = "6D97EE47-94AA-478E-ABFB-936E6C32B491";
shapes = (
{
closed = 1;
nodes = (
(712,0,l),
(623,27,o),
(591,68,o),
(538,127,cs),
(473,199,o),
(374,342,o),
(331,392,c),
(581,661,l),
(611,674,o),
(649,677,o),
(668,677,c),
(668,707,l),
(440,707,l),
(440,677,l),
(455,677,o),
(487,674,o),
(512,661,c),
(243,373,l),
(275,331,o),
(418,117,o),
(469,65,cs),
(525,7,o),
(568,-29,o),
(705,-30,c)
);
},
{
closed = 1;
nodes = (
(391,-273,o),
(420,-185,o),
(414,-128,cs),
(411,-94,o),
(390,-70,o),
(359,-70,cs),
(327,-70,o),
(304,-96,o),
(304,-126,cs),
(304,-157,o),
(327,-180,o),
(359,-180,cs),
(360,-180,l),
(360,-228,o),
(337,-269,o),
(298,-298,c),
(312,-317,l)
);
},
{
closed = 1;
nodes = (
(317,0,l),
(317,30,l),
(297,30,o),
(256,33,o),
(225,46,c),
(225,661,l),
(255,674,o),
(294,677,o),
(313,677,c),
(313,707,l),
(50,707,l),
(50,677,l),
(69,677,o),
(108,674,o),
(138,661,c),
(138,46,l),
(108,33,o),
(69,30,o),
(50,30,c),
(50,0,l)
);
}
);
width = 706;
}
);
unicode = 310;
},
{
glyphname = L;
kernLeft = H;
kernRight = E;
lastChange = "2023-06-14 19:43:19 +0000";
layers = (
{
layerId = "6D97EE47-94AA-478E-ABFB-936E6C32B491";
shapes = (
{
closed = 1;
nodes = (
(540,0,l),
(586,148,l),
(555,158,l),
(547,139,o),
(516,77,o),
(493,51,c),
(225,51,l),
(225,661,l),
(255,674,o),
(294,677,o),
(313,677,c),
(313,707,l),
(50,707,l),
(50,677,l),
(69,677,o),
(108,674,o),
(138,661,c),
(138,46,l),
(108,33,o),
(69,30,o),
(50,30,c),
(50,0,l)
);
}
);
width = 590;
}
);
metricLeft = H;
unicode = 76;
},
{
glyphname = Lacute;
kernLeft = H;
kernRight = E;
lastChange = "2023-06-14 19:43:19 +0000";
layers = (
{
layerId = "6D97EE47-94AA-478E-ABFB-936E6C32B491";
shapes = (
{
closed = 1;
nodes = (
(540,0,l),
(586,148,l),
(555,158,l),
(547,139,o),
(516,77,o),
(493,51,c),
(225,51,l),
(225,661,l),
(255,674,o),
(294,677,o),
(313,677,c),
(313,707,l),
(50,707,l),
(50,677,l),
(69,677,o),
(108,674,o),
(138,661,c),
(138,46,l),
(108,33,o),
(69,30,o),
(50,30,c),
(50,0,l)
);
},
{
closed = 1;
nodes = (
(363,864,l),
(328,924,l),
(122,805,l),
(136,781,l)
);
}
);
width = 590;
}
);
unicode = 313;
},
{
glyphname = Lcaron;
kernLeft = H;
kernRight = E;
lastChange = "2023-06-14 19:43:19 +0000";
layers = (
{
layerId = "6D97EE47-94AA-478E-ABFB-936E6C32B491";
shapes = (
{
closed = 1;
nodes = (
(540,0,l),
(586,148,l),
(555,158,l),
(547,139,o),
(516,77,o),
(493,51,c),
(225,51,l),
(225,661,l),
(255,674,o),
(294,677,o),
(313,677,c),
(313,707,l),
(50,707,l),
(50,677,l),
(69,677,o),
(108,674,o),
(138,661,c),
(138,46,l),
(108,33,o),
(69,30,o),
(50,30,c),
(50,0,l)
);
},
{
closed = 1;
nodes = (
(440,476,l),
(474,715,l),
(398,712,l),
(406,475,l)
);
}
);
width = 590;
}
);
metricLeft = L;
metricRight = L;
unicode = 317;
},
{
glyphname = Lcommaaccent;
kernLeft = H;
kernRight = E;
lastChange = "2023-06-14 19:43:19 +0000";
layers = (
{
layerId = "6D97EE47-94AA-478E-ABFB-936E6C32B491";
shapes = (
{
closed = 1;
nodes = (
(540,0,l),
(586,148,l),
(555,158,l),
(547,139,o),
(516,77,o),
(493,51,c),
(225,51,l),
(225,661,l),
(255,674,o),
(294,677,o),
(313,677,c),
(313,707,l),
(50,707,l),
(50,677,l),
(69,677,o),
(108,674,o),
(138,661,c),
(138,46,l),
(108,33,o),
(69,30,o),
(50,30,c),
(50,0,l)
);
},
{
closed = 1;
nodes = (
(348,-273,o),
(377,-185,o),
(371,-128,cs),
(368,-94,o),
(347,-70,o),
(316,-70,cs),
(284,-70,o),
(261,-96,o),
(261,-126,cs),
(261,-157,o),
(284,-180,o),
(316,-180,cs),
(317,-180,l),
(317,-228,o),
(294,-269,o),
(255,-298,c),
(269,-317,l)
);
}
);
width = 590;
}
);
unicode = 315;
},
{
glyphname = Ldot;
kernLeft = H;
kernRight = E;
lastChange = "2023-06-14 19:43:19 +0000";
layers = (
{
layerId = "6D97EE47-94AA-478E-ABFB-936E6C32B491";
shapes = (
{
closed = 1;
nodes = (
(540,0,l),
(586,148,l),
(555,158,l),
(547,139,o),
(516,77,o),
(493,51,c),
(225,51,l),
(225,661,l),
(255,674,o),
(294,677,o),
(313,677,c),
(313,707,l),
(50,707,l),
(50,677,l),
(69,677,o),
(108,674,o),
(138,661,c),
(138,46,l),
(108,33,o),
(69,30,o),
(50,30,c),
(50,0,l)
);
},
{
closed = 1;
nodes = (
(527,286,o),
(555,316,o),
(555,350,cs),
(555,385,o),
(527,412,o),
(491,412,cs),
(455,412,o),
(428,382,o),
(428,348,cs),
(428,313,o),
(455,286,o),
(491,286,cs)
);
}
);
width = 590;
}
);
unicode = 319;
},
{
glyphname = Lslash;
kernLeft = H;
kernRight = E;
lastChange = "2023-06-14 19:43:19 +0000";
layers = (
{
layerId = "6D97EE47-94AA-478E-ABFB-936E6C32B491";
shapes = (
{
closed = 1;
nodes = (
(540,0,l),
(586,148,l),
(555,158,l),
(547,139,o),
(516,77,o),
(493,51,c),
(225,51,l),
(225,338,l),
(406,427,l),
(387,465,l),
(225,386,l),
(225,661,l),
(255,674,o),
(294,677,o),
(313,677,c),
(313,707,l),
(50,707,l),
(50,677,l),
(69,677,o),
(108,674,o),
(138,661,c),
(138,343,l),
(52,301,l),
(71,263,l),
(138,296,l),
(138,46,l),
(108,33,o),
(69,30,o),
(50,30,c),
(50,0,l)
);
}
);
width = 590;
}
);
metricLeft = L;
metricRight = L;
unicode = 321;
},
{
glyphname = M;
kernLeft = M;
kernRight = M;
lastChange = "2023-06-14 19:43:19 +0000";
layers = (
{
layerId = "6D97EE47-94AA-478E-ABFB-936E6C32B491";
shapes = (
{
closed = 1;
nodes = (
(272,0,l),
(272,30,l),
(253,30,o),
(214,33,o),
(184,46,c),
(207,568,l),
(439,0,l),
(706,544,l),
(725,46,l),
(695,33,o),
(657,30,o),
(638,30,c),
(638,0,l),
(901,0,l),
(901,30,l),
(882,30,o),
(843,33,o),
(813,46,c),
(789,661,l),
(819,674,o),
(857,677,o),
(876,677,c),
(876,707,l),
(729,707,l),
(465,169,l),
(245,707,l),
(67,707,l),
(67,677,l),
(86,677,o),
(125,674,o),
(155,661,c),
(128,46,l),
(98,33,o),
(59,30,o),
(40,30,c),
(40,0,l)
);
}
);
width = 951;
}
);
metricLeft = "=H-10";
metricRight = H;
unicode = 77;
},
{
glyphname = N;
kernLeft = H;
kernRight = H;
lastChange = "2023-06-14 19:43:19 +0000";
layers = (
{
layerId = "6D97EE47-94AA-478E-ABFB-936E6C32B491";
shapes = (
{
closed = 1;
nodes = (
(678,-14,l),
(678,661,l),
(708,674,o),
(747,677,o),
(766,677,c),
(766,707,l),
(534,707,l),
(534,677,l),
(553,677,o),
(592,674,o),
(622,661,c),
(622,147,l),
(199,707,l),
(40,707,l),
(40,677,l),
(59,677,o),
(98,674,o),
(128,661,c),
(128,46,l),
(98,33,o),
(59,30,o),
(40,30,c),
(40,0,l),
(272,0,l),
(272,30,l),
(253,30,o),
(214,33,o),
(184,46,c),
(184,582,l),
(633,-14,l)
);
}
);
width = 806;
}
);
metricLeft = "=H-10";
metricRight = "=H-10";
unicode = 78;
},
{
glyphname = Nacute;
kernLeft = H;
kernRight = H;
lastChange = "2023-06-14 19:43:19 +0000";
layers = (
{
layerId = "6D97EE47-94AA-478E-ABFB-936E6C32B491";
shapes = (
{
closed = 1;
nodes = (
(678,-14,l),
(678,661,l),
(708,674,o),
(747,677,o),
(766,677,c),
(766,707,l),
(534,707,l),
(534,677,l),
(553,677,o),
(592,674,o),
(622,661,c),
(622,147,l),
(199,707,l),
(40,707,l),
(40,677,l),
(59,677,o),
(98,674,o),
(128,661,c),
(128,46,l),
(98,33,o),
(59,30,o),
(40,30,c),
(40,0,l),
(272,0,l),
(272,30,l),
(253,30,o),
(214,33,o),
(184,46,c),
(184,582,l),
(633,-14,l)
);
},
{
closed = 1;
nodes = (
(588,864,l),
(553,924,l),
(347,805,l),
(361,781,l)
);
}
);
width = 806;
}
);
unicode = 323;
},
{
glyphname = Ncaron;
kernLeft = H;
kernRight = H;
lastChange = "2023-06-14 19:43:19 +0000";
layers = (
{
layerId = "6D97EE47-94AA-478E-ABFB-936E6C32B491";
shapes = (
{
closed = 1;
nodes = (
(678,-14,l),
(678,661,l),
(708,674,o),
(747,677,o),
(766,677,c),
(766,707,l),
(534,707,l),
(534,677,l),
(553,677,o),
(592,674,o),
(622,661,c),
(622,147,l),
(199,707,l),
(40,707,l),
(40,677,l),
(59,677,o),
(98,674,o),
(128,661,c),
(128,46,l),
(98,33,o),
(59,30,o),
(40,30,c),
(40,0,l),
(272,0,l),
(272,30,l),
(253,30,o),
(214,33,o),
(184,46,c),
(184,582,l),
(633,-14,l)
);
},
{
closed = 1;
nodes = (
(422,796,l),
(583,932,l),
(564,955,l),
(410,867,l),
(256,955,l),
(237,932,l),
(398,796,l)
);
}
);
width = 806;
}
);
unicode = 327;
},
{
glyphname = Ncommaaccent;
kernLeft = H;
kernRight = H;
lastChange = "2023-06-14 19:43:19 +0000";
layers = (
{
layerId = "6D97EE47-94AA-478E-ABFB-936E6C32B491";
shapes = (
{
closed = 1;
nodes = (
(678,-14,l),
(678,661,l),
(708,674,o),
(747,677,o),
(766,677,c),
(766,707,l),
(534,707,l),
(534,677,l),
(553,677,o),
(592,674,o),
(622,661,c),
(622,147,l),
(199,707,l),
(40,707,l),
(40,677,l),
(59,677,o),
(98,674,o),
(128,661,c),
(128,46,l),
(98,33,o),
(59,30,o),
(40,30,c),
(40,0,l),
(272,0,l),
(272,30,l),
(253,30,o),
(214,33,o),
(184,46,c),
(184,582,l),
(633,-14,l)
);
},
{
closed = 1;
nodes = (
(442,-273,o),
(471,-185,o),
(465,-128,cs),
(462,-94,o),
(441,-70,o),
(410,-70,cs),
(378,-70,o),
(355,-96,o),
(355,-126,cs),
(355,-157,o),
(378,-180,o),
(410,-180,cs),
(411,-180,l),
(411,-228,o),
(388,-269,o),
(349,-298,c),
(363,-317,l)
);
}
);
width = 806;
}
);
unicode = 325;
},
{
glyphname = Nhookleft;
kernLeft = H;
kernRight = H;
lastChange = "2023-06-14 19:43:19 +0000";
layers = (
{
layerId = "6D97EE47-94AA-478E-ABFB-936E6C32B491";
shapes = (
{
closed = 1;
nodes = (
(21,-239,o),
(64,-234,o),
(101,-209,cs),
(145,-179,o),
(165,-134,o),
(170,-92,cs),
(175,-53,o),
(173,89,o),
(173,141,cs),
(173,583,l),
(623,-14,l),
(667,-14,l),
(667,661,l),
(697,674,o),
(736,677,o),
(755,677,c),
(755,707,l),
(523,707,l),
(523,677,l),
(542,677,o),
(581,674,o),
(611,661,c),
(611,148,l),
(190,707,l),
(29,707,l),
(29,677,l),
(48,677,o),
(87,674,o),
(117,661,c),
(117,2,ls),
(119,-80,o),
(113,-109,o),
(91,-131,cs),
(66,-156,o),
(14,-159,o),
(-34,-147,c),
(-28,-229,l)
);
}
);
width = 795;
}
);
metricRight = N;
unicode = 413;
},
{
glyphname = Ntilde;
kernLeft = H;
kernRight = H;
lastChange = "2023-06-14 19:43:19 +0000";
layers = (
{
layerId = "6D97EE47-94AA-478E-ABFB-936E6C32B491";
shapes = (
{
closed = 1;
nodes = (
(678,-14,l),
(678,661,l),
(708,674,o),
(747,677,o),
(766,677,c),
(766,707,l),
(534,707,l),
(534,677,l),
(553,677,o),
(592,674,o),
(622,661,c),
(622,147,l),
(199,707,l),
(40,707,l),
(40,677,l),
(59,677,o),
(98,674,o),
(128,661,c),
(128,46,l),
(98,33,o),
(59,30,o),
(40,30,c),
(40,0,l),
(272,0,l),
(272,30,l),
(253,30,o),
(214,33,o),
(184,46,c),
(184,582,l),
(633,-14,l)
);
},
{
closed = 1;
nodes = (
(290,822,o),
(304,847,o),
(343,850,cs),
(392,852,o),
(417,796,o),
(485,800,cs),
(536,803,o),
(575,867,o),
(592,903,c),
(571,914,l),
(553,885,o),
(539,861,o),
(500,859,cs),
(452,857,o),
(427,912,o),
(358,908,cs),
(307,906,o),
(268,842,o),
(251,805,c),
(272,794,l)
);
}
);
width = 806;
}
);
unicode = 209;
},
{
glyphname = Eng;
kernLeft = H;
kernRight = H;
lastChange = "2023-06-14 19:43:19 +0000";
layers = (
{
layerId = "6D97EE47-94AA-478E-ABFB-936E6C32B491";
shapes = (
{
closed = 1;
nodes = (
(526,-239,o),
(569,-234,o),
(606,-209,cs),
(650,-179,o),
(666,-129,o),
(671,-92,cs),
(676,-53,o),
(678,89,o),
(678,141,cs),
(678,662,l),
(708,674,o),
(745,677,o),
(764,677,c),
(764,707,l),
(536,707,l),
(536,677,l),
(555,677,o),
(592,674,o),
(622,662,c),
(622,148,l),
(201,707,l),
(40,707,l),
(40,677,l),
(59,677,o),
(98,674,o),
(128,661,c),
(128,46,l),
(98,33,o),
(59,30,o),
(40,30,c),
(40,0,l),
(272,0,l),
(272,30,l),
(253,30,o),
(214,33,o),
(184,46,c),
(184,583,l),
(622,2,l),
(624,-80,o),
(618,-109,o),
(596,-131,cs),
(571,-155,o),
(519,-159,o),
(471,-147,c),
(477,-229,l)
);
}
);
width = 804;
}
);
metricLeft = N;
metricRight = N;
unicode = 330;
},
{
glyphname = O;
kernLeft = O;
kernRight = O;
lastChange = "2023-06-14 19:43:19 +0000";
layers = (
{
layerId = "6D97EE47-94AA-478E-ABFB-936E6C32B491";
shapes = (
{
closed = 1;
nodes = (
(625,-14,o),
(794,155,o),
(794,360,cs),
(794,562,o),
(627,721,o),
(424,721,cs),
(218,721,o),
(50,553,o),
(50,348,cs),
(50,146,o),
(215,-14,o),
(419,-14,cs)
);
},
{
closed = 1;
nodes = (
(276,41,o),
(141,215,o),
(141,390,cs),
(141,544,o),
(248,667,o),
(395,667,cs),
(566,667,o),
(702,496,o),
(702,319,cs),
(702,165,o),
(596,41,o),
(449,41,cs)
);
}
);
width = 844;
}
);
unicode = 79;
},
{
glyphname = Oacute;
kernLeft = O;
kernRight = O;
lastChange = "2023-06-14 19:43:19 +0000";
layers = (
{
layerId = "6D97EE47-94AA-478E-ABFB-936E6C32B491";
shapes = (
{
closed = 1;
nodes = (
(625,-14,o),
(794,155,o),
(794,360,cs),
(794,562,o),
(627,721,o),
(424,721,cs),
(218,721,o),
(50,553,o),
(50,348,cs),
(50,146,o),
(215,-14,o),
(419,-14,cs)
);
},
{
closed = 1;
nodes = (
(276,41,o),
(141,215,o),
(141,390,cs),
(141,544,o),
(248,667,o),
(395,667,cs),
(566,667,o),
(702,496,o),
(702,319,cs),
(702,165,o),
(596,41,o),
(449,41,cs)
);
},
{
closed = 1;
nodes = (
(609,864,l),
(574,924,l),
(368,805,l),
(382,781,l)
);
}
);
width = 844;
}
);
unicode = 211;
},
{
glyphname = Obreve;
kernLeft = O;
kernRight = O;
lastChange = "2023-06-14 19:43:19 +0000";
layers = (
{
layerId = "6D97EE47-94AA-478E-ABFB-936E6C32B491";
shapes = (
{
closed = 1;
nodes = (
(625,-14,o),
(794,155,o),
(794,360,cs),
(794,562,o),
(627,721,o),
(424,721,cs),
(218,721,o),
(50,553,o),
(50,348,cs),
(50,146,o),
(215,-14,o),
(419,-14,cs)
);
},
{
closed = 1;
nodes = (
(276,41,o),
(141,215,o),
(141,390,cs),
(141,544,o),
(248,667,o),
(395,667,cs),
(566,667,o),
(702,496,o),
(702,319,cs),
(702,165,o),
(596,41,o),
(449,41,cs)
);
},
{
closed = 1;
nodes = (
(485,811,o),
(545,837,o),
(578,923,c),
(555,935,l),
(521,883,o),
(471,877,o),
(428,877,cs),
(383,877,o),
(336,883,o),
(301,935,c),
(278,923,l),
(310,837,o),
(372,809,o),
(428,810,cs)
);
}
);
width = 844;
}
);
unicode = 334;
},
{
glyphname = Ocircumflex;
kernLeft = O;
kernRight = O;
lastChange = "2023-06-14 19:43:19 +0000";
layers = (
{
layerId = "6D97EE47-94AA-478E-ABFB-936E6C32B491";
shapes = (
{
closed = 1;
nodes = (
(625,-14,o),
(794,155,o),
(794,360,cs),
(794,562,o),
(627,721,o),
(424,721,cs),
(218,721,o),
(50,553,o),
(50,348,cs),
(50,146,o),
(215,-14,o),
(419,-14,cs)
);
},
{
closed = 1;
nodes = (
(276,41,o),
(141,215,o),
(141,390,cs),
(141,544,o),
(248,667,o),
(395,667,cs),
(566,667,o),
(702,496,o),
(702,319,cs),
(702,165,o),
(596,41,o),
(449,41,cs)
);
},
{
closed = 1;
nodes = (
(428,877,l),
(582,789,l),
(601,812,l),
(440,948,l),
(416,948,l),
(255,812,l),
(274,789,l)
);
}
);
width = 844;
}
);
unicode = 212;
},
{
glyphname = Odieresis;
kernLeft = O;
kernRight = O;
lastChange = "2023-06-14 19:43:19 +0000";
layers = (
{
layerId = "6D97EE47-94AA-478E-ABFB-936E6C32B491";
shapes = (
{
closed = 1;
nodes = (
(625,-14,o),
(794,155,o),
(794,360,cs),
(794,562,o),
(627,721,o),
(424,721,cs),
(218,721,o),
(50,553,o),
(50,348,cs),
(50,146,o),
(215,-14,o),
(419,-14,cs)
);
},
{
closed = 1;
nodes = (
(276,41,o),
(141,215,o),
(141,390,cs),
(141,544,o),
(248,667,o),
(395,667,cs),
(566,667,o),
(702,496,o),
(702,319,cs),
(702,165,o),
(596,41,o),
(449,41,cs)
);
},
{
closed = 1;
nodes = (
(365,800,o),
(387,823,o),
(387,850,cs),
(387,877,o),
(365,898,o),
(337,898,cs),
(309,898,o),
(288,875,o),
(288,848,cs),
(288,821,o),
(309,800,o),
(337,800,cs)
);
},
{
closed = 1;
nodes = (
(546,800,o),
(568,823,o),
(568,850,cs),
(568,877,o),
(546,898,o),
(518,898,cs),
(490,898,o),
(469,875,o),
(469,848,cs),
(469,821,o),
(490,800,o),
(518,800,cs)
);
}
);
width = 844;
}
);
unicode = 214;
},
{
glyphname = Odotbelow;
kernLeft = O;
kernRight = O;
lastChange = "2023-06-14 19:43:19 +0000";
layers = (
{
layerId = "6D97EE47-94AA-478E-ABFB-936E6C32B491";
shapes = (
{
closed = 1;
nodes = (
(625,-14,o),
(794,155,o),
(794,360,cs),
(794,562,o),
(627,721,o),
(424,721,cs),
(218,721,o),
(50,553,o),
(50,348,cs),
(50,146,o),
(215,-14,o),
(419,-14,cs)
);
},
{
closed = 1;
nodes = (
(469,-181,o),
(493,-155,o),
(493,-125,cs),
(493,-94,o),
(469,-70,o),
(437,-70,cs),
(405,-70,o),
(382,-97,o),
(382,-126,cs),
(382,-157,o),
(405,-181,o),
(437,-181,cs)
);
},
{
closed = 1;
nodes = (
(276,41,o),
(141,215,o),
(141,390,cs),
(141,544,o),
(248,667,o),
(395,667,cs),
(566,667,o),
(702,496,o),
(702,319,cs),
(702,165,o),
(596,41,o),
(449,41,cs)
);
}
);
width = 844;
}
);
unicode = 7884;
},
{
glyphname = Ograve;
kernLeft = O;
kernRight = O;
lastChange = "2023-06-14 19:43:19 +0000";
layers = (
{
layerId = "6D97EE47-94AA-478E-ABFB-936E6C32B491";
shapes = (
{
closed = 1;
nodes = (
(625,-14,o),
(794,155,o),
(794,360,cs),
(794,562,o),
(627,721,o),
(424,721,cs),
(218,721,o),
(50,553,o),
(50,348,cs),
(50,146,o),
(215,-14,o),
(419,-14,cs)
);
},
{
closed = 1;
nodes = (
(276,41,o),
(141,215,o),
(141,390,cs),
(141,544,o),
(248,667,o),
(395,667,cs),
(566,667,o),
(702,496,o),
(702,319,cs),
(702,165,o),
(596,41,o),
(449,41,cs)
);
},
{
closed = 1;
nodes = (
(508,813,l),
(302,932,l),
(267,872,l),
(494,789,l)
);
}
);
width = 844;
}
);
unicode = 210;
},
{
glyphname = Ohungarumlaut;
kernLeft = O;
kernRight = O;
lastChange = "2023-06-14 19:43:19 +0000";
layers = (
{
layerId = "6D97EE47-94AA-478E-ABFB-936E6C32B491";
shapes = (
{
closed = 1;
nodes = (
(625,-14,o),
(794,155,o),
(794,360,cs),
(794,562,o),
(627,721,o),
(424,721,cs),
(218,721,o),
(50,553,o),
(50,348,cs),
(50,146,o),
(215,-14,o),
(419,-14,cs)
);
},
{
closed = 1;
nodes = (
(276,41,o),
(141,215,o),
(141,390,cs),
(141,544,o),
(248,667,o),
(395,667,cs),
(566,667,o),
(702,496,o),
(702,319,cs),
(702,165,o),
(596,41,o),
(449,41,cs)
);
},
{
closed = 1;
nodes = (
(494,926,l),
(437,970,l),
(330,801,l),
(354,781,l)
);
},
{
closed = 1;
nodes = (
(639,934,l),
(582,978,l),
(475,809,l),
(499,789,l)
);
}
);
width = 844;
}
);
unicode = 336;
},
{
glyphname = Omacron;
kernLeft = O;
kernRight = O;
lastChange = "2023-06-14 19:43:19 +0000";
layers = (
{
layerId = "6D97EE47-94AA-478E-ABFB-936E6C32B491";
shapes = (
{
closed = 1;
nodes = (
(625,-14,o),
(794,155,o),
(794,360,cs),
(794,562,o),
(627,721,o),
(424,721,cs),
(218,721,o),
(50,553,o),
(50,348,cs),
(50,146,o),
(215,-14,o),
(419,-14,cs)
);
},
{
closed = 1;
nodes = (
(276,41,o),
(141,215,o),
(141,390,cs),
(141,544,o),
(248,667,o),
(395,667,cs),
(566,667,o),
(702,496,o),
(702,319,cs),
(702,165,o),
(596,41,o),
(449,41,cs)
);
},
{
closed = 1;
nodes = (
(598,806,l),
(598,854,l),
(258,854,l),
(258,806,l)
);
}
);
width = 844;
}
);
unicode = 332;
},
{
glyphname = Oogonek;
kernLeft = O;
kernRight = O;
lastChange = "2023-06-14 19:43:19 +0000";
layers = (
{
layerId = "6D97EE47-94AA-478E-ABFB-936E6C32B491";
shapes = (
{
closed = 1;
nodes = (
(448,-240,o),
(489,-218,o),
(512,-190,c),
(501,-174,l),
(490,-183,o),
(471,-192,o),
(452,-192,cs),
(417,-192,o),
(397,-168,o),
(397,-135,cs),
(397,-99,o),
(424,-55,o),
(469,-11,c),
(652,14,o),
(794,172,o),
(794,360,cs),
(794,562,o),
(627,721,o),
(424,721,cs),
(218,721,o),
(50,553,o),
(50,348,cs),
(50,146,o),
(215,-14,o),
(419,-14,cs),
(423,-14,l),
(358,-65,o),
(328,-111,o),
(328,-162,cs),
(328,-217,o),
(367,-240,o),
(416,-240,cs)
);
},
{
closed = 1;
nodes = (
(276,41,o),
(141,215,o),
(141,390,cs),
(141,544,o),
(248,667,o),
(395,667,cs),
(566,667,o),
(702,496,o),
(702,319,cs),
(702,165,o),
(596,41,o),
(449,41,cs)
);
}
);
width = 844;
}
);
unicode = 490;
},
{
glyphname = Oslash;
kernLeft = O;
kernRight = O;
lastChange = "2023-06-14 19:43:19 +0000";
layers = (
{
layerId = "6D97EE47-94AA-478E-ABFB-936E6C32B491";
shapes = (
{
closed = 1;
nodes = (
(261,20,l),
(309,-2,o),
(363,-14,o),
(419,-14,cs),
(625,-14,o),
(794,155,o),
(794,360,cs),
(794,486,o),
(729,595,o),
(631,660,c),
(699,778,l),
(660,799,l),
(592,682,l),
(542,707,o),
(484,721,o),
(424,721,cs),
(218,721,o),
(50,553,o),
(50,348,cs),
(50,218,o),
(119,105,o),
(223,41,c),
(154,-78,l),
(192,-100,l)
);
},
{
closed = 1;
nodes = (
(189,181,o),
(141,285,o),
(141,390,cs),
(141,544,o),
(248,667,o),
(395,667,cs),
(453,667,o),
(507,647,o),
(553,614,c),
(265,114,l)
);
},
{
closed = 1;
nodes = (
(395,41,o),
(344,58,o),
(300,87,c),
(588,586,l),
(658,519,o),
(702,420,o),
(702,319,cs),
(702,165,o),
(596,41,o),
(449,41,cs)
);
}
);
width = 844;
}
);
metricLeft = O;
metricRight = O;
unicode = 216;
},
{
glyphname = Oslashacute;
kernLeft = O;
kernRight = O;
lastChange = "2023-06-14 19:43:19 +0000";
layers = (
{
layerId = "6D97EE47-94AA-478E-ABFB-936E6C32B491";
shapes = (
{
closed = 1;
nodes = (
(261,20,l),
(309,-2,o),
(363,-14,o),
(419,-14,cs),
(625,-14,o),
(794,155,o),
(794,360,cs),
(794,486,o),
(729,595,o),
(631,660,c),
(699,778,l),
(660,799,l),
(592,682,l),
(542,707,o),
(484,721,o),
(424,721,cs),
(218,721,o),
(50,553,o),
(50,348,cs),
(50,218,o),
(119,105,o),
(223,41,c),
(154,-78,l),
(192,-100,l)
);
},
{
closed = 1;
nodes = (
(189,181,o),
(141,285,o),
(141,390,cs),
(141,544,o),
(248,667,o),
(395,667,cs),
(453,667,o),
(507,647,o),
(553,614,c),
(265,114,l)
);
},
{
closed = 1;
nodes = (
(395,41,o),
(344,58,o),
(300,87,c),
(588,586,l),
(658,519,o),
(702,420,o),
(702,319,cs),
(702,165,o),
(596,41,o),
(449,41,cs)
);
},
{
closed = 1;
nodes = (
(609,864,l),
(574,924,l),
(368,805,l),
(382,781,l)
);
}
);
width = 844;
}
);
unicode = 510;
},
{
glyphname = Otilde;
kernLeft = O;
kernRight = O;
lastChange = "2023-06-14 19:43:19 +0000";
layers = (
{
layerId = "6D97EE47-94AA-478E-ABFB-936E6C32B491";
shapes = (
{
closed = 1;
nodes = (
(625,-14,o),
(794,155,o),
(794,360,cs),
(794,562,o),
(627,721,o),
(424,721,cs),
(218,721,o),
(50,553,o),
(50,348,cs),
(50,146,o),
(215,-14,o),
(419,-14,cs)
);
},
{
closed = 1;
nodes = (
(276,41,o),
(141,215,o),
(141,390,cs),
(141,544,o),
(248,667,o),
(395,667,cs),
(566,667,o),
(702,496,o),
(702,319,cs),
(702,165,o),
(596,41,o),
(449,41,cs)
);
},
{
closed = 1;
nodes = (
(311,822,o),
(325,847,o),
(364,850,cs),
(413,852,o),
(438,796,o),
(506,800,cs),
(557,803,o),
(596,867,o),
(613,903,c),
(592,914,l),
(574,885,o),
(560,861,o),
(521,859,cs),
(473,857,o),
(448,912,o),
(379,908,cs),
(328,906,o),
(289,842,o),
(272,805,c),
(293,794,l)
);
}
);
width = 844;
}
);
unicode = 213;
},
{
glyphname = OE;
kernLeft = O;
kernRight = E;
lastChange = "2023-06-14 19:43:19 +0000";
layers = (
{
layerId = "6D97EE47-94AA-478E-ABFB-936E6C32B491";
shapes = (
{
closed = 1;
nodes = (
(459,-14,o),
(490,-9,o),
(521,0,c),
(990,0,l),
(1023,151,l),
(991,159,l),
(988,146,o),
(964,85,o),
(938,51,c),
(675,51,l),
(675,342,l),
(881,342,l),
(891,314,o),
(893,280,o),
(893,263,c),
(925,263,l),
(925,463,l),
(893,463,l),
(893,447,o),
(891,419,o),
(884,393,c),
(675,393,l),
(675,656,l),
(918,656,l),
(931,626,o),
(936,591,o),
(938,569,c),
(970,571,l),
(965,707,l),
(526,707,l),
(493,716,o),
(459,721,o),
(424,721,cs),
(218,721,o),
(50,553,o),
(50,348,cs),
(50,149,o),
(213,-14,o),
(419,-14,cs)
);
},
{
closed = 1;
nodes = (
(276,41,o),
(141,216,o),
(141,390,cs),
(141,548,o),
(250,669,o),
(406,669,cs),
(471,669,o),
(536,646,o),
(588,606,c),
(588,84,l),
(547,57,o),
(498,41,o),
(449,41,cs)
);
}
);
width = 1048;
}
);
metricLeft = O;
metricRight = E;
unicode = 338;
},
{
glyphname = P;
kernLeft = H;
kernRight = P;
lastChange = "2023-06-14 19:43:19 +0000";
layers = (
{
layerId = "6D97EE47-94AA-478E-ABFB-936E6C32B491";
shapes = (
{
closed = 1;
nodes = (
(322,0,l),
(322,30,l),
(301,30,o),
(258,33,o),
(225,46,c),
(225,668,l),
(359,689,o),
(487,607,o),
(487,470,cs),
(487,381,o),
(423,309,o),
(282,300,c),
(287,268,l),
(474,261,o),
(580,375,o),
(580,491,cs),
(580,605,o),
(473,721,o),
(311,721,cs),
(227,721,o),
(138,710,o),
(50,699,c),
(53,669,l),
(71,670,o),
(108,672,o),
(138,663,c),
(138,46,l),
(108,33,o),
(69,30,o),
(50,30,c),
(50,0,l)
);
}
);
width = 630;
}
);
metricLeft = H;
metricRight = O;
unicode = 80;
},
{
glyphname = Thorn;
kernLeft = H;
kernRight = Thorn;
lastChange = "2023-06-14 19:43:19 +0000";
layers = (
{
layerId = "6D97EE47-94AA-478E-ABFB-936E6C32B491";
shapes = (
{
closed = 1;
nodes = (
(313,0,l),
(313,30,l),
(294,30,o),
(255,33,o),
(225,46,c),
(225,512,l),
(237,514,o),
(249,515,o),
(262,515,cs),
(353,515,o),
(446,456,o),
(446,339,cs),
(446,260,o),
(391,200,o),
(268,194,c),
(272,163,l),
(443,155,o),
(534,258,o),
(534,358,cs),
(534,477,o),
(422,561,o),
(284,561,cs),
(265,561,o),
(246,559,o),
(225,555,c),
(225,661,l),
(255,674,o),
(294,677,o),
(313,677,c),
(313,707,l),
(50,707,l),
(50,677,l),
(69,677,o),
(108,674,o),
(138,661,c),
(138,46,l),
(108,33,o),
(69,30,o),
(50,30,c),
(50,0,l)
);
}
);
width = 584;
}
);
metricLeft = H;
metricRight = P;
unicode = 222;
},
{
glyphname = Q;
kernLeft = O;
kernRight = O;
lastChange = "2023-06-14 19:43:19 +0000";
layers = (
{
layerId = "6D97EE47-94AA-478E-ABFB-936E6C32B491";
shapes = (
{
closed = 1;
nodes = (
(853,-168,l),
(743,-158,o),
(631,-90,o),
(543,7,c),
(689,58,o),
(795,197,o),
(795,359,cs),
(795,561,o),
(627,721,o),
(424,721,cs),
(219,721,o),
(50,553,o),
(50,348,cs),
(50,149,o),
(213,-14,o),
(419,-14,cs),
(428,-14,o),
(436,-14,o),
(445,-13,c),
(561,-136,o),
(685,-190,o),
(850,-200,c)
);
},
{
closed = 1;
nodes = (
(276,41,o),
(141,216,o),
(141,390,cs),
(141,543,o),
(247,667,o),
(395,667,cs),
(566,667,o),
(702,496,o),
(702,319,cs),
(702,165,o),
(597,41,o),
(449,41,cs)
);
}
);
width = 833;
}
);
metricLeft = O;
unicode = 81;
},
{
glyphname = R;
kernLeft = H;
kernRight = R;
lastChange = "2023-06-14 19:43:19 +0000";
layers = (
{
guides = (
{
angle = -84;
pos = (68,530);
},
{
angle = 73;
pos = (679,-111);
}
);
layerId = "6D97EE47-94AA-478E-ABFB-936E6C32B491";
shapes = (
{
closed = 1;
nodes = (
(713,0,l),
(626,33,o),
(590,65,o),
(541,128,cs),
(488,195,o),
(427,289,o),
(391,354,c),
(504,402,o),
(544,482,o),
(544,548,cs),
(544,680,o),
(439,721,o),
(305,721,cs),
(230,721,o),
(138,710,o),
(50,699,c),
(53,669,l),
(71,670,o),
(108,672,o),
(138,663,c),
(138,46,l),
(108,33,o),
(69,30,o),
(50,30,c),
(50,0,l),
(317,0,l),
(317,30,l),
(297,30,o),
(256,33,o),
(225,46,c),
(225,317,l),
(256,320,o),
(284,324,o),
(309,330,c),
(347,265,o),
(424,122,o),
(466,73,cs),
(519,12,o),
(566,-20,o),
(704,-29,c)
);
},
{
closed = 1;
nodes = (
(225,668,l),
(359,685,o),
(457,642,o),
(457,524,cs),
(457,444,o),
(378,359,o),
(225,353,c)
);
}
);
width = 707;
}
);
metricLeft = H;
unicode = 82;
},
{
glyphname = Racute;
kernLeft = H;
kernRight = R;
lastChange = "2023-06-14 19:43:19 +0000";
layers = (
{
layerId = "6D97EE47-94AA-478E-ABFB-936E6C32B491";
shapes = (
{
closed = 1;
nodes = (
(713,0,l),
(626,33,o),
(590,65,o),
(541,128,cs),
(488,195,o),
(427,289,o),
(391,354,c),
(504,402,o),
(544,482,o),
(544,548,cs),
(544,680,o),
(439,721,o),
(305,721,cs),
(230,721,o),
(138,710,o),
(50,699,c),
(53,669,l),
(71,670,o),
(108,672,o),
(138,663,c),
(138,46,l),
(108,33,o),
(69,30,o),
(50,30,c),
(50,0,l),
(317,0,l),
(317,30,l),
(297,30,o),
(256,33,o),
(225,46,c),
(225,317,l),
(256,320,o),
(284,324,o),
(309,330,c),
(347,265,o),
(424,122,o),
(466,73,cs),
(519,12,o),
(566,-20,o),
(704,-29,c)
);
},
{
closed = 1;
nodes = (
(225,668,l),
(359,685,o),
(457,642,o),
(457,524,cs),
(457,444,o),
(378,359,o),
(225,353,c)
);
},
{
closed = 1;
nodes = (
(468,864,l),
(433,924,l),
(227,805,l),
(241,781,l)
);
}
);
width = 707;
}
);
unicode = 340;
},
{
glyphname = Rcaron;
kernLeft = H;
kernRight = R;
lastChange = "2023-06-14 19:43:19 +0000";
layers = (
{
layerId = "6D97EE47-94AA-478E-ABFB-936E6C32B491";
shapes = (
{
closed = 1;
nodes = (
(713,0,l),
(626,33,o),
(590,65,o),
(541,128,cs),
(488,195,o),
(427,289,o),
(391,354,c),
(504,402,o),
(544,482,o),
(544,548,cs),
(544,680,o),
(439,721,o),
(305,721,cs),
(230,721,o),
(138,710,o),
(50,699,c),
(53,669,l),
(71,670,o),
(108,672,o),
(138,663,c),
(138,46,l),
(108,33,o),
(69,30,o),
(50,30,c),
(50,0,l),
(317,0,l),
(317,30,l),
(297,30,o),
(256,33,o),
(225,46,c),
(225,317,l),
(256,320,o),
(284,324,o),
(309,330,c),
(347,265,o),
(424,122,o),
(466,73,cs),
(519,12,o),
(566,-20,o),
(704,-29,c)
);
},
{
closed = 1;
nodes = (
(225,668,l),
(359,685,o),
(457,642,o),
(457,524,cs),
(457,444,o),
(378,359,o),
(225,353,c)
);
},
{
closed = 1;
nodes = (
(302,796,l),
(463,932,l),
(444,955,l),
(290,867,l),
(136,955,l),
(117,932,l),
(278,796,l)
);
}
);
width = 707;
}
);
unicode = 344;
},
{
glyphname = Rcommaaccent;
kernLeft = H;
kernRight = R;
lastChange = "2023-06-14 19:43:19 +0000";
layers = (
{
layerId = "6D97EE47-94AA-478E-ABFB-936E6C32B491";
shapes = (
{
closed = 1;
nodes = (
(713,0,l),
(626,33,o),
(590,65,o),
(541,128,cs),
(488,195,o),
(427,289,o),
(391,354,c),
(504,402,o),
(544,482,o),
(544,548,cs),
(544,680,o),
(439,721,o),
(305,721,cs),
(230,721,o),
(138,710,o),
(50,699,c),
(53,669,l),
(71,670,o),
(108,672,o),
(138,663,c),
(138,46,l),
(108,33,o),
(69,30,o),
(50,30,c),
(50,0,l),
(317,0,l),
(317,30,l),
(297,30,o),
(256,33,o),
(225,46,c),
(225,317,l),
(256,320,o),
(284,324,o),
(309,330,c),
(347,265,o),
(424,122,o),
(466,73,cs),
(519,12,o),
(566,-20,o),
(704,-29,c)
);
},
{
closed = 1;
nodes = (
(391,-273,o),
(420,-185,o),
(414,-128,cs),
(411,-94,o),
(390,-70,o),
(359,-70,cs),
(327,-70,o),
(304,-96,o),
(304,-126,cs),
(304,-157,o),
(327,-180,o),
(359,-180,cs),
(360,-180,l),
(360,-228,o),
(337,-269,o),
(298,-298,c),
(312,-317,l)
);
},
{
closed = 1;
nodes = (
(225,668,l),
(359,685,o),
(457,642,o),
(457,524,cs),
(457,444,o),
(378,359,o),
(225,353,c)
);
}
);
width = 707;
}
);
unicode = 342;
},
{
glyphname = S;
kernLeft = S;
kernRight = S;
lastChange = "2023-06-14 19:43:19 +0000";
layers = (
{
layerId = "6D97EE47-94AA-478E-ABFB-936E6C32B491";
shapes = (
{
closed = 1;
nodes = (
(401,-14,o),
(503,50,o),
(503,168,cs),
(503,400,o),
(179,402,o),
(179,560,cs),
(179,626,o),
(244,675,o),
(321,675,cs),
(405,675,o),
(445,620,o),
(456,536,c),
(489,540,l),
(467,702,l),
(441,707,o),
(389,721,o),
(328,721,cs),
(197,721,o),
(91,660,o),
(91,537,cs),
(91,334,o),
(412,316,o),
(412,155,cs),
(412,79,o),
(350,33,o),
(262,33,cs),
(154,33,o),
(105,106,o),
(79,221,c),
(46,215,l),
(77,23,l),
(83,15,o),
(178,-14,o),
(272,-14,cs)
);
}
);
width = 554;
}
);
unicode = 83;
},
{
glyphname = Sacute;
kernLeft = S;
kernRight = S;
lastChange = "2023-06-14 19:43:19 +0000";
layers = (
{
layerId = "6D97EE47-94AA-478E-ABFB-936E6C32B491";
shapes = (
{
closed = 1;
nodes = (
(401,-14,o),
(503,50,o),
(503,168,cs),
(503,400,o),
(179,402,o),
(179,560,cs),
(179,626,o),
(244,675,o),
(321,675,cs),
(405,675,o),
(445,620,o),
(456,536,c),
(489,540,l),
(467,702,l),
(441,707,o),
(389,721,o),
(328,721,cs),
(197,721,o),
(91,660,o),
(91,537,cs),
(91,334,o),
(412,316,o),
(412,155,cs),
(412,79,o),
(350,33,o),
(262,33,cs),
(154,33,o),
(105,106,o),
(79,221,c),
(46,215,l),
(77,23,l),
(83,15,o),
(178,-14,o),
(272,-14,cs)
);
},
{
closed = 1;
nodes = (
(473,864,l),
(438,924,l),
(232,805,l),
(246,781,l)
);
}
);
width = 554;
}
);
unicode = 346;
},
{
glyphname = Scaron;
kernLeft = S;
kernRight = S;
lastChange = "2023-06-14 19:43:19 +0000";
layers = (
{
layerId = "6D97EE47-94AA-478E-ABFB-936E6C32B491";
shapes = (
{
closed = 1;
nodes = (
(401,-14,o),
(503,50,o),
(503,168,cs),
(503,400,o),
(179,402,o),
(179,560,cs),
(179,626,o),
(244,675,o),
(321,675,cs),
(405,675,o),
(445,620,o),
(456,536,c),
(489,540,l),
(467,702,l),
(441,707,o),
(389,721,o),
(328,721,cs),
(197,721,o),
(91,660,o),
(91,537,cs),
(91,334,o),
(412,316,o),
(412,155,cs),
(412,79,o),
(350,33,o),
(262,33,cs),
(154,33,o),
(105,106,o),
(79,221,c),
(46,215,l),
(77,23,l),
(83,15,o),
(178,-14,o),
(272,-14,cs)
);
},
{
closed = 1;
nodes = (
(307,796,l),
(468,932,l),
(449,955,l),
(295,867,l),
(141,955,l),
(122,932,l),
(283,796,l)
);
}
);
width = 554;
}
);
unicode = 352;
},
{
glyphname = Scedilla;
kernLeft = S;
kernRight = S;
lastChange = "2023-06-14 19:43:19 +0000";
layers = (
{
layerId = "6D97EE47-94AA-478E-ABFB-936E6C32B491";
shapes = (
{
closed = 1;
nodes = (
(332,-240,o),
(371,-206,o),
(371,-151,cs),
(371,-97,o),
(329,-66,o),
(292,-46,c),
(310,-12,l),
(420,-1,o),
(503,62,o),
(503,168,cs),
(503,400,o),
(179,402,o),
(179,560,cs),
(179,626,o),
(244,675,o),
(321,675,cs),
(405,675,o),
(445,620,o),
(456,536,c),
(489,540,l),
(467,702,l),
(441,707,o),
(389,721,o),
(328,721,cs),
(197,721,o),
(91,660,o),
(91,537,cs),
(91,334,o),
(412,316,o),
(412,155,cs),
(412,79,o),
(350,33,o),
(262,33,cs),
(154,33,o),
(105,106,o),
(79,221,c),
(46,215,l),
(77,23,l),
(83,15,o),
(173,-13,o),
(265,-14,c),
(230,-83,l),
(255,-88,o),
(309,-117,o),
(309,-162,cs),
(309,-187,o),
(292,-210,o),
(264,-210,cs),
(244,-210,o),
(220,-198,o),
(204,-181,c),
(188,-197,l),
(206,-222,o),
(239,-240,o),
(276,-240,cs)
);
}
);
width = 554;
}
);
unicode = 350;
},
{
glyphname = Scircumflex;
kernLeft = S;
kernRight = S;
lastChange = "2023-06-14 19:43:19 +0000";
layers = (
{
layerId = "6D97EE47-94AA-478E-ABFB-936E6C32B491";
shapes = (
{
closed = 1;
nodes = (
(401,-14,o),
(503,50,o),
(503,168,cs),
(503,400,o),
(179,402,o),
(179,560,cs),
(179,626,o),
(244,675,o),
(321,675,cs),
(405,675,o),
(445,620,o),
(456,536,c),
(489,540,l),
(467,702,l),
(441,707,o),
(389,721,o),
(328,721,cs),
(197,721,o),
(91,660,o),
(91,537,cs),
(91,334,o),
(412,316,o),
(412,155,cs),
(412,79,o),
(350,33,o),
(262,33,cs),
(154,33,o),
(105,106,o),
(79,221,c),
(46,215,l),
(77,23,l),
(83,15,o),
(178,-14,o),
(272,-14,cs)
);
},
{
closed = 1;
nodes = (
(292,877,l),
(446,789,l),
(465,812,l),
(304,948,l),
(280,948,l),
(119,812,l),
(138,789,l)
);
}
);
width = 554;
}
);
unicode = 348;
},
{
glyphname = Scommaaccent;
kernLeft = S;
kernRight = S;
lastChange = "2023-06-14 19:43:19 +0000";
layers = (
{
layerId = "6D97EE47-94AA-478E-ABFB-936E6C32B491";
shapes = (
{
closed = 1;
nodes = (
(401,-14,o),
(503,50,o),
(503,168,cs),
(503,400,o),
(179,402,o),
(179,560,cs),
(179,626,o),
(244,675,o),
(321,675,cs),
(405,675,o),
(445,620,o),
(456,536,c),
(489,540,l),
(467,702,l),
(441,707,o),
(389,721,o),
(328,721,cs),
(197,721,o),
(91,660,o),
(91,537,cs),
(91,334,o),
(412,316,o),
(412,155,cs),
(412,79,o),
(350,33,o),
(262,33,cs),
(154,33,o),
(105,106,o),
(79,221,c),
(46,215,l),
(77,23,l),
(83,15,o),
(178,-14,o),
(272,-14,cs)
);
},
{
closed = 1;
nodes = (
(317,-273,o),
(346,-185,o),
(340,-128,cs),
(337,-94,o),
(316,-70,o),
(285,-70,cs),
(253,-70,o),
(230,-96,o),
(230,-126,cs),
(230,-157,o),
(253,-180,o),
(285,-180,cs),
(286,-180,l),
(286,-228,o),
(263,-269,o),
(224,-298,c),
(238,-317,l)
);
}
);
width = 554;
}
);
unicode = 536;
},
{
glyphname = Germandbls;
kernLeft = H;
kernRight = B;
lastChange = "2023-06-14 19:43:19 +0000";
layers = (
{
layerId = "6D97EE47-94AA-478E-ABFB-936E6C32B491";
shapes = (
{
closed = 1;
nodes = (
(638,-14,o),
(713,67,o),
(713,170,cs),
(713,283,o),
(610,374,o),
(498,456,c),
(604,625,l),
(533,692,o),
(465,721,o),
(374,721,cs),
(314,721,o),
(246,698,o),
(199,653,cs),
(120,577,o),
(116,472,o),
(116,379,cs),
(116,46,l),
(86,33,o),
(47,30,o),
(28,30,c),
(28,0,l),
(283,0,l),
(283,30,l),
(266,30,o),
(231,33,o),
(204,46,c),
(204,418,ls),
(204,561,o),
(219,671,o),
(350,671,cs),
(425,671,o),
(480,627,o),
(524,574,c),
(415,397,l),
(536,305,o),
(638,232,o),
(638,141,cs),
(638,80,o),
(588,32,o),
(520,32,cs),
(438,32,o),
(381,110,o),
(359,219,c),
(325,212,l),
(355,24,l),
(384,6,o),
(458,-14,o),
(504,-14,cs)
);
}
);
width = 738;
}
);
metricRight = B;
unicode = 7838;
},
{
glyphname = T;
kernLeft = T;
kernRight = T;
lastChange = "2023-06-14 19:43:19 +0000";
layers = (
{
layerId = "6D97EE47-94AA-478E-ABFB-936E6C32B491";
shapes = (
{
closed = 1;
nodes = (
(450,0,l),
(450,30,l),
(431,30,o),
(392,33,o),
(362,46,c),
(362,656,l),
(567,656,l),
(573,610,o),
(572,570,o),
(571,531,c),
(602,528,l),
(628,707,l),
(10,707,l),
(10,531,l),
(42,531,l),
(48,571,o),
(54,612,o),
(66,656,c),
(275,656,l),
(275,46,l),
(245,33,o),
(206,30,o),
(187,30,c),
(187,0,l)
);
}
);
width = 638;
}
);
unicode = 84;
},
{
glyphname = Tbar;
kernLeft = T;
kernRight = T;
lastChange = "2023-06-14 19:43:19 +0000";
layers = (
{
layerId = "6D97EE47-94AA-478E-ABFB-936E6C32B491";
shapes = (
{
closed = 1;
nodes = (
(450,0,l),
(450,30,l),
(431,30,o),
(392,33,o),
(362,46,c),
(362,339,l),
(494,339,l),
(494,381,l),
(362,381,l),
(362,656,l),
(567,656,l),
(573,610,o),
(572,570,o),
(571,531,c),
(602,528,l),
(628,707,l),
(10,707,l),
(10,531,l),
(42,531,l),
(48,571,o),
(54,612,o),
(66,656,c),
(275,656,l),
(275,381,l),
(144,381,l),
(144,339,l),
(275,339,l),
(275,46,l),
(245,33,o),
(206,30,o),
(187,30,c),
(187,0,l)
);
}
);
width = 638;
}
);
metricLeft = T;
metricRight = T;
unicode = 358;
},
{
glyphname = Tcaron;
kernLeft = T;
kernRight = T;
lastChange = "2023-06-14 19:43:19 +0000";
layers = (
{
layerId = "6D97EE47-94AA-478E-ABFB-936E6C32B491";
shapes = (
{
closed = 1;
nodes = (
(450,0,l),
(450,30,l),
(431,30,o),
(392,33,o),
(362,46,c),
(362,656,l),
(567,656,l),
(573,610,o),
(572,570,o),
(571,531,c),
(602,528,l),
(628,707,l),
(10,707,l),
(10,531,l),
(42,531,l),
(48,571,o),
(54,612,o),
(66,656,c),
(275,656,l),
(275,46,l),
(245,33,o),
(206,30,o),
(187,30,c),
(187,0,l)
);
},
{
closed = 1;
nodes = (
(334,796,l),
(495,932,l),
(476,955,l),
(322,867,l),
(168,955,l),
(149,932,l),
(310,796,l)
);
}
);
width = 638;
}
);
unicode = 356;
},
{
glyphname = Tcedilla;
kernLeft = T;
kernRight = T;
lastChange = "2023-06-14 19:43:19 +0000";
layers = (
{
layerId = "6D97EE47-94AA-478E-ABFB-936E6C32B491";
shapes = (
{
closed = 1;
nodes = (
(369,-240,o),
(408,-206,o),
(408,-151,cs),
(408,-97,o),
(366,-66,o),
(329,-46,c),
(353,0,l),
(450,0,l),
(450,30,l),
(431,30,o),
(392,33,o),
(362,46,c),
(362,656,l),
(567,656,l),
(573,610,o),
(572,570,o),
(571,531,c),
(602,528,l),
(628,707,l),
(10,707,l),
(10,531,l),
(42,531,l),
(48,571,o),
(54,612,o),
(66,656,c),
(275,656,l),
(275,46,l),
(245,33,o),
(206,30,o),
(187,30,c),
(187,0,l),
(309,0,l),
(267,-83,l),
(292,-88,o),
(346,-117,o),
(346,-162,cs),
(346,-187,o),
(329,-210,o),
(301,-210,cs),
(281,-210,o),
(257,-198,o),
(241,-181,c),
(225,-197,l),
(243,-222,o),
(276,-240,o),
(313,-240,cs)
);
}
);
width = 638;
}
);
unicode = 354;
},
{
glyphname = Tcommaaccent;
kernLeft = T;
kernRight = T;
lastChange = "2023-06-14 19:43:19 +0000";
layers = (
{
layerId = "6D97EE47-94AA-478E-ABFB-936E6C32B491";
shapes = (
{
closed = 1;
nodes = (
(450,0,l),
(450,30,l),
(431,30,o),
(392,33,o),
(362,46,c),
(362,656,l),
(567,656,l),
(573,610,o),
(572,570,o),
(571,531,c),
(602,528,l),
(628,707,l),
(10,707,l),
(10,531,l),
(42,531,l),
(48,571,o),
(54,612,o),
(66,656,c),
(275,656,l),
(275,46,l),
(245,33,o),
(206,30,o),
(187,30,c),
(187,0,l)
);
},
{
closed = 1;
nodes = (
(354,-273,o),
(383,-185,o),
(377,-128,cs),
(374,-94,o),
(353,-70,o),
(322,-70,cs),
(290,-70,o),
(267,-96,o),
(267,-126,cs),
(267,-157,o),
(290,-180,o),
(322,-180,cs),
(323,-180,l),
(323,-228,o),
(300,-269,o),
(261,-298,c),
(275,-317,l)
);
}
);
width = 638;
}
);
unicode = 538;
},
{
glyphname = Tdotbelow;
kernLeft = T;
kernRight = T;
lastChange = "2023-06-14 19:43:19 +0000";
layers = (
{
layerId = "6D97EE47-94AA-478E-ABFB-936E6C32B491";
shapes = (
{
closed = 1;
nodes = (
(450,0,l),
(450,30,l),
(431,30,o),
(392,33,o),
(362,46,c),
(362,656,l),
(567,656,l),
(573,610,o),
(572,570,o),
(571,531,c),
(602,528,l),
(628,707,l),
(10,707,l),
(10,531,l),
(42,531,l),
(48,571,o),
(54,612,o),
(66,656,c),
(275,656,l),
(275,46,l),
(245,33,o),
(206,30,o),
(187,30,c),
(187,0,l)
);
},
{
closed = 1;
nodes = (
(350,-181,o),
(374,-155,o),
(374,-125,cs),
(374,-94,o),
(350,-70,o),
(318,-70,cs),
(286,-70,o),
(263,-97,o),
(263,-126,cs),
(263,-157,o),
(286,-181,o),
(318,-181,cs)
);
}
);
width = 638;
}
);
unicode = 7788;
},
{
glyphname = U;
kernLeft = U;
kernRight = U;
lastChange = "2023-06-14 19:43:19 +0000";
layers = (
{
layerId = "6D97EE47-94AA-478E-ABFB-936E6C32B491";
shapes = (
{
closed = 1;
nodes = (
(506,-14,o),
(647,15,o),
(688,139,cs),
(708,199,o),
(706,306,o),
(706,393,cs),
(706,661,l),
(736,674,o),
(775,677,o),
(794,677,c),
(794,707,l),
(562,707,l),
(562,677,l),
(581,677,o),
(620,674,o),
(650,661,c),
(650,400,ls),
(650,305,o),
(653,218,o),
(637,162,cs),
(611,76,o),
(528,38,o),
(433,38,cs),
(335,38,o),
(263,97,o),
(240,166,cs),
(223,220,o),
(225,338,o),
(225,389,cs),
(225,661,l),
(255,674,o),
(294,677,o),
(313,677,c),
(313,707,l),
(50,707,l),
(50,677,l),
(69,677,o),
(108,674,o),
(138,661,c),
(138,384,ls),
(138,281,o),
(139,192,o),
(163,134,cs),
(213,18,o),
(340,-14,o),
(423,-14,cs)
);
}
);
width = 834;
}
);
metricLeft = H;
metricRight = "=H-10";
unicode = 85;
},
{
glyphname = Uacute;
kernLeft = U;
kernRight = U;
lastChange = "2023-06-14 19:43:19 +0000";
layers = (
{
layerId = "6D97EE47-94AA-478E-ABFB-936E6C32B491";
shapes = (
{
closed = 1;
nodes = (
(506,-14,o),
(647,15,o),
(688,139,cs),
(708,199,o),
(706,306,o),
(706,393,cs),
(706,661,l),
(736,674,o),
(775,677,o),
(794,677,c),
(794,707,l),
(562,707,l),
(562,677,l),
(581,677,o),
(620,674,o),
(650,661,c),
(650,400,ls),
(650,305,o),
(653,218,o),
(637,162,cs),
(611,76,o),
(528,38,o),
(433,38,cs),
(335,38,o),
(263,97,o),
(240,166,cs),
(223,220,o),
(225,338,o),
(225,389,cs),
(225,661,l),
(255,674,o),
(294,677,o),
(313,677,c),
(313,707,l),
(50,707,l),
(50,677,l),
(69,677,o),
(108,674,o),
(138,661,c),
(138,384,ls),
(138,281,o),
(139,192,o),
(163,134,cs),
(213,18,o),
(340,-14,o),
(423,-14,cs)
);
},
{
closed = 1;
nodes = (
(617,864,l),
(582,924,l),
(376,805,l),
(390,781,l)
);
}
);
width = 834;
}
);
unicode = 218;
},
{
glyphname = Ubreve;
kernLeft = U;
kernRight = U;
lastChange = "2023-06-14 19:43:19 +0000";
layers = (
{
layerId = "6D97EE47-94AA-478E-ABFB-936E6C32B491";
shapes = (
{
closed = 1;
nodes = (
(506,-14,o),
(647,15,o),
(688,139,cs),
(708,199,o),
(706,306,o),
(706,393,cs),
(706,661,l),
(736,674,o),
(775,677,o),
(794,677,c),
(794,707,l),
(562,707,l),
(562,677,l),
(581,677,o),
(620,674,o),
(650,661,c),
(650,400,ls),
(650,305,o),
(653,218,o),
(637,162,cs),
(611,76,o),
(528,38,o),
(433,38,cs),
(335,38,o),
(263,97,o),
(240,166,cs),
(223,220,o),
(225,338,o),
(225,389,cs),
(225,661,l),
(255,674,o),
(294,677,o),
(313,677,c),
(313,707,l),
(50,707,l),
(50,677,l),
(69,677,o),
(108,674,o),
(138,661,c),
(138,384,ls),
(138,281,o),
(139,192,o),
(163,134,cs),
(213,18,o),
(340,-14,o),
(423,-14,cs)
);
},
{
closed = 1;
nodes = (
(493,811,o),
(553,837,o),
(586,923,c),
(563,935,l),
(529,883,o),
(479,877,o),
(436,877,cs),
(391,877,o),
(344,883,o),
(309,935,c),
(286,923,l),
(318,837,o),
(380,809,o),
(436,810,cs)
);
}
);
width = 834;
}
);
unicode = 364;
},
{
glyphname = Ucircumflex;
kernLeft = U;
kernRight = U;
lastChange = "2023-06-14 19:43:19 +0000";
layers = (
{
layerId = "6D97EE47-94AA-478E-ABFB-936E6C32B491";
shapes = (
{
closed = 1;
nodes = (
(506,-14,o),
(647,15,o),
(688,139,cs),
(708,199,o),
(706,306,o),
(706,393,cs),
(706,661,l),
(736,674,o),
(775,677,o),
(794,677,c),
(794,707,l),
(562,707,l),
(562,677,l),
(581,677,o),
(620,674,o),
(650,661,c),
(650,400,ls),
(650,305,o),
(653,218,o),
(637,162,cs),
(611,76,o),
(528,38,o),
(433,38,cs),
(335,38,o),
(263,97,o),
(240,166,cs),
(223,220,o),
(225,338,o),
(225,389,cs),
(225,661,l),
(255,674,o),
(294,677,o),
(313,677,c),
(313,707,l),
(50,707,l),
(50,677,l),
(69,677,o),
(108,674,o),
(138,661,c),
(138,384,ls),
(138,281,o),
(139,192,o),
(163,134,cs),
(213,18,o),
(340,-14,o),
(423,-14,cs)
);
},
{
closed = 1;
nodes = (
(436,877,l),
(590,789,l),
(609,812,l),
(448,948,l),
(424,948,l),
(263,812,l),
(282,789,l)
);
}
);
width = 834;
}
);
unicode = 219;
},
{
glyphname = Udieresis;
kernLeft = U;
kernRight = U;
lastChange = "2023-06-14 19:43:19 +0000";
layers = (
{
layerId = "6D97EE47-94AA-478E-ABFB-936E6C32B491";
shapes = (
{
closed = 1;
nodes = (
(506,-14,o),
(647,15,o),
(688,139,cs),
(708,199,o),
(706,306,o),
(706,393,cs),
(706,661,l),
(736,674,o),
(775,677,o),
(794,677,c),
(794,707,l),
(562,707,l),
(562,677,l),
(581,677,o),
(620,674,o),
(650,661,c),
(650,400,ls),
(650,305,o),
(653,218,o),
(637,162,cs),
(611,76,o),
(528,38,o),
(433,38,cs),
(335,38,o),
(263,97,o),
(240,166,cs),
(223,220,o),
(225,338,o),
(225,389,cs),
(225,661,l),
(255,674,o),
(294,677,o),
(313,677,c),
(313,707,l),
(50,707,l),
(50,677,l),
(69,677,o),
(108,674,o),
(138,661,c),
(138,384,ls),
(138,281,o),
(139,192,o),
(163,134,cs),
(213,18,o),
(340,-14,o),
(423,-14,cs)
);
},
{
closed = 1;
nodes = (
(373,800,o),
(395,823,o),
(395,850,cs),
(395,877,o),
(373,898,o),
(345,898,cs),
(317,898,o),
(296,875,o),
(296,848,cs),
(296,821,o),
(317,800,o),
(345,800,cs)
);
},
{
closed = 1;
nodes = (
(554,800,o),
(576,823,o),
(576,850,cs),
(576,877,o),
(554,898,o),
(526,898,cs),
(498,898,o),
(477,875,o),
(477,848,cs),
(477,821,o),
(498,800,o),
(526,800,cs)
);
}
);
width = 834;
}
);
unicode = 220;
},
{
glyphname = Udotbelow;
kernLeft = U;
kernRight = U;
lastChange = "2023-06-14 19:43:19 +0000";
layers = (
{
layerId = "6D97EE47-94AA-478E-ABFB-936E6C32B491";
shapes = (
{
closed = 1;
nodes = (
(506,-14,o),
(647,15,o),
(688,139,cs),
(708,199,o),
(706,306,o),
(706,393,cs),
(706,661,l),
(736,674,o),
(775,677,o),
(794,677,c),
(794,707,l),
(562,707,l),
(562,677,l),
(581,677,o),
(620,674,o),
(650,661,c),
(650,400,ls),
(650,305,o),
(653,218,o),
(637,162,cs),
(611,76,o),
(528,38,o),
(433,38,cs),
(335,38,o),
(263,97,o),
(240,166,cs),
(223,220,o),
(225,338,o),
(225,389,cs),
(225,661,l),
(255,674,o),
(294,677,o),
(313,677,c),
(313,707,l),
(50,707,l),
(50,677,l),
(69,677,o),
(108,674,o),
(138,661,c),
(138,384,ls),
(138,281,o),
(139,192,o),
(163,134,cs),
(213,18,o),
(340,-14,o),
(423,-14,cs)
);
},
{
closed = 1;
nodes = (
(468,-181,o),
(492,-155,o),
(492,-125,cs),
(492,-94,o),
(468,-70,o),
(436,-70,cs),
(404,-70,o),
(381,-97,o),
(381,-126,cs),
(381,-157,o),
(404,-181,o),
(436,-181,cs)
);
}
);
width = 834;
}
);
unicode = 7908;
},
{
glyphname = Ugrave;
kernLeft = U;
kernRight = U;
lastChange = "2023-06-14 19:43:19 +0000";
layers = (
{
layerId = "6D97EE47-94AA-478E-ABFB-936E6C32B491";
shapes = (
{
closed = 1;
nodes = (
(506,-14,o),
(647,15,o),
(688,139,cs),
(708,199,o),
(706,306,o),
(706,393,cs),
(706,661,l),
(736,674,o),
(775,677,o),
(794,677,c),
(794,707,l),
(562,707,l),
(562,677,l),
(581,677,o),
(620,674,o),
(650,661,c),
(650,400,ls),
(650,305,o),
(653,218,o),
(637,162,cs),
(611,76,o),
(528,38,o),
(433,38,cs),
(335,38,o),
(263,97,o),
(240,166,cs),
(223,220,o),
(225,338,o),
(225,389,cs),
(225,661,l),
(255,674,o),
(294,677,o),
(313,677,c),
(313,707,l),
(50,707,l),
(50,677,l),
(69,677,o),
(108,674,o),
(138,661,c),
(138,384,ls),
(138,281,o),
(139,192,o),
(163,134,cs),
(213,18,o),
(340,-14,o),
(423,-14,cs)
);
},
{
closed = 1;
nodes = (
(516,813,l),
(310,932,l),
(275,872,l),
(502,789,l)
);
}
);
width = 834;
}
);
unicode = 217;
},
{
glyphname = Uhungarumlaut;
kernLeft = U;
kernRight = U;
lastChange = "2023-06-14 19:43:19 +0000";
layers = (
{
layerId = "6D97EE47-94AA-478E-ABFB-936E6C32B491";
shapes = (
{
closed = 1;
nodes = (
(506,-14,o),
(647,15,o),
(688,139,cs),
(708,199,o),
(706,306,o),
(706,393,cs),
(706,661,l),
(736,674,o),
(775,677,o),
(794,677,c),
(794,707,l),
(562,707,l),
(562,677,l),
(581,677,o),
(620,674,o),
(650,661,c),
(650,400,ls),
(650,305,o),
(653,218,o),
(637,162,cs),
(611,76,o),
(528,38,o),
(433,38,cs),
(335,38,o),
(263,97,o),
(240,166,cs),
(223,220,o),
(225,338,o),
(225,389,cs),
(225,661,l),
(255,674,o),
(294,677,o),
(313,677,c),
(313,707,l),
(50,707,l),
(50,677,l),
(69,677,o),
(108,674,o),
(138,661,c),
(138,384,ls),
(138,281,o),
(139,192,o),
(163,134,cs),
(213,18,o),
(340,-14,o),
(423,-14,cs)
);
},
{
closed = 1;
nodes = (
(502,926,l),
(445,970,l),
(338,801,l),
(362,781,l)
);
},
{
closed = 1;
nodes = (
(647,934,l),
(590,978,l),
(483,809,l),
(507,789,l)
);
}
);
width = 834;
}
);
unicode = 368;
},
{
glyphname = Umacron;
kernLeft = U;
kernRight = U;
lastChange = "2023-06-14 19:43:19 +0000";
layers = (
{
layerId = "6D97EE47-94AA-478E-ABFB-936E6C32B491";
shapes = (
{
closed = 1;
nodes = (
(506,-14,o),
(647,15,o),
(688,139,cs),
(708,199,o),
(706,306,o),
(706,393,cs),
(706,661,l),
(736,674,o),
(775,677,o),
(794,677,c),
(794,707,l),
(562,707,l),
(562,677,l),
(581,677,o),
(620,674,o),
(650,661,c),
(650,400,ls),
(650,305,o),
(653,218,o),
(637,162,cs),
(611,76,o),
(528,38,o),
(433,38,cs),
(335,38,o),
(263,97,o),
(240,166,cs),
(223,220,o),
(225,338,o),
(225,389,cs),
(225,661,l),
(255,674,o),
(294,677,o),
(313,677,c),
(313,707,l),
(50,707,l),
(50,677,l),
(69,677,o),
(108,674,o),
(138,661,c),
(138,384,ls),
(138,281,o),
(139,192,o),
(163,134,cs),
(213,18,o),
(340,-14,o),
(423,-14,cs)
);
},
{
closed = 1;
nodes = (
(606,806,l),
(606,854,l),
(266,854,l),
(266,806,l)
);
}
);
width = 834;
}
);
unicode = 362;
},
{
glyphname = Uogonek;
kernLeft = U;
kernRight = U;
lastChange = "2023-06-14 19:43:19 +0000";
layers = (
{
layerId = "6D97EE47-94AA-478E-ABFB-936E6C32B491";
shapes = (
{
closed = 1;
nodes = (
(465,-240,o),
(506,-218,o),
(529,-190,c),
(518,-174,l),
(507,-183,o),
(488,-192,o),
(469,-192,cs),
(434,-192,o),
(414,-168,o),
(414,-135,cs),
(414,-98,o),
(442,-54,o),
(488,-8,c),
(566,5,o),
(657,44,o),
(688,139,cs),
(708,199,o),
(706,306,o),
(706,393,cs),
(706,661,l),
(736,674,o),
(775,677,o),
(794,677,c),
(794,707,l),
(562,707,l),
(562,677,l),
(581,677,o),
(620,674,o),
(650,661,c),
(650,400,ls),
(650,305,o),
(653,218,o),
(637,162,cs),
(611,76,o),
(528,38,o),
(433,38,cs),
(335,38,o),
(263,97,o),
(240,166,cs),
(223,220,o),
(225,338,o),
(225,389,cs),
(225,661,l),
(255,674,o),
(294,677,o),
(313,677,c),
(313,707,l),
(50,707,l),
(50,677,l),
(69,677,o),
(108,674,o),
(138,661,c),
(138,384,ls),
(138,281,o),
(139,192,o),
(163,134,cs),
(213,18,o),
(340,-14,o),
(423,-14,cs),
(440,-14,l),
(375,-65,o),
(345,-111,o),
(345,-162,cs),
(345,-217,o),
(384,-240,o),
(433,-240,cs)
);
}
);
width = 834;
}
);
unicode = 370;
},
{
glyphname = Uring;
kernLeft = U;
kernRight = U;
lastChange = "2023-06-14 19:43:19 +0000";
layers = (
{
layerId = "6D97EE47-94AA-478E-ABFB-936E6C32B491";
shapes = (
{
closed = 1;
nodes = (
(506,-14,o),
(647,15,o),
(688,139,cs),
(708,199,o),
(706,306,o),
(706,393,cs),
(706,661,l),
(736,674,o),
(775,677,o),
(794,677,c),
(794,707,l),
(562,707,l),
(562,677,l),
(581,677,o),
(620,674,o),
(650,661,c),
(650,400,ls),
(650,305,o),
(653,218,o),
(637,162,cs),
(611,76,o),
(528,38,o),
(433,38,cs),
(335,38,o),
(263,97,o),
(240,166,cs),
(223,220,o),
(225,338,o),
(225,389,cs),
(225,661,l),
(255,674,o),
(294,677,o),
(313,677,c),
(313,707,l),
(50,707,l),
(50,677,l),
(69,677,o),
(108,674,o),
(138,661,c),
(138,384,ls),
(138,281,o),
(139,192,o),
(163,134,cs),
(213,18,o),
(340,-14,o),
(423,-14,cs)
);
},
{
closed = 1;
nodes = (
(486,800,o),
(528,844,o),
(528,895,cs),
(528,945,o),
(487,989,o),
(435,989,cs),
(384,989,o),
(343,945,o),
(343,893,cs),
(343,838,o),
(387,800,o),
(436,800,cs)
);
},
{
closed = 1;
nodes = (
(409,830,o),
(387,869,o),
(387,903,cs),
(387,933,o),
(407,956,o),
(430,956,cs),
(461,956,o),
(484,919,o),
(484,887,cs),
(484,851,o),
(466,835,o),
(441,833,cs)
);
}
);
width = 834;
}
);
unicode = 366;
},
{
glyphname = Utilde;
kernLeft = U;
kernRight = U;
lastChange = "2023-06-14 19:43:19 +0000";
layers = (
{
layerId = "6D97EE47-94AA-478E-ABFB-936E6C32B491";
shapes = (
{
closed = 1;
nodes = (
(506,-14,o),
(647,15,o),
(688,139,cs),
(708,199,o),
(706,306,o),
(706,393,cs),
(706,661,l),
(736,674,o),
(775,677,o),
(794,677,c),
(794,707,l),
(562,707,l),
(562,677,l),
(581,677,o),
(620,674,o),
(650,661,c),
(650,400,ls),
(650,305,o),
(653,218,o),
(637,162,cs),
(611,76,o),
(528,38,o),
(433,38,cs),
(335,38,o),
(263,97,o),
(240,166,cs),
(223,220,o),
(225,338,o),
(225,389,cs),
(225,661,l),
(255,674,o),
(294,677,o),
(313,677,c),
(313,707,l),
(50,707,l),
(50,677,l),
(69,677,o),
(108,674,o),
(138,661,c),
(138,384,ls),
(138,281,o),
(139,192,o),
(163,134,cs),
(213,18,o),
(340,-14,o),
(423,-14,cs)
);
},
{
closed = 1;
nodes = (
(319,822,o),
(333,847,o),
(372,850,cs),
(421,852,o),
(446,796,o),
(514,800,cs),
(565,803,o),
(604,867,o),
(621,903,c),
(600,914,l),
(582,885,o),
(568,861,o),
(529,859,cs),
(481,857,o),
(456,912,o),
(387,908,cs),
(336,906,o),
(297,842,o),
(280,805,c),
(301,794,l)
);
}
);
width = 834;
}
);
unicode = 360;
},
{
glyphname = V;
kernLeft = V;
kernRight = V;
lastChange = "2023-06-14 19:43:19 +0000";
layers = (
{
layerId = "6D97EE47-94AA-478E-ABFB-936E6C32B491";
shapes = (
{
closed = 1;
nodes = (
(376,-14,l),
(652,661,l),
(676,674,o),
(707,677,o),
(722,677,c),
(722,707,l),
(508,707,l),
(508,677,l),
(527,677,o),
(566,674,o),
(596,661,c),
(377,126,l),
(177,661,l),
(207,674,o),
(246,677,o),
(265,677,c),
(265,707,l),
(4,707,l),
(4,677,l),
(21,677,o),
(56,674,o),
(83,661,c),
(335,-14,l)
);
}
);
width = 726;
}
);
unicode = 86;
},
{
glyphname = W;
kernLeft = W;
kernRight = W;
lastChange = "2023-06-14 19:43:19 +0000";
layers = (
{
layerId = "6D97EE47-94AA-478E-ABFB-936E6C32B491";
shapes = (
{
closed = 1;
nodes = (
(297,-14,l),
(500,483,l),
(694,-14,l),
(735,-14,l),
(901,661,l),
(926,674,o),
(958,677,o),
(973,677,c),
(973,707,l),
(759,707,l),
(759,677,l),
(778,677,o),
(817,674,o),
(846,661,c),
(722,155,l),
(540,619,l),
(498,619,l),
(305,145,l),
(171,661,l),
(200,674,o),
(239,677,o),
(258,677,c),
(258,707,l),
(4,707,l),
(4,677,l),
(20,677,o),
(54,674,o),
(80,662,c),
(255,-14,l)
);
}
);
width = 949;
}
);
metricLeft = V;
unicode = 87;
},
{
glyphname = Wacute;
kernLeft = W;
kernRight = W;
lastChange = "2023-06-14 19:43:19 +0000";
layers = (
{
layerId = "6D97EE47-94AA-478E-ABFB-936E6C32B491";
shapes = (
{
closed = 1;
nodes = (
(297,-14,l),
(500,483,l),
(694,-14,l),
(735,-14,l),
(901,661,l),
(926,674,o),
(958,677,o),
(973,677,c),
(973,707,l),
(759,707,l),
(759,677,l),
(778,677,o),
(817,674,o),
(846,661,c),
(722,155,l),
(540,619,l),
(498,619,l),
(305,145,l),
(171,661,l),
(200,674,o),
(239,677,o),
(258,677,c),
(258,707,l),
(4,707,l),
(4,677,l),
(20,677,o),
(54,674,o),
(80,662,c),
(255,-14,l)
);
},
{
closed = 1;
nodes = (
(701,872,l),
(666,932,l),
(460,813,l),
(474,789,l)
);
}
);
width = 949;
}
);
unicode = 7810;
},
{
glyphname = Wcircumflex;
kernLeft = W;
kernRight = W;
lastChange = "2023-06-14 19:43:19 +0000";
layers = (
{
layerId = "6D97EE47-94AA-478E-ABFB-936E6C32B491";
shapes = (
{
closed = 1;
nodes = (
(297,-14,l),
(500,483,l),
(694,-14,l),
(735,-14,l),
(901,661,l),
(926,674,o),
(958,677,o),
(973,677,c),
(973,707,l),
(759,707,l),
(759,677,l),
(778,677,o),
(817,674,o),
(846,661,c),
(722,155,l),
(540,619,l),
(498,619,l),
(305,145,l),
(171,661,l),
(200,674,o),
(239,677,o),
(258,677,c),
(258,707,l),
(4,707,l),
(4,677,l),
(20,677,o),
(54,674,o),
(80,662,c),
(255,-14,l)
);
},
{
closed = 1;
nodes = (
(520,877,l),
(674,789,l),
(693,812,l),
(532,948,l),
(508,948,l),
(347,812,l),
(366,789,l)
);
}
);
width = 949;
}
);
unicode = 372;
},
{
glyphname = Wdieresis;
kernLeft = W;
kernRight = W;
lastChange = "2023-06-14 19:43:19 +0000";
layers = (
{
layerId = "6D97EE47-94AA-478E-ABFB-936E6C32B491";
shapes = (
{
closed = 1;
nodes = (
(297,-14,l),
(500,483,l),
(694,-14,l),
(735,-14,l),
(901,661,l),
(926,674,o),
(958,677,o),
(973,677,c),
(973,707,l),
(759,707,l),
(759,677,l),
(778,677,o),
(817,674,o),
(846,661,c),
(722,155,l),
(540,619,l),
(498,619,l),
(305,145,l),
(171,661,l),
(200,674,o),
(239,677,o),
(258,677,c),
(258,707,l),
(4,707,l),
(4,677,l),
(20,677,o),
(54,674,o),
(80,662,c),
(255,-14,l)
);
},
{
closed = 1;
nodes = (
(457,800,o),
(479,823,o),
(479,850,cs),
(479,877,o),
(457,898,o),
(429,898,cs),
(401,898,o),
(380,875,o),
(380,848,cs),
(380,821,o),
(401,800,o),
(429,800,cs)
);
},
{
closed = 1;
nodes = (
(638,800,o),
(660,823,o),
(660,850,cs),
(660,877,o),
(638,898,o),
(610,898,cs),
(582,898,o),
(561,875,o),
(561,848,cs),
(561,821,o),
(582,800,o),
(610,800,cs)
);
}
);
width = 949;
}
);
unicode = 7812;
},
{
glyphname = Wgrave;
kernLeft = W;
kernRight = W;
lastChange = "2023-06-14 19:43:19 +0000";
layers = (
{
layerId = "6D97EE47-94AA-478E-ABFB-936E6C32B491";
shapes = (
{
closed = 1;
nodes = (
(297,-14,l),
(500,483,l),
(694,-14,l),
(735,-14,l),
(901,661,l),
(926,674,o),
(958,677,o),
(973,677,c),
(973,707,l),
(759,707,l),
(759,677,l),
(778,677,o),
(817,674,o),
(846,661,c),
(722,155,l),
(540,619,l),
(498,619,l),
(305,145,l),
(171,661,l),
(200,674,o),
(239,677,o),
(258,677,c),
(258,707,l),
(4,707,l),
(4,677,l),
(20,677,o),
(54,674,o),
(80,662,c),
(255,-14,l)
);
},
{
closed = 1;
nodes = (
(600,813,l),
(394,932,l),
(359,872,l),
(586,789,l)
);
}
);
width = 949;
}
);
unicode = 7808;
},
{
glyphname = X;
kernLeft = X;
kernRight = X;
lastChange = "2023-06-14 19:43:19 +0000";
layers = (
{
layerId = "6D97EE47-94AA-478E-ABFB-936E6C32B491";
shapes = (
{
closed = 1;
nodes = (
(227,0,l),
(227,30,l),
(208,30,o),
(169,33,o),
(139,46,c),
(320,305,l),
(488,46,l),
(458,33,o),
(420,30,o),
(401,30,c),
(401,0,l),
(671,0,l),
(671,30,l),
(654,30,o),
(620,33,o),
(594,46,c),
(379,377,l),
(578,661,l),
(603,674,o),
(634,677,o),
(649,677,c),
(649,707,l),
(427,707,l),
(427,677,l),
(446,677,o),
(485,674,o),
(514,661,c),
(348,424,l),
(194,661,l),
(224,674,o),
(263,677,o),
(282,677,c),
(282,707,l),
(12,707,l),
(12,677,l),
(28,677,o),
(62,674,o),
(88,662,c),
(289,352,l),
(76,46,l),
(51,33,o),
(19,30,o),
(4,30,c),
(4,0,l)
);
}
);
width = 675;
}
);
unicode = 88;
},
{
glyphname = Y;
kernLeft = V;
kernRight = V;
lastChange = "2023-06-14 19:43:19 +0000";
layers = (
{
layerId = "6D97EE47-94AA-478E-ABFB-936E6C32B491";
shapes = (
{
closed = 1;
nodes = (
(466,0,l),
(466,30,l),
(447,30,o),
(408,33,o),
(378,46,c),
(378,301,l),
(578,662,l),
(603,674,o),
(634,677,o),
(649,677,c),
(649,707,l),
(431,707,l),
(431,677,l),
(450,677,o),
(489,674,o),
(519,661,c),
(349,357,l),
(181,661,l),
(211,674,o),
(249,677,o),
(268,677,c),
(268,707,l),
(4,707,l),
(4,677,l),
(20,677,o),
(54,674,o),
(80,661,c),
(291,280,l),
(291,46,l),
(261,33,o),
(222,30,o),
(203,30,c),
(203,0,l)
);
}
);
width = 653;
}
);
unicode = 89;
},
{
glyphname = Yacute;
kernLeft = V;
kernRight = V;
lastChange = "2023-06-14 19:43:19 +0000";
layers = (
{
layerId = "6D97EE47-94AA-478E-ABFB-936E6C32B491";
shapes = (
{
closed = 1;
nodes = (
(466,0,l),
(466,30,l),
(447,30,o),
(408,33,o),
(378,46,c),
(378,301,l),
(578,662,l),
(603,674,o),
(634,677,o),
(649,677,c),
(649,707,l),
(431,707,l),
(431,677,l),
(450,677,o),
(489,674,o),
(519,661,c),
(349,357,l),
(181,661,l),
(211,674,o),
(249,677,o),
(268,677,c),
(268,707,l),
(4,707,l),
(4,677,l),
(20,677,o),
(54,674,o),
(80,661,c),
(291,280,l),
(291,46,l),
(261,33,o),
(222,30,o),
(203,30,c),
(203,0,l)
);
},
{
closed = 1;
nodes = (
(520,864,l),
(485,924,l),
(279,805,l),
(293,781,l)
);
}
);
width = 653;
}
);
unicode = 221;
},
{
glyphname = Ycircumflex;
kernLeft = V;
kernRight = V;
lastChange = "2023-06-14 19:43:19 +0000";
layers = (
{
layerId = "6D97EE47-94AA-478E-ABFB-936E6C32B491";
shapes = (
{
closed = 1;
nodes = (
(466,0,l),
(466,30,l),
(447,30,o),
(408,33,o),
(378,46,c),
(378,301,l),
(578,662,l),
(603,674,o),
(634,677,o),
(649,677,c),
(649,707,l),
(431,707,l),
(431,677,l),
(450,677,o),
(489,674,o),
(519,661,c),
(349,357,l),
(181,661,l),
(211,674,o),
(249,677,o),
(268,677,c),
(268,707,l),
(4,707,l),
(4,677,l),
(20,677,o),
(54,674,o),
(80,661,c),
(291,280,l),
(291,46,l),
(261,33,o),
(222,30,o),
(203,30,c),
(203,0,l)
);
},
{
closed = 1;
nodes = (
(339,877,l),
(493,789,l),
(512,812,l),
(351,948,l),
(327,948,l),
(166,812,l),
(185,789,l)
);
}
);
width = 653;
}
);
unicode = 374;
},
{
glyphname = Ydieresis;
kernLeft = V;
kernRight = V;
lastChange = "2023-06-14 19:43:19 +0000";
layers = (
{
layerId = "6D97EE47-94AA-478E-ABFB-936E6C32B491";
shapes = (
{
closed = 1;
nodes = (
(466,0,l),
(466,30,l),
(447,30,o),
(408,33,o),
(378,46,c),
(378,301,l),
(578,662,l),
(603,674,o),
(634,677,o),
(649,677,c),
(649,707,l),
(431,707,l),
(431,677,l),
(450,677,o),
(489,674,o),
(519,661,c),
(349,357,l),
(181,661,l),
(211,674,o),
(249,677,o),
(268,677,c),
(268,707,l),
(4,707,l),
(4,677,l),
(20,677,o),
(54,674,o),
(80,661,c),
(291,280,l),
(291,46,l),
(261,33,o),
(222,30,o),
(203,30,c),
(203,0,l)
);
},
{
closed = 1;
nodes = (
(276,800,o),
(298,823,o),
(298,850,cs),
(298,877,o),
(276,898,o),
(248,898,cs),
(220,898,o),
(199,875,o),
(199,848,cs),
(199,821,o),
(220,800,o),
(248,800,cs)
);
},
{
closed = 1;
nodes = (
(457,800,o),
(479,823,o),
(479,850,cs),
(479,877,o),
(457,898,o),
(429,898,cs),
(401,898,o),
(380,875,o),
(380,848,cs),
(380,821,o),
(401,800,o),
(429,800,cs)
);
}
);
width = 653;
}
);
unicode = 376;
},
{
glyphname = Ygrave;
kernLeft = V;
kernRight = V;
lastChange = "2023-06-14 19:43:19 +0000";
layers = (
{
layerId = "6D97EE47-94AA-478E-ABFB-936E6C32B491";
shapes = (
{
closed = 1;
nodes = (
(466,0,l),
(466,30,l),
(447,30,o),
(408,33,o),
(378,46,c),
(378,301,l),
(578,662,l),
(603,674,o),
(634,677,o),
(649,677,c),
(649,707,l),
(431,707,l),
(431,677,l),
(450,677,o),
(489,674,o),
(519,661,c),
(349,357,l),
(181,661,l),
(211,674,o),
(249,677,o),
(268,677,c),
(268,707,l),
(4,707,l),
(4,677,l),
(20,677,o),
(54,674,o),
(80,661,c),
(291,280,l),
(291,46,l),
(261,33,o),
(222,30,o),
(203,30,c),
(203,0,l)
);
},
{
closed = 1;
nodes = (
(419,813,l),
(213,932,l),
(178,872,l),
(405,789,l)
);
}
);
width = 653;
}
);
unicode = 7922;
},
{
glyphname = Ymacron;
kernLeft = V;
kernRight = V;
lastChange = "2023-06-14 19:43:19 +0000";
layers = (
{
layerId = "6D97EE47-94AA-478E-ABFB-936E6C32B491";
shapes = (
{
closed = 1;
nodes = (
(466,0,l),
(466,30,l),
(447,30,o),
(408,33,o),
(378,46,c),
(378,301,l),
(578,662,l),
(603,674,o),
(634,677,o),
(649,677,c),
(649,707,l),
(431,707,l),
(431,677,l),
(450,677,o),
(489,674,o),
(519,661,c),
(349,357,l),
(181,661,l),
(211,674,o),
(249,677,o),
(268,677,c),
(268,707,l),
(4,707,l),
(4,677,l),
(20,677,o),
(54,674,o),
(80,661,c),
(291,280,l),
(291,46,l),
(261,33,o),
(222,30,o),
(203,30,c),
(203,0,l)
);
},
{
closed = 1;
nodes = (
(509,806,l),
(509,854,l),
(169,854,l),
(169,806,l)
);
}
);
width = 653;
}
);
unicode = 562;
},
{
glyphname = Ytilde;
kernLeft = V;
kernRight = V;
lastChange = "2023-06-14 19:43:19 +0000";
layers = (
{
layerId = "6D97EE47-94AA-478E-ABFB-936E6C32B491";
shapes = (
{
closed = 1;
nodes = (
(466,0,l),
(466,30,l),
(447,30,o),
(408,33,o),
(378,46,c),
(378,301,l),
(578,662,l),
(603,674,o),
(634,677,o),
(649,677,c),
(649,707,l),
(431,707,l),
(431,677,l),
(450,677,o),
(489,674,o),
(519,661,c),
(349,357,l),
(181,661,l),
(211,674,o),
(249,677,o),
(268,677,c),
(268,707,l),
(4,707,l),
(4,677,l),
(20,677,o),
(54,674,o),
(80,661,c),
(291,280,l),
(291,46,l),
(261,33,o),
(222,30,o),
(203,30,c),
(203,0,l)
);
},
{
closed = 1;
nodes = (
(222,822,o),
(236,847,o),
(275,850,cs),
(324,852,o),
(349,796,o),
(417,800,cs),
(468,803,o),
(507,867,o),
(524,903,c),
(503,914,l),
(485,885,o),
(471,861,o),
(432,859,cs),
(384,857,o),
(359,912,o),
(290,908,cs),
(239,906,o),
(200,842,o),
(183,805,c),
(204,794,l)
);
}
);
width = 653;
}
);
unicode = 7928;
},
{
glyphname = Z;
kernLeft = Z;
kernRight = Z;
lastChange = "2023-06-14 19:43:19 +0000";
layers = (
{
layerId = "6D97EE47-94AA-478E-ABFB-936E6C32B491";
shapes = (
{
closed = 1;
nodes = (
(556,0,l),
(595,167,l),
(564,175,l),
(560,161,o),
(531,90,o),
(500,51,c),
(139,51,l),
(555,669,l),
(538,707,l),
(43,707,l),
(36,536,l),
(68,534,l),
(76,574,o),
(82,613,o),
(94,656,c),
(440,656,l),
(25,38,l),
(40,0,l)
);
}
);
width = 620;
}
);
metricLeft = "=H/2";
metricRight = "=H/2";
unicode = 90;
},
{
glyphname = Zacute;
kernLeft = Z;
kernRight = Z;
lastChange = "2023-06-14 19:43:19 +0000";
layers = (
{
layerId = "6D97EE47-94AA-478E-ABFB-936E6C32B491";
shapes = (
{
closed = 1;
nodes = (
(556,0,l),
(595,167,l),
(564,175,l),
(560,161,o),
(531,90,o),
(500,51,c),
(139,51,l),
(555,669,l),
(538,707,l),
(43,707,l),
(36,536,l),
(68,534,l),
(76,574,o),
(82,613,o),
(94,656,c),
(440,656,l),
(25,38,l),
(40,0,l)
);
},
{
closed = 1;
nodes = (
(470,864,l),
(435,924,l),
(229,805,l),
(243,781,l)
);
}
);
width = 620;
}
);
unicode = 377;
},
{
glyphname = Zcaron;
kernLeft = Z;
kernRight = Z;
lastChange = "2023-06-14 19:43:19 +0000";
layers = (
{
layerId = "6D97EE47-94AA-478E-ABFB-936E6C32B491";
shapes = (
{
closed = 1;
nodes = (
(556,0,l),
(595,167,l),
(564,175,l),
(560,161,o),
(531,90,o),
(500,51,c),
(139,51,l),
(555,669,l),
(538,707,l),
(43,707,l),
(36,536,l),
(68,534,l),
(76,574,o),
(82,613,o),
(94,656,c),
(440,656,l),
(25,38,l),
(40,0,l)
);
},
{
closed = 1;
nodes = (
(304,796,l),
(465,932,l),
(446,955,l),
(292,867,l),
(138,955,l),
(119,932,l),
(280,796,l)
);
}
);
width = 620;
}
);
unicode = 381;
},
{
glyphname = Zcircumflex;
kernLeft = Z;
kernRight = Z;
lastChange = "2023-06-14 19:43:19 +0000";
layers = (
{
layerId = "6D97EE47-94AA-478E-ABFB-936E6C32B491";
shapes = (
{
closed = 1;
nodes = (
(556,0,l),
(595,167,l),
(564,175,l),
(560,161,o),
(531,90,o),
(500,51,c),
(139,51,l),
(555,669,l),
(538,707,l),
(43,707,l),
(36,536,l),
(68,534,l),
(76,574,o),
(82,613,o),
(94,656,c),
(440,656,l),
(25,38,l),
(40,0,l)
);
},
{
closed = 1;
nodes = (
(289,877,l),
(443,789,l),
(462,812,l),
(301,948,l),
(277,948,l),
(116,812,l),
(135,789,l)
);
}
);
width = 620;
}
);
unicode = 7824;
},
{
glyphname = Zdotaccent;
kernLeft = Z;
kernRight = Z;
lastChange = "2023-06-14 19:43:19 +0000";
layers = (
{
layerId = "6D97EE47-94AA-478E-ABFB-936E6C32B491";
shapes = (
{
closed = 1;
nodes = (
(556,0,l),
(595,167,l),
(564,175,l),
(560,161,o),
(531,90,o),
(500,51,c),
(139,51,l),
(555,669,l),
(538,707,l),
(43,707,l),
(36,536,l),
(68,534,l),
(76,574,o),
(82,613,o),
(94,656,c),
(440,656,l),
(25,38,l),
(40,0,l)
);
},
{
closed = 1;
nodes = (
(321,800,o),
(345,826,o),
(345,856,cs),
(345,887,o),
(321,911,o),
(289,911,cs),
(257,911,o),
(234,884,o),
(234,855,cs),
(234,824,o),
(257,800,o),
(289,800,cs)
);
}
);
width = 620;
}
);
unicode = 379;
},
{
glyphname = Cacute.loclPLK;
kernLeft = O;
kernRight = C;
lastChange = "2023-06-14 19:43:19 +0000";
layers = (
{
layerId = "6D97EE47-94AA-478E-ABFB-936E6C32B491";
shapes = (
{
closed = 1;
nodes = (
(505,-14,o),
(568,-5,o),
(637,13,c),
(715,161,l),
(685,176,l),
(626,83,o),
(563,33,o),
(452,33,cs),
(284,33,o),
(145,197,o),
(145,380,cs),
(145,549,o),
(254,673,o),
(425,673,cs),
(520,673,o),
(606,635,o),
(642,540,c),
(672,546,l),
(652,688,l),
(605,701,o),
(523,721,o),
(431,721,cs),
(221,721,o),
(50,560,o),
(50,350,cs),
(50,135,o),
(217,-14,o),
(448,-14,cs)
);
},
{
closed = 1;
nodes = (
(518,970,l),
(446,996,l),
(372,792,l),
(403,780,l)
);
}
);
width = 740;
}
);
},
{
glyphname = Nacute.loclPLK;
kernLeft = H;
kernRight = H;
lastChange = "2023-06-14 19:43:19 +0000";
layers = (
{
layerId = "6D97EE47-94AA-478E-ABFB-936E6C32B491";
shapes = (
{
closed = 1;
nodes = (
(678,-14,l),
(678,661,l),
(708,674,o),
(747,677,o),
(766,677,c),
(766,707,l),
(534,707,l),
(534,677,l),
(553,677,o),
(592,674,o),
(622,661,c),
(622,147,l),
(199,707,l),
(40,707,l),
(40,677,l),
(59,677,o),
(98,674,o),
(128,661,c),
(128,46,l),
(98,33,o),
(59,30,o),
(40,30,c),
(40,0,l),
(272,0,l),
(272,30,l),
(253,30,o),
(214,33,o),
(184,46,c),
(184,582,l),
(633,-14,l)
);
},
{
closed = 1;
nodes = (
(522,970,l),
(450,996,l),
(376,792,l),
(407,780,l)
);
}
);
width = 806;
}
);
},
{
glyphname = Oacute.loclPLK;
kernLeft = O;
kernRight = O;
lastChange = "2023-06-14 19:43:19 +0000";
layers = (
{
layerId = "6D97EE47-94AA-478E-ABFB-936E6C32B491";
shapes = (
{
closed = 1;
nodes = (
(625,-14,o),
(794,155,o),
(794,360,cs),
(794,562,o),
(627,721,o),
(424,721,cs),
(218,721,o),
(50,553,o),
(50,348,cs),
(50,146,o),
(215,-14,o),
(419,-14,cs)
);
},
{
closed = 1;
nodes = (
(276,41,o),
(141,215,o),
(141,390,cs),
(141,544,o),
(248,667,o),
(395,667,cs),
(566,667,o),
(702,496,o),
(702,319,cs),
(702,165,o),
(596,41,o),
(449,41,cs)
);
},
{
closed = 1;
nodes = (
(543,970,l),
(471,996,l),
(397,792,l),
(428,780,l)
);
}
);
width = 844;
}
);
},
{
glyphname = Sacute.loclPLK;
kernLeft = S;
kernRight = S;
lastChange = "2023-06-14 19:43:19 +0000";
layers = (
{
layerId = "6D97EE47-94AA-478E-ABFB-936E6C32B491";
shapes = (
{
closed = 1;
nodes = (
(401,-14,o),
(503,50,o),
(503,168,cs),
(503,400,o),
(179,402,o),
(179,560,cs),
(179,626,o),
(244,675,o),
(321,675,cs),
(405,675,o),
(445,620,o),
(456,536,c),
(489,540,l),
(467,702,l),
(441,707,o),
(389,721,o),
(328,721,cs),
(197,721,o),
(91,660,o),
(91,537,cs),
(91,334,o),
(412,316,o),
(412,155,cs),
(412,79,o),
(350,33,o),
(262,33,cs),
(154,33,o),
(105,106,o),
(79,221,c),
(46,215,l),
(77,23,l),
(83,15,o),
(178,-14,o),
(272,-14,cs)
);
},
{
closed = 1;
nodes = (
(407,970,l),
(335,996,l),
(261,792,l),
(292,780,l)
);
}
);
width = 554;
}
);
},
{
glyphname = Zacute.loclPLK;
kernLeft = Z;
kernRight = Z;
lastChange = "2023-06-14 19:43:19 +0000";
layers = (
{
layerId = "6D97EE47-94AA-478E-ABFB-936E6C32B491";
shapes = (
{
closed = 1;
nodes = (
(556,0,l),
(595,167,l),
(564,175,l),
(560,161,o),
(531,90,o),
(500,51,c),
(139,51,l),
(555,669,l),
(538,707,l),
(43,707,l),
(36,536,l),
(68,534,l),
(76,574,o),
(82,613,o),
(94,656,c),
(440,656,l),
(25,38,l),
(40,0,l)
);
},
{
closed = 1;
nodes = (
(404,970,l),
(332,996,l),
(258,792,l),
(289,780,l)
);
}
);
width = 620;
}
);
},
{
glyphname = K.ss01;
kernLeft = H;
kernRight = K.ss01;
lastChange = "2023-06-14 19:43:19 +0000";
layers = (
{
layerId = "6D97EE47-94AA-478E-ABFB-936E6C32B491";
shapes = (
{
closed = 1;
nodes = (
(857,-184,l),
(768,-157,o),
(736,-116,o),
(683,-57,cs),
(620,13,o),
(374,333,o),
(331,392,c),
(581,661,l),
(611,674,o),
(649,677,o),
(668,677,c),
(668,707,l),
(440,707,l),
(440,677,l),
(455,677,o),
(487,674,o),
(512,661,c),
(243,373,l),
(275,331,o),
(563,-67,o),
(614,-119,cs),
(670,-177,o),
(713,-213,o),
(850,-214,c)
);
},
{
closed = 1;
nodes = (
(317,0,l),
(317,30,l),
(297,30,o),
(256,33,o),
(225,46,c),
(225,661,l),
(255,674,o),
(294,677,o),
(313,677,c),
(313,707,l),
(50,707,l),
(50,677,l),
(69,677,o),
(108,674,o),
(138,661,c),
(138,46,l),
(108,33,o),
(69,30,o),
(50,30,c),
(50,0,l)
);
}
);
width = 657;
}
);
metricLeft = K;
},
{
glyphname = Kcommaaccent.ss01;
kernLeft = H;
kernRight = K.ss01;
lastChange = "2023-06-14 19:43:19 +0000";
layers = (
{
layerId = "6D97EE47-94AA-478E-ABFB-936E6C32B491";
shapes = (
{
closed = 1;
nodes = (
(857,-184,l),
(768,-157,o),
(736,-116,o),
(683,-57,cs),
(620,13,o),
(374,333,o),
(331,392,c),
(581,661,l),
(611,674,o),
(649,677,o),
(668,677,c),
(668,707,l),
(440,707,l),
(440,677,l),
(455,677,o),
(487,674,o),
(512,661,c),
(243,373,l),
(275,331,o),
(563,-67,o),
(614,-119,cs),
(670,-177,o),
(713,-213,o),
(850,-214,c)
);
},
{
closed = 1;
nodes = (
(391,-273,o),
(420,-185,o),
(414,-128,cs),
(411,-94,o),
(390,-70,o),
(359,-70,cs),
(327,-70,o),
(304,-96,o),
(304,-126,cs),
(304,-157,o),
(327,-180,o),
(359,-180,cs),
(360,-180,l),
(360,-228,o),
(337,-269,o),
(298,-298,c),
(312,-317,l)
);
},
{
closed = 1;
nodes = (
(317,0,l),
(317,30,l),
(297,30,o),
(256,33,o),
(225,46,c),
(225,661,l),
(255,674,o),
(294,677,o),
(313,677,c),
(313,707,l),
(50,707,l),
(50,677,l),
(69,677,o),
(108,674,o),
(138,661,c),
(138,46,l),
(108,33,o),
(69,30,o),
(50,30,c),
(50,0,l)
);
}
);
width = 657;
}
);
},
{
glyphname = Q.ss01;
kernLeft = O;
kernRight = Q.ss01;
lastChange = "2023-06-14 19:43:19 +0000";
layers = (
{
layerId = "6D97EE47-94AA-478E-ABFB-936E6C32B491";
shapes = (
{
closed = 1;
nodes = (
(1166,-251,o),
(1314,-221,o),
(1456,-126,c),
(1437,-101,l),
(1361,-149,o),
(1279,-178,o),
(1134,-175,cs),
(1002,-172,o),
(698,-35,o),
(572,19,c),
(703,77,o),
(795,208,o),
(795,359,cs),
(795,561,o),
(627,721,o),
(424,721,cs),
(219,721,o),
(50,553,o),
(50,348,cs),
(50,149,o),
(213,-14,o),
(419,-14,cs),
(432,-14,l),
(567,-61,o),
(872,-209,o),
(997,-227,cs)
);
},
{
closed = 1;
nodes = (
(276,41,o),
(141,216,o),
(141,390,cs),
(141,543,o),
(247,667,o),
(395,667,cs),
(566,667,o),
(702,496,o),
(702,319,cs),
(702,165,o),
(597,41,o),
(449,41,cs)
);
}
);
width = 849;
}
);
metricLeft = O;
},
{
glyphname = R.ss01;
kernLeft = H;
kernRight = R.ss01;
lastChange = "2023-06-14 19:43:19 +0000";
layers = (
{
layerId = "6D97EE47-94AA-478E-ABFB-936E6C32B491";
shapes = (
{
closed = 1;
nodes = (
(837,-185,l),
(750,-152,o),
(714,-120,o),
(665,-57,cs),
(612,11,o),
(447,263,o),
(392,355,c),
(505,402,o),
(544,482,o),
(544,548,cs),
(544,680,o),
(439,721,o),
(305,721,cs),
(230,721,o),
(138,710,o),
(50,699,c),
(53,669,l),
(71,670,o),
(108,672,o),
(138,663,c),
(138,46,l),
(108,33,o),
(69,30,o),
(50,30,c),
(50,0,l),
(317,0,l),
(317,30,l),
(297,30,o),
(256,33,o),
(225,46,c),
(225,317,l),
(256,320,o),
(284,324,o),
(310,330,c),
(366,238,o),
(547,-62,o),
(590,-112,cs),
(643,-173,o),
(690,-205,o),
(828,-214,c)
);
},
{
closed = 1;
nodes = (
(225,668,l),
(359,685,o),
(457,642,o),
(457,524,cs),
(457,444,o),
(378,359,o),
(225,353,c)
);
}
);
width = 637;
}
);
metricLeft = R;
},
{
glyphname = Racute.ss01;
kernLeft = H;
kernRight = R.ss01;
lastChange = "2023-06-14 19:43:19 +0000";
layers = (
{
layerId = "6D97EE47-94AA-478E-ABFB-936E6C32B491";
shapes = (
{
closed = 1;
nodes = (
(837,-185,l),
(750,-152,o),
(714,-120,o),
(665,-57,cs),
(612,11,o),
(447,263,o),
(392,355,c),
(505,402,o),
(544,482,o),
(544,548,cs),
(544,680,o),
(439,721,o),
(305,721,cs),
(230,721,o),
(138,710,o),
(50,699,c),
(53,669,l),
(71,670,o),
(108,672,o),
(138,663,c),
(138,46,l),
(108,33,o),
(69,30,o),
(50,30,c),
(50,0,l),
(317,0,l),
(317,30,l),
(297,30,o),
(256,33,o),
(225,46,c),
(225,317,l),
(256,320,o),
(284,324,o),
(310,330,c),
(366,238,o),
(547,-62,o),
(590,-112,cs),
(643,-173,o),
(690,-205,o),
(828,-214,c)
);
},
{
closed = 1;
nodes = (
(225,668,l),
(359,685,o),
(457,642,o),
(457,524,cs),
(457,444,o),
(378,359,o),
(225,353,c)
);
},
{
closed = 1;
nodes = (
(468,864,l),
(433,924,l),
(227,805,l),
(241,781,l)
);
}
);
width = 637;
}
);
},
{
glyphname = Rcaron.ss01;
kernLeft = H;
kernRight = R.ss01;
lastChange = "2023-06-14 19:43:19 +0000";
layers = (
{
layerId = "6D97EE47-94AA-478E-ABFB-936E6C32B491";
shapes = (
{
closed = 1;
nodes = (
(837,-185,l),
(750,-152,o),
(714,-120,o),
(665,-57,cs),
(612,11,o),
(447,263,o),
(392,355,c),
(505,402,o),
(544,482,o),
(544,548,cs),
(544,680,o),
(439,721,o),
(305,721,cs),
(230,721,o),
(138,710,o),
(50,699,c),
(53,669,l),
(71,670,o),
(108,672,o),
(138,663,c),
(138,46,l),
(108,33,o),
(69,30,o),
(50,30,c),
(50,0,l),
(317,0,l),
(317,30,l),
(297,30,o),
(256,33,o),
(225,46,c),
(225,317,l),
(256,320,o),
(284,324,o),
(310,330,c),
(366,238,o),
(547,-62,o),
(590,-112,cs),
(643,-173,o),
(690,-205,o),
(828,-214,c)
);
},
{
closed = 1;
nodes = (
(225,668,l),
(359,685,o),
(457,642,o),
(457,524,cs),
(457,444,o),
(378,359,o),
(225,353,c)
);
},
{
closed = 1;
nodes = (
(302,796,l),
(463,932,l),
(444,955,l),
(290,867,l),
(136,955,l),
(117,932,l),
(278,796,l)
);
}
);
width = 637;
}
);
},
{
glyphname = Rcommaaccent.ss01;
kernLeft = H;
kernRight = R.ss01;
lastChange = "2023-06-14 19:43:19 +0000";
layers = (
{
layerId = "6D97EE47-94AA-478E-ABFB-936E6C32B491";
shapes = (
{
closed = 1;
nodes = (
(837,-185,l),
(750,-152,o),
(714,-120,o),
(665,-57,cs),
(612,11,o),
(447,263,o),
(392,355,c),
(505,402,o),
(544,482,o),
(544,548,cs),
(544,680,o),
(439,721,o),
(305,721,cs),
(230,721,o),
(138,710,o),
(50,699,c),
(53,669,l),
(71,670,o),
(108,672,o),
(138,663,c),
(138,46,l),
(108,33,o),
(69,30,o),
(50,30,c),
(50,0,l),
(317,0,l),
(317,30,l),
(297,30,o),
(256,33,o),
(225,46,c),
(225,317,l),
(256,320,o),
(284,324,o),
(310,330,c),
(366,238,o),
(547,-62,o),
(590,-112,cs),
(643,-173,o),
(690,-205,o),
(828,-214,c)
);
},
{
closed = 1;
nodes = (
(391,-273,o),
(420,-185,o),
(414,-128,cs),
(411,-94,o),
(390,-70,o),
(359,-70,cs),
(327,-70,o),
(304,-96,o),
(304,-126,cs),
(304,-157,o),
(327,-180,o),
(359,-180,cs),
(360,-180,l),
(360,-228,o),
(337,-269,o),
(298,-298,c),
(312,-317,l)
);
},
{
closed = 1;
nodes = (
(225,668,l),
(359,685,o),
(457,642,o),
(457,524,cs),
(457,444,o),
(378,359,o),
(225,353,c)
);
}
);
width = 637;
}
);
},
{
glyphname = Y.ss01;
kernLeft = V;
kernRight = V;
lastChange = "2023-06-14 19:43:19 +0000";
layers = (
{
layerId = "6D97EE47-94AA-478E-ABFB-936E6C32B491";
shapes = (
{
closed = 1;
nodes = (
(430,0,l),
(430,30,l),
(411,30,o),
(372,33,o),
(342,46,c),
(342,249,l),
(343,261,o),
(343,272,o),
(343,284,cs),
(352,447,o),
(426,624,o),
(582,700,c),
(570,728,l),
(446,678,o),
(359,587,o),
(308,470,c),
(256,598,o),
(150,690,o),
(16,728,c),
(4,698,l),
(150,628,o),
(257,432,o),
(254,249,cs),
(254,46,l),
(224,33,o),
(185,30,o),
(166,30,c),
(166,0,l)
);
}
);
width = 586;
}
);
metricLeft = Y;
metricRight = Y;
},
{
glyphname = Yacute.ss01;
kernLeft = V;
kernRight = V;
lastChange = "2023-06-14 19:43:19 +0000";
layers = (
{
layerId = "6D97EE47-94AA-478E-ABFB-936E6C32B491";
shapes = (
{
closed = 1;
nodes = (
(430,0,l),
(430,30,l),
(411,30,o),
(372,33,o),
(342,46,c),
(342,249,l),
(343,261,o),
(343,272,o),
(343,284,cs),
(352,447,o),
(426,624,o),
(582,700,c),
(570,728,l),
(446,678,o),
(359,587,o),
(308,470,c),
(256,598,o),
(150,690,o),
(16,728,c),
(4,698,l),
(150,628,o),
(257,432,o),
(254,249,cs),
(254,46,l),
(224,33,o),
(185,30,o),
(166,30,c),
(166,0,l)
);
},
{
closed = 1;
nodes = (
(482,864,l),
(447,924,l),
(241,805,l),
(255,781,l)
);
}
);
width = 586;
}
);
},
{
glyphname = Ycircumflex.ss01;
kernLeft = V;
kernRight = V;
lastChange = "2023-06-14 19:43:19 +0000";
layers = (
{
layerId = "6D97EE47-94AA-478E-ABFB-936E6C32B491";
shapes = (
{
closed = 1;
nodes = (
(430,0,l),
(430,30,l),
(411,30,o),
(372,33,o),
(342,46,c),
(342,249,l),
(343,261,o),
(343,272,o),
(343,284,cs),
(352,447,o),
(426,624,o),
(582,700,c),
(570,728,l),
(446,678,o),
(359,587,o),
(308,470,c),
(256,598,o),
(150,690,o),
(16,728,c),
(4,698,l),
(150,628,o),
(257,432,o),
(254,249,cs),
(254,46,l),
(224,33,o),
(185,30,o),
(166,30,c),
(166,0,l)
);
},
{
closed = 1;
nodes = (
(301,877,l),
(455,789,l),
(474,812,l),
(313,948,l),
(289,948,l),
(128,812,l),
(147,789,l)
);
}
);
width = 586;
}
);
},
{
glyphname = Ydieresis.ss01;
kernLeft = V;
kernRight = V;
lastChange = "2023-06-14 19:43:19 +0000";
layers = (
{
layerId = "6D97EE47-94AA-478E-ABFB-936E6C32B491";
shapes = (
{
closed = 1;
nodes = (
(430,0,l),
(430,30,l),
(411,30,o),
(372,33,o),
(342,46,c),
(342,249,l),
(343,261,o),
(343,272,o),
(343,284,cs),
(352,447,o),
(426,624,o),
(582,700,c),
(570,728,l),
(446,678,o),
(359,587,o),
(308,470,c),
(256,598,o),
(150,690,o),
(16,728,c),
(4,698,l),
(150,628,o),
(257,432,o),
(254,249,cs),
(254,46,l),
(224,33,o),
(185,30,o),
(166,30,c),
(166,0,l)
);
},
{
closed = 1;
nodes = (
(238,800,o),
(260,823,o),
(260,850,cs),
(260,877,o),
(238,898,o),
(210,898,cs),
(182,898,o),
(161,875,o),
(161,848,cs),
(161,821,o),
(182,800,o),
(210,800,cs)
);
},
{
closed = 1;
nodes = (
(419,800,o),
(441,823,o),
(441,850,cs),
(441,877,o),
(419,898,o),
(391,898,cs),
(363,898,o),
(342,875,o),
(342,848,cs),
(342,821,o),
(363,800,o),
(391,800,cs)
);
}
);
width = 586;
}
);
},
{
glyphname = Ygrave.ss01;
kernLeft = V;
kernRight = V;
lastChange = "2023-06-14 19:43:19 +0000";
layers = (
{
layerId = "6D97EE47-94AA-478E-ABFB-936E6C32B491";
shapes = (
{
closed = 1;
nodes = (
(430,0,l),
(430,30,l),
(411,30,o),
(372,33,o),
(342,46,c),
(342,249,l),
(343,261,o),
(343,272,o),
(343,284,cs),
(352,447,o),
(426,624,o),
(582,700,c),
(570,728,l),
(446,678,o),
(359,587,o),
(308,470,c),
(256,598,o),
(150,690,o),
(16,728,c),
(4,698,l),
(150,628,o),
(257,432,o),
(254,249,cs),
(254,46,l),
(224,33,o),
(185,30,o),
(166,30,c),
(166,0,l)
);
},
{
closed = 1;
nodes = (
(381,813,l),
(175,932,l),
(140,872,l),
(367,789,l)
);
}
);
width = 586;
}
);
},
{
glyphname = Ymacron.ss01;
kernLeft = V;
kernRight = V;
lastChange = "2023-06-14 19:43:19 +0000";
layers = (
{
layerId = "6D97EE47-94AA-478E-ABFB-936E6C32B491";
shapes = (
{
closed = 1;
nodes = (
(430,0,l),
(430,30,l),
(411,30,o),
(372,33,o),
(342,46,c),
(342,249,l),
(343,261,o),
(343,272,o),
(343,284,cs),
(352,447,o),
(426,624,o),
(582,700,c),
(570,728,l),
(446,678,o),
(359,587,o),
(308,470,c),
(256,598,o),
(150,690,o),
(16,728,c),
(4,698,l),
(150,628,o),
(257,432,o),
(254,249,cs),
(254,46,l),
(224,33,o),
(185,30,o),
(166,30,c),
(166,0,l)
);
},
{
closed = 1;
nodes = (
(471,806,l),
(471,854,l),
(131,854,l),
(131,806,l)
);
}
);
width = 586;
}
);
},
{
glyphname = Ytilde.ss01;
kernLeft = V;
kernRight = V;
lastChange = "2023-06-14 19:43:19 +0000";
layers = (
{
layerId = "6D97EE47-94AA-478E-ABFB-936E6C32B491";
shapes = (
{
closed = 1;
nodes = (
(430,0,l),
(430,30,l),
(411,30,o),
(372,33,o),
(342,46,c),
(342,249,l),
(343,261,o),
(343,272,o),
(343,284,cs),
(352,447,o),
(426,624,o),
(582,700,c),
(570,728,l),
(446,678,o),
(359,587,o),
(308,470,c),
(256,598,o),
(150,690,o),
(16,728,c),
(4,698,l),
(150,628,o),
(257,432,o),
(254,249,cs),
(254,46,l),
(224,33,o),
(185,30,o),
(166,30,c),
(166,0,l)
);
},
{
closed = 1;
nodes = (
(184,822,o),
(198,847,o),
(237,850,cs),
(286,852,o),
(311,796,o),
(379,800,cs),
(430,803,o),
(469,867,o),
(486,903,c),
(465,914,l),
(447,885,o),
(433,861,o),
(394,859,cs),
(346,857,o),
(321,912,o),
(252,908,cs),
(201,906,o),
(162,842,o),
(145,805,c),
(166,794,l)
);
}
);
width = 586;
}
);
},
{
glyphname = Z.ss01;
kernLeft = Z;
kernRight = Z;
lastChange = "2023-06-14 19:43:19 +0000";
layers = (
{
layerId = "6D97EE47-94AA-478E-ABFB-936E6C32B491";
shapes = (
{
closed = 1;
nodes = (
(522,0,l),
(561,167,l),
(530,175,l),
(527,164,o),
(508,118,o),
(486,80,c),
(125,80,l),
(521,669,l),
(504,707,l),
(43,707,l),
(36,536,l),
(68,534,l),
(74,565,o),
(79,596,o),
(87,629,c),
(422,629,l),
(25,38,l),
(40,0,l)
);
}
);
width = 586;
}
);
metricLeft = Z;
metricRight = Z;
},
{
glyphname = Zacute.ss01;
kernLeft = Z;
kernRight = Z;
lastChange = "2023-06-14 19:43:19 +0000";
layers = (
{
layerId = "6D97EE47-94AA-478E-ABFB-936E6C32B491";
shapes = (
{
closed = 1;
nodes = (
(522,0,l),
(561,167,l),
(530,175,l),
(527,164,o),
(508,118,o),
(486,80,c),
(125,80,l),
(521,669,l),
(504,707,l),
(43,707,l),
(36,536,l),
(68,534,l),
(74,565,o),
(79,596,o),
(87,629,c),
(422,629,l),
(25,38,l),
(40,0,l)
);
},
{
closed = 1;
nodes = (
(460,864,l),
(425,924,l),
(219,805,l),
(233,781,l)
);
}
);
width = 586;
}
);
},
{
glyphname = Zcaron.ss01;
kernLeft = Z;
kernRight = Z;
lastChange = "2023-06-14 19:43:19 +0000";
layers = (
{
layerId = "6D97EE47-94AA-478E-ABFB-936E6C32B491";
shapes = (
{
closed = 1;
nodes = (
(522,0,l),
(561,167,l),
(530,175,l),
(527,164,o),
(508,118,o),
(486,80,c),
(125,80,l),
(521,669,l),
(504,707,l),
(43,707,l),
(36,536,l),
(68,534,l),
(74,565,o),
(79,596,o),
(87,629,c),
(422,629,l),
(25,38,l),
(40,0,l)
);
},
{
closed = 1;
nodes = (
(294,796,l),
(455,932,l),
(436,955,l),
(282,867,l),
(128,955,l),
(109,932,l),
(270,796,l)
);
}
);
width = 586;
}
);
},
{
glyphname = Zcircumflex.ss01;
kernLeft = Z;
kernRight = Z;
lastChange = "2023-06-14 19:43:19 +0000";
layers = (
{
layerId = "6D97EE47-94AA-478E-ABFB-936E6C32B491";
shapes = (
{
closed = 1;
nodes = (
(522,0,l),
(561,167,l),
(530,175,l),
(527,164,o),
(508,118,o),
(486,80,c),
(125,80,l),
(521,669,l),
(504,707,l),
(43,707,l),
(36,536,l),
(68,534,l),
(74,565,o),
(79,596,o),
(87,629,c),
(422,629,l),
(25,38,l),
(40,0,l)
);
},
{
closed = 1;
nodes = (
(279,877,l),
(433,789,l),
(452,812,l),
(291,948,l),
(267,948,l),
(106,812,l),
(125,789,l)
);
}
);
width = 586;
}
);
},
{
glyphname = Zdotaccent.ss01;
kernLeft = Z;
kernRight = Z;
lastChange = "2023-06-14 19:43:19 +0000";
layers = (
{
layerId = "6D97EE47-94AA-478E-ABFB-936E6C32B491";
shapes = (
{
closed = 1;
nodes = (
(522,0,l),
(561,167,l),
(530,175,l),
(527,164,o),
(508,118,o),
(486,80,c),
(125,80,l),
(521,669,l),
(504,707,l),
(43,707,l),
(36,536,l),
(68,534,l),
(74,565,o),
(79,596,o),
(87,629,c),
(422,629,l),
(25,38,l),
(40,0,l)
);
},
{
closed = 1;
nodes = (
(311,800,o),
(335,826,o),
(335,856,cs),
(335,887,o),
(311,911,o),
(279,911,cs),
(247,911,o),
(224,884,o),
(224,855,cs),
(224,824,o),
(247,800,o),
(279,800,cs)
);
}
);
width = 586;
}
);
},
{
glyphname = A.ss10;
lastChange = "2023-06-14 19:43:19 +0000";
layers = (
{
layerId = "6D97EE47-94AA-478E-ABFB-936E6C32B491";
shapes = (
{
closed = 1;
nodes = (
(1305,-440,l),
(1305,1117,l),
(100,1117,l),
(100,-440,l)
);
},
{
closed = 1;
nodes = (
(180,1037,l),
(1225,1037,l),
(1225,-360,l),
(180,-360,l)
);
},
{
closed = 1;
nodes = (
(1201,-336,l),
(1201,1013,l),
(204,1013,l),
(204,-336,l)
);
},
{
closed = 1;
nodes = (
(344,30,l),
(359,30,o),
(390,33,o),
(415,45,c),
(667,665,l),
(652,707,l),
(734,737,l),
(985,46,l),
(1011,33,o),
(1045,30,o),
(1061,30,c),
(1061,0,l),
(804,0,l),
(804,30,l),
(823,30,o),
(862,33,o),
(892,46,c),
(818,249,l),
(556,249,l),
(473,46,l),
(503,33,o),
(542,30,o),
(561,30,c),
(561,0,l),
(344,0,l)
);
},
{
closed = 1;
nodes = (
(800,300,l),
(695,589,l),
(577,300,l)
);
}
);
width = 1405;
}
);
},
{
glyphname = B.ss10;
lastChange = "2023-06-14 19:43:19 +0000";
layers = (
{
layerId = "6D97EE47-94AA-478E-ABFB-936E6C32B491";
shapes = (
{
closed = 1;
nodes = (
(1138,-440,l),
(1138,1117,l),
(100,1117,l),
(100,-440,l)
);
},
{
closed = 1;
nodes = (
(732,43,o),
(803,89,o),
(803,175,cs),
(803,249,o),
(757,310,o),
(686,334,cs),
(632,354,o),
(569,349,o),
(519,349,c),
(519,69,l),
(536,54,o),
(583,43,o),
(632,43,cs)
);
},
{
closed = 1;
nodes = (
(180,1037,l),
(1058,1037,l),
(1058,-360,l),
(180,-360,l)
);
},
{
closed = 1;
nodes = (
(1034,-336,l),
(1034,1013,l),
(204,1013,l),
(204,-336,l)
);
},
{
closed = 1;
nodes = (
(344,30,l),
(363,30,o),
(402,33,o),
(432,46,c),
(432,663,l),
(402,672,o),
(365,670,o),
(347,669,c),
(344,699,l),
(432,710,o),
(521,721,o),
(605,721,cs),
(660,721,o),
(714,714,o),
(754,690,cs),
(801,662,o),
(827,613,o),
(827,558,cs),
(827,490,o),
(785,424,o),
(730,398,c),
(817,370,o),
(894,292,o),
(894,198,cs),
(894,105,o),
(817,0,o),
(654,0,cs),
(344,0,l)
);
},
{
closed = 1;
nodes = (
(543,394,o),
(643,388,o),
(690,419,cs),
(722,439,o),
(743,483,o),
(743,531,cs),
(743,650,o),
(653,687,o),
(519,668,c),
(519,395,l)
);
}
);
width = 1238;
}
);
},
{
glyphname = C.ss10;
lastChange = "2023-06-14 19:43:19 +0000";
layers = (
{
layerId = "6D97EE47-94AA-478E-ABFB-936E6C32B491";
shapes = (
{
closed = 1;
nodes = (
(1253,-440,l),
(1253,1117,l),
(100,1117,l),
(100,-440,l)
);
},
{
closed = 1;
nodes = (
(180,1037,l),
(1173,1037,l),
(1173,-360,l),
(180,-360,l)
);
},
{
closed = 1;
nodes = (
(1149,-336,l),
(1149,1013,l),
(204,1013,l),
(204,-336,l)
);
},
{
closed = 1;
nodes = (
(511,-14,o),
(344,135,o),
(344,350,cs),
(344,560,o),
(515,722,o),
(725,722,cs),
(817,722,o),
(899,701,o),
(946,688,c),
(966,546,l),
(936,540,l),
(900,635,o),
(814,673,o),
(719,673,cs),
(548,673,o),
(439,549,o),
(439,380,cs),
(439,197,o),
(578,33,o),
(746,33,cs),
(857,33,o),
(920,83,o),
(979,176,c),
(1009,161,l),
(931,13,l),
(862,-5,o),
(799,-14,o),
(742,-14,cs)
);
}
);
width = 1353;
}
);
},
{
glyphname = D.ss10;
lastChange = "2023-06-14 19:43:19 +0000";
layers = (
{
layerId = "6D97EE47-94AA-478E-ABFB-936E6C32B491";
shapes = (
{
closed = 1;
nodes = (
(1320,-440,l),
(1320,1117,l),
(100,1117,l),
(100,-440,l)
);
},
{
closed = 1;
nodes = (
(180,1037,l),
(1240,1037,l),
(1240,-360,l),
(180,-360,l)
);
},
{
closed = 1;
nodes = (
(1216,-336,l),
(1216,1013,l),
(204,1013,l),
(204,-336,l)
);
},
{
closed = 1;
nodes = (
(344,30,l),
(363,30,o),
(402,33,o),
(432,46,c),
(432,663,l),
(402,672,o),
(365,670,o),
(347,669,c),
(344,699,l),
(434,711,o),
(531,721,o),
(626,721,cs),
(884,721,o),
(1076,597,o),
(1076,364,cs),
(1076,203,o),
(952,62,o),
(789,19,cs),
(745,7,o),
(667,0,o),
(604,0,cs),
(344,0,l)
);
},
{
closed = 1;
nodes = (
(842,47,o),
(978,157,o),
(978,337,cs),
(978,575,o),
(774,705,o),
(519,668,c),
(519,69,l),
(553,56,o),
(596,47,o),
(647,47,cs)
);
}
);
width = 1420;
}
);
},
{
glyphname = E.ss10;
lastChange = "2023-06-14 19:43:19 +0000";
layers = (
{
layerId = "6D97EE47-94AA-478E-ABFB-936E6C32B491";
shapes = (
{
closed = 1;
nodes = (
(1111,-440,l),
(1111,1117,l),
(100,1117,l),
(100,-440,l)
);
},
{
closed = 1;
nodes = (
(180,1037,l),
(1031,1037,l),
(1031,-360,l),
(180,-360,l)
);
},
{
closed = 1;
nodes = (
(1007,-336,l),
(1007,1013,l),
(204,1013,l),
(204,-336,l)
);
},
{
closed = 1;
nodes = (
(344,30,l),
(363,30,o),
(402,33,o),
(432,46,c),
(432,661,l),
(402,674,o),
(363,677,o),
(344,677,c),
(344,707,l),
(809,707,l),
(814,571,l),
(782,569,l),
(780,592,o),
(775,626,o),
(762,656,c),
(519,656,l),
(519,393,l),
(728,393,l),
(735,419,o),
(737,447,o),
(737,463,c),
(769,463,l),
(769,263,l),
(737,263,l),
(737,280,o),
(735,314,o),
(725,342,c),
(519,342,l),
(519,51,l),
(782,51,l),
(808,85,o),
(832,146,o),
(835,159,c),
(867,151,l),
(834,0,l),
(344,0,l)
);
}
);
width = 1211;
}
);
},
{
glyphname = F.ss10;
lastChange = "2023-06-14 19:43:19 +0000";
layers = (
{
layerId = "6D97EE47-94AA-478E-ABFB-936E6C32B491";
shapes = (
{
closed = 1;
nodes = (
(1058,-440,l),
(1058,1117,l),
(100,1117,l),
(100,-440,l)
);
},
{
closed = 1;
nodes = (
(180,1037,l),
(978,1037,l),
(978,-360,l),
(180,-360,l)
);
},
{
closed = 1;
nodes = (
(954,-336,l),
(954,1013,l),
(204,1013,l),
(204,-336,l)
);
},
{
closed = 1;
nodes = (
(344,30,l),
(363,30,o),
(402,33,o),
(432,46,c),
(432,661,l),
(402,674,o),
(363,677,o),
(344,677,c),
(344,707,l),
(809,707,l),
(814,571,l),
(782,569,l),
(780,592,o),
(775,626,o),
(762,656,c),
(519,656,l),
(519,382,l),
(724,382,l),
(732,408,o),
(734,437,o),
(734,452,c),
(764,452,l),
(764,252,l),
(734,252,l),
(734,269,o),
(732,303,o),
(722,331,c),
(519,331,l),
(519,46,l),
(552,33,o),
(595,30,o),
(616,30,c),
(616,0,l),
(344,0,l)
);
}
);
width = 1158;
}
);
},
{
glyphname = G.ss10;
lastChange = "2023-06-14 19:43:19 +0000";
layers = (
{
layerId = "6D97EE47-94AA-478E-ABFB-936E6C32B491";
shapes = (
{
closed = 1;
nodes = (
(1297,-440,l),
(1297,1117,l),
(100,1117,l),
(100,-440,l)
);
},
{
closed = 1;
nodes = (
(180,1037,l),
(1217,1037,l),
(1217,-360,l),
(180,-360,l)
);
},
{
closed = 1;
nodes = (
(1193,-336,l),
(1193,1013,l),
(204,1013,l),
(204,-336,l)
);
},
{
closed = 1;
nodes = (
(514,-14,o),
(344,129,o),
(344,349,cs),
(344,563,o),
(515,721,o),
(728,721,cs),
(828,721,o),
(921,700,o),
(967,687,c),
(988,545,l),
(958,539,l),
(922,634,o),
(825,673,o),
(729,673,cs),
(549,673,o),
(439,552,o),
(439,380,cs),
(439,192,o),
(582,31,o),
(757,31,cs),
(805,31,o),
(856,43,o),
(911,70,c),
(911,221,l),
(881,234,o),
(841,237,o),
(823,237,c),
(823,269,l),
(1053,269,l),
(1053,237,l),
(1037,237,o),
(1009,228,o),
(998,221,c),
(998,76,l),
(1002,67,o),
(1014,57,o),
(1024,52,c),
(1024,17,l),
(940,13,o),
(857,-14,o),
(752,-14,cs)
);
}
);
width = 1397;
}
);
},
{
glyphname = H.ss10;
lastChange = "2023-06-14 19:43:19 +0000";
layers = (
{
layerId = "6D97EE47-94AA-478E-ABFB-936E6C32B491";
shapes = (
{
closed = 1;
nodes = (
(1338,-440,l),
(1338,1117,l),
(100,1117,l),
(100,-440,l)
);
},
{
closed = 1;
nodes = (
(180,1037,l),
(1258,1037,l),
(1258,-360,l),
(180,-360,l)
);
},
{
closed = 1;
nodes = (
(1234,-336,l),
(1234,1013,l),
(204,1013,l),
(204,-336,l)
);
},
{
closed = 1;
nodes = (
(344,30,l),
(363,30,o),
(402,33,o),
(432,46,c),
(432,661,l),
(402,674,o),
(363,677,o),
(344,677,c),
(344,707,l),
(607,707,l),
(607,677,l),
(588,677,o),
(549,674,o),
(519,661,c),
(519,399,l),
(919,399,l),
(919,661,l),
(889,674,o),
(850,677,o),
(831,677,c),
(831,707,l),
(1094,707,l),
(1094,677,l),
(1075,677,o),
(1036,674,o),
(1006,661,c),
(1006,46,l),
(1036,33,o),
(1075,30,o),
(1094,30,c),
(1094,0,l),
(831,0,l),
(831,30,l),
(850,30,o),
(889,33,o),
(919,46,c),
(919,348,l),
(519,348,l),
(519,46,l),
(549,33,o),
(588,30,o),
(607,30,c),
(607,0,l),
(344,0,l)
);
}
);
width = 1438;
}
);
},
{
glyphname = I.ss10;
lastChange = "2023-06-14 19:43:19 +0000";
layers = (
{
layerId = "6D97EE47-94AA-478E-ABFB-936E6C32B491";
shapes = (
{
closed = 1;
nodes = (
(851,-440,l),
(851,1117,l),
(100,1117,l),
(100,-440,l)
);
},
{
closed = 1;
nodes = (
(180,1037,l),
(771,1037,l),
(771,-360,l),
(180,-360,l)
);
},
{
closed = 1;
nodes = (
(747,-336,l),
(747,1013,l),
(204,1013,l),
(204,-336,l)
);
},
{
closed = 1;
nodes = (
(344,30,l),
(363,30,o),
(402,33,o),
(432,46,c),
(432,661,l),
(402,674,o),
(363,677,o),
(344,677,c),
(344,707,l),
(607,707,l),
(607,677,l),
(588,677,o),
(549,674,o),
(519,661,c),
(519,46,l),
(549,33,o),
(588,30,o),
(607,30,c),
(607,0,l),
(344,0,l)
);
}
);
width = 951;
}
);
},
{
glyphname = J.ss10;
lastChange = "2023-06-14 19:43:19 +0000";
layers = (
{
layerId = "6D97EE47-94AA-478E-ABFB-936E6C32B491";
shapes = (
{
closed = 1;
nodes = (
(894,-440,l),
(894,1117,l),
(100,1117,l),
(100,-440,l)
);
},
{
closed = 1;
nodes = (
(344,-163,l),
(381,-130,o),
(439,-54,o),
(464,41,cs),
(471,67,o),
(474,94,o),
(474,120,cs),
(474,661,l),
(444,674,o),
(405,677,o),
(386,677,c),
(386,707,l),
(650,707,l),
(650,677,l),
(631,677,o),
(592,674,o),
(562,661,c),
(562,100,l),
(519,-75,o),
(390,-171,o),
(366,-186,c)
);
},
{
closed = 1;
nodes = (
(180,1037,l),
(814,1037,l),
(814,-360,l),
(180,-360,l)
);
},
{
closed = 1;
nodes = (
(790,-336,l),
(790,1013,l),
(204,1013,l),
(204,-336,l)
);
}
);
width = 994;
}
);
},
{
glyphname = K.ss10;
lastChange = "2023-06-14 19:43:19 +0000";
layers = (
{
layerId = "6D97EE47-94AA-478E-ABFB-936E6C32B491";
shapes = (
{
closed = 1;
nodes = (
(1250,-440,l),
(1250,1117,l),
(100,1117,l),
(100,-440,l)
);
},
{
closed = 1;
nodes = (
(344,30,l),
(363,30,o),
(402,33,o),
(432,46,c),
(432,661,l),
(402,674,o),
(363,677,o),
(344,677,c),
(344,707,l),
(607,707,l),
(607,677,l),
(588,677,o),
(549,674,o),
(519,661,c),
(519,46,l),
(550,33,o),
(591,30,o),
(611,30,c),
(611,0,l),
(344,0,l)
);
},
{
closed = 1;
nodes = (
(180,1037,l),
(1170,1037,l),
(1170,-360,l),
(180,-360,l)
);
},
{
closed = 1;
nodes = (
(1146,-336,l),
(1146,1013,l),
(204,1013,l),
(204,-336,l)
);
},
{
closed = 1;
nodes = (
(862,-29,o),
(819,7,o),
(763,65,cs),
(712,117,o),
(569,331,o),
(537,373,c),
(806,661,l),
(781,674,o),
(749,677,o),
(734,677,c),
(734,707,l),
(962,707,l),
(962,677,l),
(943,677,o),
(905,674,o),
(875,661,c),
(625,392,l),
(668,333,o),
(769,197,o),
(832,127,cs),
(885,68,o),
(917,27,o),
(1006,0,c),
(999,-30,l)
);
}
);
width = 1350;
}
);
},
{
glyphname = L.ss10;
lastChange = "2023-06-14 19:43:19 +0000";
layers = (
{
layerId = "6D97EE47-94AA-478E-ABFB-936E6C32B491";
shapes = (
{
closed = 1;
nodes = (
(1124,-440,l),
(1124,1117,l),
(100,1117,l),
(100,-440,l)
);
},
{
closed = 1;
nodes = (
(180,1037,l),
(1044,1037,l),
(1044,-360,l),
(180,-360,l)
);
},
{
closed = 1;
nodes = (
(1020,-336,l),
(1020,1013,l),
(204,1013,l),
(204,-336,l)
);
},
{
closed = 1;
nodes = (
(344,30,l),
(363,30,o),
(402,33,o),
(432,46,c),
(432,661,l),
(402,674,o),
(363,677,o),
(344,677,c),
(344,707,l),
(607,707,l),
(607,677,l),
(588,677,o),
(549,674,o),
(519,661,c),
(519,51,l),
(787,51,l),
(810,77,o),
(841,139,o),
(849,158,c),
(880,148,l),
(834,0,l),
(344,0,l)
);
}
);
width = 1224;
}
);
},
{
glyphname = M.ss10;
lastChange = "2023-06-14 19:43:19 +0000";
layers = (
{
layerId = "6D97EE47-94AA-478E-ABFB-936E6C32B491";
shapes = (
{
closed = 1;
nodes = (
(1447,-440,l),
(1447,1117,l),
(100,1117,l),
(100,-440,l)
);
},
{
closed = 1;
nodes = (
(180,1037,l),
(1367,1037,l),
(1367,-360,l),
(180,-360,l)
);
},
{
closed = 1;
nodes = (
(1343,-336,l),
(1343,1013,l),
(204,1013,l),
(204,-336,l)
);
},
{
closed = 1;
nodes = (
(342,30,l),
(361,30,o),
(400,33,o),
(430,46,c),
(457,661,l),
(427,674,o),
(388,677,o),
(369,677,c),
(369,707,l),
(547,707,l),
(767,169,l),
(1031,707,l),
(1178,707,l),
(1178,677,l),
(1159,677,o),
(1121,674,o),
(1091,661,c),
(1115,46,l),
(1145,33,o),
(1184,30,o),
(1203,30,c),
(1203,0,l),
(939,0,l),
(939,30,l),
(958,30,o),
(997,33,o),
(1027,46,c),
(1008,544,l),
(741,0,l),
(509,568,l),
(486,46,l),
(516,33,o),
(555,30,o),
(574,30,c),
(574,0,l),
(342,0,l)
);
}
);
width = 1547;
}
);
},
{
glyphname = N.ss10;
lastChange = "2023-06-14 19:43:19 +0000";
layers = (
{
layerId = "6D97EE47-94AA-478E-ABFB-936E6C32B491";
shapes = (
{
closed = 1;
nodes = (
(1314,-440,l),
(1314,1117,l),
(100,1117,l),
(100,-440,l)
);
},
{
closed = 1;
nodes = (
(180,1037,l),
(1234,1037,l),
(1234,-360,l),
(180,-360,l)
);
},
{
closed = 1;
nodes = (
(1210,-336,l),
(1210,1013,l),
(204,1013,l),
(204,-336,l)
);
},
{
closed = 1;
nodes = (
(488,582,l),
(488,46,l),
(518,33,o),
(557,30,o),
(576,30,c),
(576,0,l),
(344,0,l),
(344,30,l),
(363,30,o),
(402,33,o),
(432,46,c),
(432,661,l),
(402,674,o),
(363,677,o),
(344,677,c),
(344,707,l),
(503,707,l),
(926,147,l),
(926,661,l),
(896,674,o),
(857,677,o),
(838,677,c),
(838,707,l),
(1070,707,l),
(1070,677,l),
(1051,677,o),
(1012,674,o),
(982,661,c),
(982,-14,l),
(937,-14,l)
);
}
);
width = 1414;
}
);
},
{
glyphname = O.ss10;
lastChange = "2023-06-14 19:43:19 +0000";
layers = (
{
layerId = "6D97EE47-94AA-478E-ABFB-936E6C32B491";
shapes = (
{
closed = 1;
nodes = (
(1332,-440,l),
(1332,1117,l),
(100,1117,l),
(100,-440,l)
);
},
{
closed = 1;
nodes = (
(180,1037,l),
(1252,1037,l),
(1252,-360,l),
(180,-360,l)
);
},
{
closed = 1;
nodes = (
(1228,-336,l),
(1228,1013,l),
(204,1013,l),
(204,-336,l)
);
},
{
closed = 1;
nodes = (
(509,-14,o),
(344,146,o),
(344,348,cs),
(344,553,o),
(512,721,o),
(718,721,cs),
(921,721,o),
(1088,562,o),
(1088,360,cs),
(1088,155,o),
(919,-14,o),
(713,-14,cs)
);
},
{
closed = 1;
nodes = (
(890,41,o),
(996,165,o),
(996,319,cs),
(996,496,o),
(860,667,o),
(689,667,cs),
(542,667,o),
(435,544,o),
(435,390,cs),
(435,215,o),
(570,41,o),
(743,41,cs)
);
}
);
width = 1432;
}
);
},
{
glyphname = P.ss10;
lastChange = "2023-06-14 19:43:19 +0000";
layers = (
{
layerId = "6D97EE47-94AA-478E-ABFB-936E6C32B491";
shapes = (
{
closed = 1;
nodes = (
(1118,-440,l),
(1118,1117,l),
(100,1117,l),
(100,-440,l)
);
},
{
closed = 1;
nodes = (
(180,1037,l),
(1038,1037,l),
(1038,-360,l),
(180,-360,l)
);
},
{
closed = 1;
nodes = (
(1014,-336,l),
(1014,1013,l),
(204,1013,l),
(204,-336,l)
);
},
{
closed = 1;
nodes = (
(344,30,l),
(363,30,o),
(402,33,o),
(432,46,c),
(432,663,l),
(402,672,o),
(365,670,o),
(347,669,c),
(344,699,l),
(432,710,o),
(521,721,o),
(605,721,cs),
(767,721,o),
(874,605,o),
(874,491,cs),
(874,375,o),
(768,261,o),
(581,268,c),
(576,300,l),
(717,309,o),
(781,381,o),
(781,470,cs),
(781,607,o),
(653,689,o),
(519,668,c),
(519,46,l),
(552,33,o),
(595,30,o),
(616,30,c),
(616,0,l),
(344,0,l)
);
}
);
width = 1218;
}
);
},
{
glyphname = Q.ss10;
lastChange = "2023-06-14 19:43:19 +0000";
layers = (
{
layerId = "6D97EE47-94AA-478E-ABFB-936E6C32B491";
shapes = (
{
closed = 1;
nodes = (
(1391,-440,l),
(1391,1117,l),
(100,1117,l),
(100,-440,l)
);
},
{
closed = 1;
nodes = (
(979,-190,o),
(855,-136,o),
(739,-13,c),
(730,-14,o),
(722,-14,o),
(713,-14,cs),
(507,-14,o),
(344,149,o),
(344,348,cs),
(344,553,o),
(513,721,o),
(718,721,cs),
(921,721,o),
(1089,561,o),
(1089,359,cs),
(1089,197,o),
(983,58,o),
(837,7,c),
(925,-90,o),
(1037,-158,o),
(1147,-168,c),
(1144,-200,l)
);
},
{
closed = 1;
nodes = (
(891,41,o),
(996,165,o),
(996,319,cs),
(996,496,o),
(860,667,o),
(689,667,cs),
(541,667,o),
(435,543,o),
(435,390,cs),
(435,216,o),
(570,41,o),
(743,41,cs)
);
},
{
closed = 1;
nodes = (
(180,1037,l),
(1311,1037,l),
(1311,-360,l),
(180,-360,l)
);
},
{
closed = 1;
nodes = (
(1287,-336,l),
(1287,1013,l),
(204,1013,l),
(204,-336,l)
);
}
);
width = 1491;
}
);
},
{
glyphname = R.ss10;
lastChange = "2023-06-14 19:43:19 +0000";
layers = (
{
layerId = "6D97EE47-94AA-478E-ABFB-936E6C32B491";
shapes = (
{
closed = 1;
nodes = (
(1251,-440,l),
(1251,1117,l),
(100,1117,l),
(100,-440,l)
);
},
{
closed = 1;
nodes = (
(180,1037,l),
(1171,1037,l),
(1171,-360,l),
(180,-360,l)
);
},
{
closed = 1;
nodes = (
(1147,-336,l),
(1147,1013,l),
(204,1013,l),
(204,-336,l)
);
},
{
closed = 1;
nodes = (
(860,-20,o),
(813,12,o),
(760,73,cs),
(718,122,o),
(641,265,o),
(603,330,c),
(578,324,o),
(550,320,o),
(519,317,c),
(519,46,l),
(550,33,o),
(591,30,o),
(611,30,c),
(611,0,l),
(344,0,l),
(344,30,l),
(363,30,o),
(402,33,o),
(432,46,c),
(432,663,l),
(402,672,o),
(365,670,o),
(347,669,c),
(344,699,l),
(432,710,o),
(524,721,o),
(599,721,cs),
(733,721,o),
(838,680,o),
(838,548,cs),
(838,482,o),
(798,402,o),
(685,354,c),
(721,289,o),
(782,195,o),
(835,128,cs),
(884,65,o),
(920,33,o),
(1007,0,c),
(998,-29,l)
);
},
{
closed = 1;
nodes = (
(672,359,o),
(751,444,o),
(751,524,cs),
(751,642,o),
(653,685,o),
(519,668,c),
(519,353,l)
);
}
);
width = 1351;
}
);
},
{
glyphname = S.ss10;
lastChange = "2023-06-14 19:43:19 +0000";
layers = (
{
layerId = "6D97EE47-94AA-478E-ABFB-936E6C32B491";
shapes = (
{
closed = 1;
nodes = (
(1045,-440,l),
(1045,1117,l),
(100,1117,l),
(100,-440,l)
);
},
{
closed = 1;
nodes = (
(180,1037,l),
(965,1037,l),
(965,-360,l),
(180,-360,l)
);
},
{
closed = 1;
nodes = (
(941,-336,l),
(941,1013,l),
(204,1013,l),
(204,-336,l)
);
},
{
closed = 1;
nodes = (
(476,-14,o),
(381,15,o),
(375,23,c),
(344,215,l),
(377,221,l),
(403,106,o),
(452,33,o),
(560,33,cs),
(648,33,o),
(710,79,o),
(710,155,cs),
(710,316,o),
(389,334,o),
(389,537,cs),
(389,660,o),
(495,721,o),
(626,721,cs),
(687,721,o),
(739,707,o),
(765,702,c),
(787,540,l),
(754,536,l),
(743,620,o),
(703,675,o),
(619,675,cs),
(542,675,o),
(477,626,o),
(477,560,cs),
(477,402,o),
(801,400,o),
(801,168,cs),
(801,50,o),
(699,-14,o),
(570,-14,cs)
);
}
);
width = 1145;
}
);
},
{
glyphname = T.ss10;
lastChange = "2023-06-14 19:43:19 +0000";
layers = (
{
layerId = "6D97EE47-94AA-478E-ABFB-936E6C32B491";
shapes = (
{
closed = 1;
nodes = (
(1206,-440,l),
(1206,1117,l),
(100,1117,l),
(100,-440,l)
);
},
{
closed = 1;
nodes = (
(180,1037,l),
(1126,1037,l),
(1126,-360,l),
(180,-360,l)
);
},
{
closed = 1;
nodes = (
(1102,-336,l),
(1102,1013,l),
(204,1013,l),
(204,-336,l)
);
},
{
closed = 1;
nodes = (
(521,30,l),
(540,30,o),
(579,33,o),
(609,46,c),
(609,656,l),
(400,656,l),
(388,612,o),
(382,571,o),
(376,531,c),
(344,531,l),
(344,707,l),
(962,707,l),
(936,528,l),
(905,531,l),
(906,570,o),
(907,610,o),
(901,656,c),
(696,656,l),
(696,46,l),
(727,33,o),
(766,30,o),
(785,30,c),
(785,0,l),
(521,0,l)
);
}
);
width = 1306;
}
);
},
{
glyphname = U.ss10;
lastChange = "2023-06-14 19:43:19 +0000";
layers = (
{
layerId = "6D97EE47-94AA-478E-ABFB-936E6C32B491";
shapes = (
{
closed = 1;
nodes = (
(1332,-440,l),
(1332,1117,l),
(100,1117,l),
(100,-440,l)
);
},
{
closed = 1;
nodes = (
(180,1037,l),
(1252,1037,l),
(1252,-360,l),
(180,-360,l)
);
},
{
closed = 1;
nodes = (
(1228,-336,l),
(1228,1013,l),
(204,1013,l),
(204,-336,l)
);
},
{
closed = 1;
nodes = (
(634,-14,o),
(507,18,o),
(457,134,cs),
(433,192,o),
(432,281,o),
(432,384,cs),
(432,661,l),
(402,674,o),
(363,677,o),
(344,677,c),
(344,707,l),
(607,707,l),
(607,677,l),
(588,677,o),
(549,674,o),
(519,661,c),
(519,389,ls),
(519,338,o),
(517,220,o),
(534,166,cs),
(557,97,o),
(629,38,o),
(727,38,cs),
(822,38,o),
(905,76,o),
(931,162,cs),
(947,218,o),
(944,305,o),
(944,400,cs),
(944,661,l),
(914,674,o),
(875,677,o),
(856,677,c),
(856,707,l),
(1088,707,l),
(1088,677,l),
(1069,677,o),
(1030,674,o),
(1000,661,c),
(1000,393,ls),
(1000,306,o),
(1002,199,o),
(982,139,cs),
(941,15,o),
(800,-14,o),
(717,-14,cs)
);
}
);
width = 1432;
}
);
},
{
glyphname = V.ss10;
lastChange = "2023-06-14 19:43:19 +0000";
layers = (
{
layerId = "6D97EE47-94AA-478E-ABFB-936E6C32B491";
shapes = (
{
closed = 1;
nodes = (
(1306,-440,l),
(1306,1117,l),
(100,1117,l),
(100,-440,l)
);
},
{
closed = 1;
nodes = (
(180,1037,l),
(1226,1037,l),
(1226,-360,l),
(180,-360,l)
);
},
{
closed = 1;
nodes = (
(1202,-336,l),
(1202,1013,l),
(204,1013,l),
(204,-336,l)
);
},
{
closed = 1;
nodes = (
(423,661,l),
(396,674,o),
(361,677,o),
(344,677,c),
(344,707,l),
(605,707,l),
(605,677,l),
(586,677,o),
(547,674,o),
(517,661,c),
(717,124,l),
(937,661,l),
(907,674,o),
(868,677,o),
(849,677,c),
(849,707,l),
(1062,707,l),
(1062,677,l),
(1047,677,o),
(1016,674,o),
(992,661,c),
(716,-14,l),
(675,-14,l)
);
}
);
width = 1406;
}
);
},
{
glyphname = W.ss10;
lastChange = "2023-06-14 19:43:19 +0000";
layers = (
{
layerId = "6D97EE47-94AA-478E-ABFB-936E6C32B491";
shapes = (
{
closed = 1;
nodes = (
(1557,-440,l),
(1557,1117,l),
(100,1117,l),
(100,-440,l)
);
},
{
closed = 1;
nodes = (
(180,1037,l),
(1477,1037,l),
(1477,-360,l),
(180,-360,l)
);
},
{
closed = 1;
nodes = (
(1453,-336,l),
(1453,1013,l),
(204,1013,l),
(204,-336,l)
);
},
{
closed = 1;
nodes = (
(420,661,l),
(394,674,o),
(360,677,o),
(344,677,c),
(344,707,l),
(598,707,l),
(598,677,l),
(579,677,o),
(540,674,o),
(511,661,c),
(645,143,l),
(839,619,l),
(880,619,l),
(1064,152,l),
(1188,661,l),
(1159,674,o),
(1120,677,o),
(1101,677,c),
(1101,707,l),
(1313,707,l),
(1313,677,l),
(1298,677,o),
(1266,674,o),
(1241,661,c),
(1075,-14,l),
(1034,-14,l),
(839,484,l),
(636,-14,l),
(595,-14,l)
);
}
);
width = 1657;
}
);
},
{
glyphname = X.ss10;
lastChange = "2023-06-14 19:43:19 +0000";
layers = (
{
layerId = "6D97EE47-94AA-478E-ABFB-936E6C32B491";
shapes = (
{
closed = 1;
nodes = (
(1255,-440,l),
(1255,1117,l),
(100,1117,l),
(100,-440,l)
);
},
{
closed = 1;
nodes = (
(180,1037,l),
(1175,1037,l),
(1175,-360,l),
(180,-360,l)
);
},
{
closed = 1;
nodes = (
(1151,-336,l),
(1151,1013,l),
(204,1013,l),
(204,-336,l)
);
},
{
closed = 1;
nodes = (
(344,30,l),
(359,30,o),
(391,33,o),
(416,46,c),
(629,352,l),
(428,662,l),
(402,674,o),
(368,677,o),
(352,677,c),
(352,707,l),
(622,707,l),
(622,677,l),
(603,677,o),
(564,674,o),
(534,661,c),
(688,424,l),
(855,661,l),
(825,674,o),
(786,677,o),
(767,677,c),
(767,707,l),
(989,707,l),
(989,677,l),
(974,677,o),
(942,674,o),
(918,661,c),
(719,377,l),
(934,46,l),
(960,33,o),
(994,30,o),
(1011,30,c),
(1011,0,l),
(741,0,l),
(741,30,l),
(760,30,o),
(798,33,o),
(828,46,c),
(660,305,l),
(479,46,l),
(509,33,o),
(548,30,o),
(567,30,c),
(567,0,l),
(344,0,l)
);
}
);
width = 1355;
}
);
},
{
glyphname = Y.ss10;
lastChange = "2023-06-14 19:43:19 +0000";
layers = (
{
layerId = "6D97EE47-94AA-478E-ABFB-936E6C32B491";
shapes = (
{
closed = 1;
nodes = (
(1232,-440,l),
(1232,1117,l),
(100,1117,l),
(100,-440,l)
);
},
{
closed = 1;
nodes = (
(180,1037,l),
(1152,1037,l),
(1152,-360,l),
(180,-360,l)
);
},
{
closed = 1;
nodes = (
(1128,-336,l),
(1128,1013,l),
(204,1013,l),
(204,-336,l)
);
},
{
closed = 1;
nodes = (
(542,30,l),
(561,30,o),
(600,33,o),
(630,46,c),
(630,282,l),
(420,661,l),
(394,674,o),
(360,677,o),
(344,677,c),
(344,707,l),
(608,707,l),
(608,677,l),
(589,677,o),
(551,674,o),
(521,661,c),
(689,357,l),
(859,661,l),
(829,674,o),
(790,677,o),
(771,677,c),
(771,707,l),
(988,707,l),
(988,677,l),
(973,677,o),
(942,674,o),
(917,662,c),
(718,303,l),
(718,46,l),
(748,33,o),
(787,30,o),
(806,30,c),
(806,0,l),
(542,0,l)
);
}
);
width = 1332;
}
);
},
{
glyphname = Z.ss10;
lastChange = "2023-06-14 19:43:19 +0000";
layers = (
{
layerId = "6D97EE47-94AA-478E-ABFB-936E6C32B491";
shapes = (
{
closed = 1;
nodes = (
(1158,-440,l),
(1158,1117,l),
(100,1117,l),
(100,-440,l)
);
},
{
closed = 1;
nodes = (
(180,1037,l),
(1078,1037,l),
(1078,-360,l),
(180,-360,l)
);
},
{
closed = 1;
nodes = (
(1054,-336,l),
(1054,1013,l),
(204,1013,l),
(204,-336,l)
);
},
{
closed = 1;
nodes = (
(344,38,l),
(759,656,l),
(413,656,l),
(401,613,o),
(395,574,o),
(387,534,c),
(355,536,l),
(362,707,l),
(857,707,l),
(874,669,l),
(458,51,l),
(819,51,l),
(850,90,o),
(879,161,o),
(883,175,c),
(914,167,l),
(875,0,l),
(359,0,l)
);
}
);
width = 1258;
}
);
},
{
glyphname = Zacute.loclPLK.ss01;
kernLeft = Z;
kernRight = Z;
lastChange = "2023-06-14 19:43:19 +0000";
layers = (
{
layerId = "6D97EE47-94AA-478E-ABFB-936E6C32B491";
shapes = (
{
closed = 1;
nodes = (
(522,0,l),
(561,167,l),
(530,175,l),
(527,164,o),
(508,118,o),
(486,80,c),
(125,80,l),
(521,669,l),
(504,707,l),
(43,707,l),
(36,536,l),
(68,534,l),
(74,565,o),
(79,596,o),
(87,629,c),
(422,629,l),
(25,38,l),
(40,0,l)
);
},
{
closed = 1;
nodes = (
(394,970,l),
(322,996,l),
(248,792,l),
(279,780,l)
);
}
);
width = 586;
}
);
},
{
glyphname = T_T.liga;
kernLeft = T;
kernRight = T;
lastChange = "2023-06-14 19:43:19 +0000";
layers = (
{
layerId = "6D97EE47-94AA-478E-ABFB-936E6C32B491";
shapes = (
{
closed = 1;
nodes = (
(451,0,l),
(451,30,l),
(432,30,o),
(393,33,o),
(363,46,c),
(363,656,l),
(548,656,l),
(548,531,l),
(580,531,l),
(586,571,o),
(592,612,o),
(604,656,c),
(774,656,l),
(774,46,l),
(744,33,o),
(705,30,o),
(686,30,c),
(686,0,l),
(949,0,l),
(949,30,l),
(930,30,o),
(891,33,o),
(861,46,c),
(861,656,l),
(1068,656,l),
(1074,610,o),
(1073,570,o),
(1072,531,c),
(1103,528,l),
(1129,707,l),
(10,707,l),
(10,531,l),
(42,531,l),
(48,571,o),
(54,612,o),
(66,656,c),
(275,656,l),
(275,46,l),
(245,33,o),
(206,30,o),
(187,30,c),
(187,0,l)
);
}
);
width = 1139;
}
);
metricLeft = T;
metricRight = T;
},
{
glyphname = T_h.liga;
kernLeft = T;
kernRight = h;
lastChange = "2023-06-14 19:43:19 +0000";
layers = (
{
layerId = "6D97EE47-94AA-478E-ABFB-936E6C32B491";
shapes = (
{
closed = 1;
nodes = (
(451,0,l),
(451,30,l),
(432,30,o),
(393,33,o),
(363,46,c),
(363,656,l),
(600,656,l),
(600,46,l),
(573,33,o),
(538,30,o),
(521,30,c),
(521,0,l),
(760,0,l),
(760,30,l),
(743,30,o),
(708,33,o),
(681,46,c),
(681,341,l),
(711,365,o),
(759,402,o),
(815,402,cs),
(845,402,o),
(871,390,o),
(886,366,cs),
(899,344,o),
(900,322,o),
(900,289,cs),
(900,46,l),
(873,33,o),
(838,30,o),
(821,30,c),
(821,0,l),
(1060,0,l),
(1060,30,l),
(1043,30,o),
(1008,33,o),
(981,46,c),
(981,314,ls),
(981,374,o),
(964,409,o),
(940,431,cs),
(909,459,o),
(876,464,o),
(852,464,cs),
(793,464,o),
(726,417,o),
(681,384,c),
(681,789,l),
(600,765,l),
(600,707,l),
(10,707,l),
(10,531,l),
(42,531,l),
(48,571,o),
(54,612,o),
(66,656,c),
(275,656,l),
(275,46,l),
(245,33,o),
(206,30,o),
(187,30,c),
(187,0,l)
);
}
);
width = 1082;
}
);
metricLeft = T;
metricRight = h;
},
{
glyphname = a;
kernLeft = a;
kernRight = a;
lastChange = "2023-06-14 19:43:19 +0000";
layers = (
{
layerId = "6D97EE47-94AA-478E-ABFB-936E6C32B491";
shapes = (
{
closed = 1;
nodes = (
(197,-8,o),
(231,20,o),
(274,45,c),
(279,15,o),
(301,-8,o),
(337,-8,cs),
(370,-8,o),
(397,5,o),
(421,22,c),
(409,48,l),
(397,44,o),
(375,39,o),
(362,48,cs),
(348,58,o),
(349,69,o),
(349,107,cs),
(349,363,ls),
(349,432,o),
(302,464,o),
(233,464,cs),
(136,464,o),
(52,405,o),
(55,299,c),
(135,331,l),
(127,381,o),
(160,420,o),
(208,420,cs),
(234,420,o),
(252,407,o),
(260,394,cs),
(269,379,o),
(270,365,o),
(270,339,cs),
(270,262,l),
(215,243,o),
(69,191,o),
(46,179,c),
(37,162,o),
(32,136,o),
(32,111,cs),
(32,40,o),
(82,-8,o),
(152,-8,cs)
);
},
{
closed = 1;
nodes = (
(130,54,o),
(100,97,o),
(114,156,c),
(130,165,o),
(209,197,o),
(270,218,c),
(270,80,l),
(232,61,o),
(203,54,o),
(182,54,cs)
);
}
);
width = 443;
}
);
metricRight = "=n";
unicode = 97;
},
{
glyphname = aacute;
kernLeft = a;
kernRight = a;
lastChange = "2023-06-14 19:43:19 +0000";
layers = (
{
layerId = "6D97EE47-94AA-478E-ABFB-936E6C32B491";
shapes = (
{
closed = 1;
nodes = (
(197,-8,o),
(231,20,o),
(274,45,c),
(279,15,o),
(301,-8,o),
(337,-8,cs),
(370,-8,o),
(397,5,o),
(421,22,c),
(409,48,l),
(397,44,o),
(375,39,o),
(362,48,cs),
(348,58,o),
(349,69,o),
(349,107,cs),
(349,363,ls),
(349,432,o),
(302,464,o),
(233,464,cs),
(136,464,o),
(52,405,o),
(55,299,c),
(135,331,l),
(127,381,o),
(160,420,o),
(208,420,cs),
(234,420,o),
(252,407,o),
(260,394,cs),
(269,379,o),
(270,365,o),
(270,339,cs),
(270,262,l),
(215,243,o),
(69,191,o),
(46,179,c),
(37,162,o),
(32,136,o),
(32,111,cs),
(32,40,o),
(82,-8,o),
(152,-8,cs)
);
},
{
closed = 1;
nodes = (
(130,54,o),
(100,97,o),
(114,156,c),
(130,165,o),
(209,197,o),
(270,218,c),
(270,80,l),
(232,61,o),
(203,54,o),
(182,54,cs)
);
},
{
closed = 1;
nodes = (
(372,673,l),
(314,721,l),
(161,539,l),
(187,517,l)
);
}
);
width = 443;
}
);
unicode = 225;
},
{
glyphname = abreve;
kernLeft = a;
kernRight = a;
lastChange = "2023-06-14 19:43:19 +0000";
layers = (
{
layerId = "6D97EE47-94AA-478E-ABFB-936E6C32B491";
shapes = (
{
closed = 1;
nodes = (
(197,-8,o),
(231,20,o),
(274,45,c),
(279,15,o),
(301,-8,o),
(337,-8,cs),
(370,-8,o),
(397,5,o),
(421,22,c),
(409,48,l),
(397,44,o),
(375,39,o),
(362,48,cs),
(348,58,o),
(349,69,o),
(349,107,cs),
(349,363,ls),
(349,432,o),
(302,464,o),
(233,464,cs),
(136,464,o),
(52,405,o),
(55,299,c),
(135,331,l),
(127,381,o),
(160,420,o),
(208,420,cs),
(234,420,o),
(252,407,o),
(260,394,cs),
(269,379,o),
(270,365,o),
(270,339,cs),
(270,262,l),
(215,243,o),
(69,191,o),
(46,179,c),
(37,162,o),
(32,136,o),
(32,111,cs),
(32,40,o),
(82,-8,o),
(152,-8,cs)
);
},
{
closed = 1;
nodes = (
(130,54,o),
(100,97,o),
(114,156,c),
(130,165,o),
(209,197,o),
(270,218,c),
(270,80,l),
(232,61,o),
(203,54,o),
(182,54,cs)
);
},
{
closed = 1;
nodes = (
(278,560,o),
(329,600,o),
(352,682,c),
(327,690,l),
(305,642,o),
(264,626,o),
(211,626,cs),
(156,626,o),
(118,642,o),
(95,690,c),
(70,682,l),
(92,600,o),
(145,558,o),
(211,559,cs)
);
}
);
width = 443;
}
);
unicode = 259;
},
{
glyphname = acircumflex;
kernLeft = a;
kernRight = a;
lastChange = "2023-06-14 19:43:19 +0000";
layers = (
{
layerId = "6D97EE47-94AA-478E-ABFB-936E6C32B491";
shapes = (
{
closed = 1;
nodes = (
(197,-8,o),
(231,20,o),
(274,45,c),
(279,15,o),
(301,-8,o),
(337,-8,cs),
(370,-8,o),
(397,5,o),
(421,22,c),
(409,48,l),
(397,44,o),
(375,39,o),
(362,48,cs),
(348,58,o),
(349,69,o),
(349,107,cs),
(349,363,ls),
(349,432,o),
(302,464,o),
(233,464,cs),
(136,464,o),
(52,405,o),
(55,299,c),
(135,331,l),
(127,381,o),
(160,420,o),
(208,420,cs),
(234,420,o),
(252,407,o),
(260,394,cs),
(269,379,o),
(270,365,o),
(270,339,cs),
(270,262,l),
(215,243,o),
(69,191,o),
(46,179,c),
(37,162,o),
(32,136,o),
(32,111,cs),
(32,40,o),
(82,-8,o),
(152,-8,cs)
);
},
{
closed = 1;
nodes = (
(130,54,o),
(100,97,o),
(114,156,c),
(130,165,o),
(209,197,o),
(270,218,c),
(270,80,l),
(232,61,o),
(203,54,o),
(182,54,cs)
);
},
{
closed = 1;
nodes = (
(211,618,l),
(342,517,l),
(365,537,l),
(224,694,l),
(198,694,l),
(57,537,l),
(80,517,l)
);
}
);
width = 443;
}
);
unicode = 226;
},
{
glyphname = adieresis;
kernLeft = a;
kernRight = a;
lastChange = "2023-06-14 19:43:19 +0000";
layers = (
{
layerId = "6D97EE47-94AA-478E-ABFB-936E6C32B491";
shapes = (
{
closed = 1;
nodes = (
(197,-8,o),
(231,20,o),
(274,45,c),
(279,15,o),
(301,-8,o),
(337,-8,cs),
(370,-8,o),
(397,5,o),
(421,22,c),
(409,48,l),
(397,44,o),
(375,39,o),
(362,48,cs),
(348,58,o),
(349,69,o),
(349,107,cs),
(349,363,ls),
(349,432,o),
(302,464,o),
(233,464,cs),
(136,464,o),
(52,405,o),
(55,299,c),
(135,331,l),
(127,381,o),
(160,420,o),
(208,420,cs),
(234,420,o),
(252,407,o),
(260,394,cs),
(269,379,o),
(270,365,o),
(270,339,cs),
(270,262,l),
(215,243,o),
(69,191,o),
(46,179,c),
(37,162,o),
(32,136,o),
(32,111,cs),
(32,40,o),
(82,-8,o),
(152,-8,cs)
);
},
{
closed = 1;
nodes = (
(130,54,o),
(100,97,o),
(114,156,c),
(130,165,o),
(209,197,o),
(270,218,c),
(270,80,l),
(232,61,o),
(203,54,o),
(182,54,cs)
);
},
{
closed = 1;
nodes = (
(148,548,o),
(170,571,o),
(170,598,cs),
(170,625,o),
(148,646,o),
(120,646,cs),
(92,646,o),
(71,623,o),
(71,596,cs),
(71,569,o),
(92,548,o),
(120,548,cs)
);
},
{
closed = 1;
nodes = (
(329,548,o),
(351,571,o),
(351,598,cs),
(351,625,o),
(329,646,o),
(301,646,cs),
(273,646,o),
(252,623,o),
(252,596,cs),
(252,569,o),
(273,548,o),
(301,548,cs)
);
}
);
width = 443;
}
);
unicode = 228;
},
{
glyphname = adotbelow;
kernLeft = a;
kernRight = a;
lastChange = "2023-06-14 19:43:19 +0000";
layers = (
{
layerId = "6D97EE47-94AA-478E-ABFB-936E6C32B491";
shapes = (
{
closed = 1;
nodes = (
(197,-8,o),
(231,20,o),
(274,45,c),
(279,15,o),
(301,-8,o),
(337,-8,cs),
(370,-8,o),
(397,5,o),
(421,22,c),
(409,48,l),
(397,44,o),
(375,39,o),
(362,48,cs),
(348,58,o),
(349,69,o),
(349,107,cs),
(349,363,ls),
(349,432,o),
(302,464,o),
(233,464,cs),
(136,464,o),
(52,405,o),
(55,299,c),
(135,331,l),
(127,381,o),
(160,420,o),
(208,420,cs),
(234,420,o),
(252,407,o),
(260,394,cs),
(269,379,o),
(270,365,o),
(270,339,cs),
(270,262,l),
(215,243,o),
(69,191,o),
(46,179,c),
(37,162,o),
(32,136,o),
(32,111,cs),
(32,40,o),
(82,-8,o),
(152,-8,cs)
);
},
{
closed = 1;
nodes = (
(253,-181,o),
(277,-155,o),
(277,-125,cs),
(277,-94,o),
(253,-70,o),
(221,-70,cs),
(189,-70,o),
(166,-97,o),
(166,-126,cs),
(166,-157,o),
(189,-181,o),
(221,-181,cs)
);
},
{
closed = 1;
nodes = (
(130,54,o),
(100,97,o),
(114,156,c),
(130,165,o),
(209,197,o),
(270,218,c),
(270,80,l),
(232,61,o),
(203,54,o),
(182,54,cs)
);
}
);
width = 443;
}
);
unicode = 7841;
},
{
glyphname = agrave;
kernLeft = a;
kernRight = a;
lastChange = "2023-06-14 19:43:19 +0000";
layers = (
{
layerId = "6D97EE47-94AA-478E-ABFB-936E6C32B491";
shapes = (
{
closed = 1;
nodes = (
(197,-8,o),
(231,20,o),
(274,45,c),
(279,15,o),
(301,-8,o),
(337,-8,cs),
(370,-8,o),
(397,5,o),
(421,22,c),
(409,48,l),
(397,44,o),
(375,39,o),
(362,48,cs),
(348,58,o),
(349,69,o),
(349,107,cs),
(349,363,ls),
(349,432,o),
(302,464,o),
(233,464,cs),
(136,464,o),
(52,405,o),
(55,299,c),
(135,331,l),
(127,381,o),
(160,420,o),
(208,420,cs),
(234,420,o),
(252,407,o),
(260,394,cs),
(269,379,o),
(270,365,o),
(270,339,cs),
(270,262,l),
(215,243,o),
(69,191,o),
(46,179,c),
(37,162,o),
(32,136,o),
(32,111,cs),
(32,40,o),
(82,-8,o),
(152,-8,cs)
);
},
{
closed = 1;
nodes = (
(130,54,o),
(100,97,o),
(114,156,c),
(130,165,o),
(209,197,o),
(270,218,c),
(270,80,l),
(232,61,o),
(203,54,o),
(182,54,cs)
);
},
{
closed = 1;
nodes = (
(261,539,l),
(108,721,l),
(50,673,l),
(235,517,l)
);
}
);
width = 443;
}
);
unicode = 224;
},
{
glyphname = amacron;
kernLeft = a;
kernRight = a;
lastChange = "2023-06-14 19:43:19 +0000";
layers = (
{
layerId = "6D97EE47-94AA-478E-ABFB-936E6C32B491";
shapes = (
{
closed = 1;
nodes = (
(197,-8,o),
(231,20,o),
(274,45,c),
(279,15,o),
(301,-8,o),
(337,-8,cs),
(370,-8,o),
(397,5,o),
(421,22,c),
(409,48,l),
(397,44,o),
(375,39,o),
(362,48,cs),
(348,58,o),
(349,69,o),
(349,107,cs),
(349,363,ls),
(349,432,o),
(302,464,o),
(233,464,cs),
(136,464,o),
(52,405,o),
(55,299,c),
(135,331,l),
(127,381,o),
(160,420,o),
(208,420,cs),
(234,420,o),
(252,407,o),
(260,394,cs),
(269,379,o),
(270,365,o),
(270,339,cs),
(270,262,l),
(215,243,o),
(69,191,o),
(46,179,c),
(37,162,o),
(32,136,o),
(32,111,cs),
(32,40,o),
(82,-8,o),
(152,-8,cs)
);
},
{
closed = 1;
nodes = (
(130,54,o),
(100,97,o),
(114,156,c),
(130,165,o),
(209,197,o),
(270,218,c),
(270,80,l),
(232,61,o),
(203,54,o),
(182,54,cs)
);
},
{
closed = 1;
nodes = (
(361,575,l),
(361,623,l),
(61,623,l),
(61,575,l)
);
}
);
width = 443;
}
);
unicode = 257;
},
{
glyphname = aogonek;
kernLeft = a;
kernRight = a;
lastChange = "2023-06-14 19:43:19 +0000";
layers = (
{
layerId = "6D97EE47-94AA-478E-ABFB-936E6C32B491";
shapes = (
{
closed = 1;
nodes = (
(341,-240,o),
(382,-218,o),
(405,-190,c),
(394,-174,l),
(383,-183,o),
(364,-192,o),
(345,-192,cs),
(310,-192,o),
(290,-168,o),
(290,-135,cs),
(290,-97,o),
(320,-50,o),
(369,-4,c),
(388,1,o),
(405,11,o),
(421,22,c),
(409,48,l),
(397,44,o),
(375,39,o),
(362,48,cs),
(348,58,o),
(349,69,o),
(349,107,cs),
(349,363,ls),
(349,432,o),
(302,464,o),
(233,464,cs),
(136,464,o),
(52,405,o),
(55,299,c),
(135,331,l),
(127,381,o),
(160,420,o),
(208,420,cs),
(234,420,o),
(252,407,o),
(260,394,cs),
(269,379,o),
(270,365,o),
(270,339,cs),
(270,262,l),
(215,243,o),
(69,191,o),
(46,179,c),
(37,162,o),
(32,136,o),
(32,111,cs),
(32,40,o),
(82,-8,o),
(152,-8,cs),
(197,-8,o),
(231,20,o),
(274,45,c),
(278,19,o),
(296,-2,o),
(325,-7,c),
(254,-61,o),
(221,-108,o),
(221,-162,cs),
(221,-217,o),
(260,-240,o),
(309,-240,cs)
);
},
{
closed = 1;
nodes = (
(130,54,o),
(100,97,o),
(114,156,c),
(130,165,o),
(209,197,o),
(270,218,c),
(270,80,l),
(232,61,o),
(203,54,o),
(182,54,cs)
);
}
);
width = 443;
}
);
unicode = 261;
},
{
glyphname = aring;
kernLeft = a;
kernRight = a;
lastChange = "2023-06-14 19:43:19 +0000";
layers = (
{
layerId = "6D97EE47-94AA-478E-ABFB-936E6C32B491";
shapes = (
{
closed = 1;
nodes = (
(197,-8,o),
(231,20,o),
(274,45,c),
(279,15,o),
(301,-8,o),
(337,-8,cs),
(370,-8,o),
(397,5,o),
(421,22,c),
(409,48,l),
(397,44,o),
(375,39,o),
(362,48,cs),
(348,58,o),
(349,69,o),
(349,107,cs),
(349,363,ls),
(349,432,o),
(302,464,o),
(233,464,cs),
(136,464,o),
(52,405,o),
(55,299,c),
(135,331,l),
(127,381,o),
(160,420,o),
(208,420,cs),
(234,420,o),
(252,407,o),
(260,394,cs),
(269,379,o),
(270,365,o),
(270,339,cs),
(270,262,l),
(215,243,o),
(69,191,o),
(46,179,c),
(37,162,o),
(32,136,o),
(32,111,cs),
(32,40,o),
(82,-8,o),
(152,-8,cs)
);
},
{
closed = 1;
nodes = (
(130,54,o),
(100,97,o),
(114,156,c),
(130,165,o),
(209,197,o),
(270,218,c),
(270,80,l),
(232,61,o),
(203,54,o),
(182,54,cs)
);
},
{
closed = 1;
nodes = (
(260,548,o),
(302,592,o),
(302,643,cs),
(302,693,o),
(261,737,o),
(209,737,cs),
(158,737,o),
(117,693,o),
(117,641,cs),
(117,586,o),
(161,548,o),
(210,548,cs)
);
},
{
closed = 1;
nodes = (
(183,578,o),
(161,617,o),
(161,651,cs),
(161,681,o),
(181,704,o),
(204,704,cs),
(235,704,o),
(258,667,o),
(258,635,cs),
(258,599,o),
(240,583,o),
(215,581,cs)
);
}
);
width = 443;
}
);
unicode = 229;
},
{
glyphname = aringacute;
kernLeft = a;
kernRight = a;
lastChange = "2023-06-14 19:43:19 +0000";
layers = (
{
layerId = "6D97EE47-94AA-478E-ABFB-936E6C32B491";
shapes = (
{
closed = 1;
nodes = (
(197,-8,o),
(231,20,o),
(274,45,c),
(279,15,o),
(301,-8,o),
(337,-8,cs),
(370,-8,o),
(397,5,o),
(421,22,c),
(409,48,l),
(397,44,o),
(375,39,o),
(362,48,cs),
(348,58,o),
(349,69,o),
(349,107,cs),
(349,363,ls),
(349,432,o),
(302,464,o),
(233,464,cs),
(136,464,o),
(52,405,o),
(55,299,c),
(135,331,l),
(127,381,o),
(160,420,o),
(208,420,cs),
(234,420,o),
(252,407,o),
(260,394,cs),
(269,379,o),
(270,365,o),
(270,339,cs),
(270,262,l),
(215,243,o),
(69,191,o),
(46,179,c),
(37,162,o),
(32,136,o),
(32,111,cs),
(32,40,o),
(82,-8,o),
(152,-8,cs)
);
},
{
closed = 1;
nodes = (
(130,54,o),
(100,97,o),
(114,156,c),
(130,165,o),
(209,197,o),
(270,218,c),
(270,80,l),
(232,61,o),
(203,54,o),
(182,54,cs)
);
},
{
closed = 1;
nodes = (
(256,498,o),
(298,542,o),
(298,593,cs),
(298,643,o),
(257,687,o),
(205,687,cs),
(154,687,o),
(113,643,o),
(113,591,cs),
(113,536,o),
(157,498,o),
(206,498,cs)
);
},
{
closed = 1;
nodes = (
(179,528,o),
(157,567,o),
(157,601,cs),
(157,631,o),
(177,654,o),
(200,654,cs),
(231,654,o),
(254,617,o),
(254,585,cs),
(254,549,o),
(236,533,o),
(211,531,cs)
);
},
{
closed = 1;
nodes = (
(350,861,l),
(298,904,l),
(160,740,l),
(183,720,l)
);
}
);
width = 443;
}
);
metricLeft = a;
metricRight = a;
unicode = 507;
},
{
glyphname = atilde;
kernLeft = a;
kernRight = a;
lastChange = "2023-06-14 19:43:19 +0000";
layers = (
{
layerId = "6D97EE47-94AA-478E-ABFB-936E6C32B491";
shapes = (
{
closed = 1;
nodes = (
(197,-8,o),
(231,20,o),
(274,45,c),
(279,15,o),
(301,-8,o),
(337,-8,cs),
(370,-8,o),
(397,5,o),
(421,22,c),
(409,48,l),
(397,44,o),
(375,39,o),
(362,48,cs),
(348,58,o),
(349,69,o),
(349,107,cs),
(349,363,ls),
(349,432,o),
(302,464,o),
(233,464,cs),
(136,464,o),
(52,405,o),
(55,299,c),
(135,331,l),
(127,381,o),
(160,420,o),
(208,420,cs),
(234,420,o),
(252,407,o),
(260,394,cs),
(269,379,o),
(270,365,o),
(270,339,cs),
(270,262,l),
(215,243,o),
(69,191,o),
(46,179,c),
(37,162,o),
(32,136,o),
(32,111,cs),
(32,40,o),
(82,-8,o),
(152,-8,cs)
);
},
{
closed = 1;
nodes = (
(130,54,o),
(100,97,o),
(114,156,c),
(130,165,o),
(209,197,o),
(270,218,c),
(270,80,l),
(232,61,o),
(203,54,o),
(182,54,cs)
);
},
{
closed = 1;
nodes = (
(95,571,o),
(109,596,o),
(148,599,cs),
(197,601,o),
(222,545,o),
(290,549,cs),
(341,552,o),
(380,616,o),
(397,652,c),
(376,663,l),
(358,634,o),
(344,610,o),
(305,608,cs),
(257,606,o),
(232,661,o),
(163,657,cs),
(112,655,o),
(73,591,o),
(56,554,c),
(77,543,l)
);
}
);
width = 443;
}
);
unicode = 227;
},
{
glyphname = ae;
kernLeft = a;
kernRight = ae;
lastChange = "2023-06-14 19:43:19 +0000";
layers = (
{
layerId = "6D97EE47-94AA-478E-ABFB-936E6C32B491";
shapes = (
{
closed = 1;
nodes = (
(206,-9,o),
(276,36,o),
(319,65,c),
(353,21,o),
(403,-8,o),
(462,-8,cs),
(539,-8,o),
(606,46,o),
(637,91,c),
(616,109,l),
(591,86,o),
(552,65,o),
(507,65,cs),
(421,65,o),
(356,138,o),
(345,230,c),
(638,320,l),
(644,404,o),
(567,464,o),
(485,464,cs),
(430,464,o),
(380,442,o),
(342,403,c),
(327,445,o),
(287,464,o),
(233,464,cs),
(136,464,o),
(52,405,o),
(55,299,c),
(135,331,l),
(127,381,o),
(160,420,o),
(208,420,cs),
(234,420,o),
(252,407,o),
(260,394,cs),
(269,379,o),
(270,365,o),
(270,339,cs),
(270,253,l),
(215,234,o),
(69,182,o),
(46,170,c),
(37,153,o),
(32,135,o),
(32,110,cs),
(32,39,o),
(82,-9,o),
(152,-9,cs)
);
},
{
closed = 1;
nodes = (
(130,53,o),
(100,88,o),
(114,147,c),
(130,156,o),
(209,188,o),
(270,209,c),
(271,209,l),
(272,167,o),
(283,127,o),
(301,93,c),
(245,65,o),
(212,53,o),
(182,53,cs)
);
},
{
closed = 1;
nodes = (
(349,347,o),
(394,414,o),
(459,414,cs),
(495,414,o),
(539,394,o),
(551,344,c),
(344,273,l)
);
}
);
width = 660;
}
);
metricLeft = a;
metricRight = e;
unicode = 230;
},
{
glyphname = aeacute;
kernLeft = a;
kernRight = ae;
lastChange = "2023-06-14 19:43:19 +0000";
layers = (
{
layerId = "6D97EE47-94AA-478E-ABFB-936E6C32B491";
shapes = (
{
closed = 1;
nodes = (
(206,-9,o),
(276,36,o),
(319,65,c),
(353,21,o),
(403,-8,o),
(462,-8,cs),
(539,-8,o),
(606,46,o),
(637,91,c),
(616,109,l),
(591,86,o),
(552,65,o),
(507,65,cs),
(421,65,o),
(356,138,o),
(345,230,c),
(638,320,l),
(644,404,o),
(567,464,o),
(485,464,cs),
(430,464,o),
(380,442,o),
(342,403,c),
(327,445,o),
(287,464,o),
(233,464,cs),
(136,464,o),
(52,405,o),
(55,299,c),
(135,331,l),
(127,381,o),
(160,420,o),
(208,420,cs),
(234,420,o),
(252,407,o),
(260,394,cs),
(269,379,o),
(270,365,o),
(270,339,cs),
(270,253,l),
(215,234,o),
(69,182,o),
(46,170,c),
(37,153,o),
(32,135,o),
(32,110,cs),
(32,39,o),
(82,-9,o),
(152,-9,cs)
);
},
{
closed = 1;
nodes = (
(130,53,o),
(100,88,o),
(114,147,c),
(130,156,o),
(209,188,o),
(270,209,c),
(271,209,l),
(272,167,o),
(283,127,o),
(301,93,c),
(245,65,o),
(212,53,o),
(182,53,cs)
);
},
{
closed = 1;
nodes = (
(349,347,o),
(394,414,o),
(459,414,cs),
(495,414,o),
(539,394,o),
(551,344,c),
(344,273,l)
);
},
{
closed = 1;
nodes = (
(521,673,l),
(463,721,l),
(310,539,l),
(336,517,l)
);
}
);
width = 660;
}
);
unicode = 509;
},
{
glyphname = b;
kernLeft = b;
kernRight = o;
lastChange = "2023-06-14 19:43:19 +0000";
layers = (
{
layerId = "6D97EE47-94AA-478E-ABFB-936E6C32B491";
shapes = (
{
closed = 1;
nodes = (
(383,-8,o),
(494,111,o),
(494,261,cs),
(494,365,o),
(427,464,o),
(331,464,cs),
(280,464,o),
(224,433,o),
(176,384,c),
(176,775,l),
(156,789,l),
(24,734,l),
(33,708,l),
(52,711,o),
(77,711,o),
(95,704,c),
(95,23,l),
(142,-2,o),
(181,-8,o),
(229,-8,cs)
);
},
{
closed = 1;
nodes = (
(233,42,o),
(198,58,o),
(176,83,c),
(176,342,l),
(208,372,o),
(249,395,o),
(288,395,cs),
(364,395,o),
(419,308,o),
(419,215,cs),
(419,117,o),
(362,42,o),
(271,42,cs)
);
}
);
width = 518;
}
);
metricLeft = "=n-2";
metricRight = o;
unicode = 98;
},
{
glyphname = c;
kernLeft = o;
kernRight = c;
lastChange = "2023-06-14 19:43:19 +0000";
layers = (
{
layerId = "6D97EE47-94AA-478E-ABFB-936E6C32B491";
shapes = (
{
closed = 1;
nodes = (
(307,-8,o),
(376,31,o),
(405,74,c),
(384,93,l),
(362,73,o),
(330,60,o),
(295,60,cs),
(187,60,o),
(110,143,o),
(110,262,cs),
(110,341,o),
(154,412,o),
(229,412,cs),
(276,412,o),
(321,382,o),
(350,337,c),
(412,396,l),
(394,424,o),
(350,464,o),
(257,464,cs),
(132,464,o),
(34,357,o),
(34,222,cs),
(34,96,o),
(116,-8,o),
(235,-8,cs)
);
}
);
width = 434;
}
);
metricLeft = o;
metricRight = "=o-2";
unicode = 99;
},
{
glyphname = cacute;
kernLeft = o;
kernRight = c;
lastChange = "2023-06-14 19:43:19 +0000";
layers = (
{
layerId = "6D97EE47-94AA-478E-ABFB-936E6C32B491";
shapes = (
{
closed = 1;
nodes = (
(307,-8,o),
(376,31,o),
(405,74,c),
(384,93,l),
(362,73,o),
(330,60,o),
(295,60,cs),
(187,60,o),
(110,143,o),
(110,262,cs),
(110,341,o),
(154,412,o),
(229,412,cs),
(276,412,o),
(321,382,o),
(350,337,c),
(412,396,l),
(394,424,o),
(350,464,o),
(257,464,cs),
(132,464,o),
(34,357,o),
(34,222,cs),
(34,96,o),
(116,-8,o),
(235,-8,cs)
);
},
{
closed = 1;
nodes = (
(401,673,l),
(343,721,l),
(190,539,l),
(216,517,l)
);
}
);
width = 434;
}
);
unicode = 263;
},
{
glyphname = ccaron;
kernLeft = o;
kernRight = c;
lastChange = "2023-06-14 19:43:19 +0000";
layers = (
{
layerId = "6D97EE47-94AA-478E-ABFB-936E6C32B491";
shapes = (
{
closed = 1;
nodes = (
(307,-8,o),
(376,31,o),
(405,74,c),
(384,93,l),
(362,73,o),
(330,60,o),
(295,60,cs),
(187,60,o),
(110,143,o),
(110,262,cs),
(110,341,o),
(154,412,o),
(229,412,cs),
(276,412,o),
(321,382,o),
(350,337,c),
(412,396,l),
(394,424,o),
(350,464,o),
(257,464,cs),
(132,464,o),
(34,357,o),
(34,222,cs),
(34,96,o),
(116,-8,o),
(235,-8,cs)
);
},
{
closed = 1;
nodes = (
(253,523,l),
(394,680,l),
(371,700,l),
(240,599,l),
(109,700,l),
(86,680,l),
(227,523,l)
);
}
);
width = 434;
}
);
unicode = 269;
},
{
glyphname = ccedilla;
kernLeft = o;
kernRight = c;
lastChange = "2023-06-14 19:43:19 +0000";
layers = (
{
layerId = "6D97EE47-94AA-478E-ABFB-936E6C32B491";
shapes = (
{
closed = 1;
nodes = (
(290,-240,o),
(329,-206,o),
(329,-151,cs),
(329,-97,o),
(287,-66,o),
(250,-46,c),
(272,-5,l),
(329,5,o),
(381,38,o),
(405,74,c),
(384,93,l),
(362,73,o),
(330,60,o),
(295,60,cs),
(187,60,o),
(110,143,o),
(110,262,cs),
(110,341,o),
(154,412,o),
(229,412,cs),
(276,412,o),
(321,382,o),
(350,337,c),
(412,396,l),
(394,424,o),
(350,464,o),
(257,464,cs),
(132,464,o),
(34,357,o),
(34,222,cs),
(34,99,o),
(112,-3,o),
(226,-8,c),
(188,-83,l),
(213,-88,o),
(267,-117,o),
(267,-162,cs),
(267,-187,o),
(250,-210,o),
(222,-210,cs),
(202,-210,o),
(178,-198,o),
(162,-181,c),
(146,-197,l),
(164,-222,o),
(197,-240,o),
(234,-240,cs)
);
}
);
width = 434;
}
);
unicode = 231;
},
{
glyphname = ccircumflex;
kernLeft = o;
kernRight = c;
lastChange = "2023-06-14 19:43:19 +0000";
layers = (
{
layerId = "6D97EE47-94AA-478E-ABFB-936E6C32B491";
shapes = (
{
closed = 1;
nodes = (
(307,-8,o),
(376,31,o),
(405,74,c),
(384,93,l),
(362,73,o),
(330,60,o),
(295,60,cs),
(187,60,o),
(110,143,o),
(110,262,cs),
(110,341,o),
(154,412,o),
(229,412,cs),
(276,412,o),
(321,382,o),
(350,337,c),
(412,396,l),
(394,424,o),
(350,464,o),
(257,464,cs),
(132,464,o),
(34,357,o),
(34,222,cs),
(34,96,o),
(116,-8,o),
(235,-8,cs)
);
},
{
closed = 1;
nodes = (
(240,618,l),
(371,517,l),
(394,537,l),
(253,694,l),
(227,694,l),
(86,537,l),
(109,517,l)
);
}
);
width = 434;
}
);
unicode = 265;
},
{
glyphname = cdot;
kernLeft = o;
kernRight = c;
lastChange = "2023-06-14 19:43:19 +0000";
layers = (
{
layerId = "6D97EE47-94AA-478E-ABFB-936E6C32B491";
shapes = (
{
closed = 1;
nodes = (
(307,-8,o),
(376,31,o),
(405,74,c),
(384,93,l),
(362,73,o),
(330,60,o),
(295,60,cs),
(187,60,o),
(110,143,o),
(110,262,cs),
(110,341,o),
(154,412,o),
(229,412,cs),
(276,412,o),
(321,382,o),
(350,337,c),
(412,396,l),
(394,424,o),
(350,464,o),
(257,464,cs),
(132,464,o),
(34,357,o),
(34,222,cs),
(34,96,o),
(116,-8,o),
(235,-8,cs)
);
},
{
closed = 1;
nodes = (
(279,565,o),
(303,591,o),
(303,621,cs),
(303,652,o),
(279,676,o),
(247,676,cs),
(215,676,o),
(192,649,o),
(192,620,cs),
(192,589,o),
(215,565,o),
(247,565,cs)
);
}
);
width = 434;
}
);
unicode = 267;
},
{
glyphname = d;
kernLeft = o;
kernRight = d;
lastChange = "2023-06-14 19:43:19 +0000";
layers = (
{
layerId = "6D97EE47-94AA-478E-ABFB-936E6C32B491";
shapes = (
{
closed = 1;
nodes = (
(280,-8,o),
(317,22,o),
(359,71,c),
(359,67,ls),
(359,44,o),
(361,7,o),
(406,-8,c),
(529,52,l),
(517,79,l),
(497,72,o),
(468,63,o),
(440,66,c),
(440,775,l),
(420,789,l),
(288,734,l),
(297,708,l),
(316,711,o),
(341,711,o),
(359,704,c),
(359,447,l),
(330,458,o),
(303,464,o),
(275,464,cs),
(144,464,o),
(34,339,o),
(34,202,cs),
(34,82,o),
(109,-8,o),
(217,-8,cs)
);
},
{
closed = 1;
nodes = (
(171,62,o),
(107,149,o),
(107,249,cs),
(107,347,o),
(166,412,o),
(254,412,cs),
(296,412,o),
(333,393,o),
(359,359,c),
(359,112,l),
(330,75,o),
(296,62,o),
(263,62,cs)
);
}
);
width = 551;
}
);
metricLeft = o;
metricRight = n;
unicode = 100;
},
{
glyphname = eth;
kernLeft = o;
kernRight = o;
lastChange = "2023-06-14 19:43:19 +0000";
layers = (
{
layerId = "6D97EE47-94AA-478E-ABFB-936E6C32B491";
shapes = (
{
closed = 1;
nodes = (
(394,-8,o),
(489,94,o),
(496,231,cs),
(503,369,o),
(453,493,o),
(394,572,cs),
(381,589,o),
(367,605,o),
(351,621,c),
(442,665,l),
(430,714,l),
(310,656,l),
(240,710,o),
(155,748,o),
(77,770,c),
(65,737,l),
(140,711,o),
(207,675,o),
(258,631,c),
(151,579,l),
(163,529,l),
(297,594,l),
(309,580,o),
(320,566,o),
(329,551,cs),
(350,516,o),
(370,475,o),
(384,426,c),
(350,450,o),
(309,464,o),
(263,464,cs),
(135,464,o),
(34,355,o),
(34,226,cs),
(34,96,o),
(138,-8,o),
(266,-8,cs)
);
},
{
closed = 1;
nodes = (
(190,36,o),
(122,147,o),
(122,254,cs),
(122,342,o),
(171,421,o),
(248,421,cs),
(308,421,o),
(373,367,o),
(407,307,c),
(408,290,o),
(409,272,o),
(409,254,cs),
(409,137,o),
(374,36,o),
(282,36,cs)
);
}
);
width = 521;
}
);
metricLeft = o;
metricRight = o;
unicode = 240;
},
{
glyphname = dcaron;
kernLeft = o;
kernRight = d;
lastChange = "2023-06-14 19:46:44 +0000";
layers = (
{
layerId = "6D97EE47-94AA-478E-ABFB-936E6C32B491";
shapes = (
{
closed = 1;
nodes = (
(280,-8,o),
(317,22,o),
(359,71,c),
(359,67,ls),
(359,44,o),
(361,7,o),
(406,-8,c),
(529,52,l),
(517,79,l),
(497,72,o),
(468,63,o),
(440,66,c),
(440,775,l),
(420,789,l),
(288,734,l),
(297,708,l),
(316,711,o),
(341,711,o),
(359,704,c),
(359,447,l),
(330,458,o),
(303,464,o),
(275,464,cs),
(144,464,o),
(34,339,o),
(34,202,cs),
(34,82,o),
(109,-8,o),
(217,-8,cs)
);
},
{
closed = 1;
nodes = (
(171,62,o),
(107,149,o),
(107,249,cs),
(107,347,o),
(166,412,o),
(254,412,cs),
(296,412,o),
(333,393,o),
(359,359,c),
(359,112,l),
(330,75,o),
(296,62,o),
(263,62,cs)
);
},
{
closed = 1;
nodes = (
(555,540,l),
(589,779,l),
(513,776,l),
(521,539,l)
);
}
);
width = 551;
}
);
metricLeft = d;
unicode = 271;
},
{
glyphname = dcroat;
kernLeft = o;
kernRight = d;
lastChange = "2023-06-14 19:43:19 +0000";
layers = (
{
layerId = "6D97EE47-94AA-478E-ABFB-936E6C32B491";
shapes = (
{
closed = 1;
nodes = (
(280,-8,o),
(317,22,o),
(359,71,c),
(359,67,ls),
(359,44,o),
(361,7,o),
(406,-8,c),
(529,52,l),
(517,79,l),
(497,72,o),
(468,63,o),
(440,66,c),
(440,558,l),
(529,558,l),
(529,596,l),
(440,596,l),
(440,775,l),
(420,789,l),
(288,734,l),
(297,708,l),
(316,711,o),
(341,711,o),
(359,704,c),
(359,596,l),
(229,596,l),
(229,558,l),
(359,558,l),
(359,447,l),
(330,458,o),
(303,464,o),
(275,464,cs),
(144,464,o),
(34,339,o),
(34,202,cs),
(34,82,o),
(109,-8,o),
(217,-8,cs)
);
},
{
closed = 1;
nodes = (
(171,62,o),
(107,149,o),
(107,249,cs),
(107,347,o),
(166,412,o),
(254,412,cs),
(296,412,o),
(333,393,o),
(359,359,c),
(359,112,l),
(330,75,o),
(296,62,o),
(263,62,cs)
);
}
);
width = 541;
}
);
unicode = 273;
},
{
glyphname = e;
kernLeft = o;
kernRight = e;
lastChange = "2023-06-14 19:43:19 +0000";
layers = (
{
layerId = "6D97EE47-94AA-478E-ABFB-936E6C32B491";
shapes = (
{
closed = 1;
nodes = (
(302,-8,o),
(369,46,o),
(400,91,c),
(379,109,l),
(354,86,o),
(315,65,o),
(270,65,cs),
(175,65,o),
(107,154,o),
(107,259,cs),
(107,262,l),
(407,278,l),
(418,380,o),
(348,464,o),
(248,464,cs),
(130,465,o),
(34,361,o),
(34,215,cs),
(34,96,o),
(113,-8,o),
(225,-8,cs)
);
},
{
closed = 1;
nodes = (
(125,363,o),
(166,412,o),
(224,412,cs),
(275,412,o),
(318,368,o),
(318,318,c),
(112,302,l)
);
}
);
width = 430;
}
);
metricLeft = c;
metricRight = c;
unicode = 101;
},
{
glyphname = eacute;
kernLeft = o;
kernRight = e;
lastChange = "2023-06-14 19:43:19 +0000";
layers = (
{
layerId = "6D97EE47-94AA-478E-ABFB-936E6C32B491";
shapes = (
{
closed = 1;
nodes = (
(302,-8,o),
(369,46,o),
(400,91,c),
(379,109,l),
(354,86,o),
(315,65,o),
(270,65,cs),
(175,65,o),
(107,154,o),
(107,259,cs),
(107,262,l),
(407,278,l),
(418,380,o),
(348,464,o),
(248,464,cs),
(130,465,o),
(34,361,o),
(34,215,cs),
(34,96,o),
(113,-8,o),
(225,-8,cs)
);
},
{
closed = 1;
nodes = (
(125,363,o),
(166,412,o),
(224,412,cs),
(275,412,o),
(318,368,o),
(318,318,c),
(112,302,l)
);
},
{
closed = 1;
nodes = (
(393,673,l),
(335,721,l),
(182,539,l),
(208,517,l)
);
}
);
width = 430;
}
);
unicode = 233;
},
{
glyphname = ebreve;
kernLeft = o;
kernRight = e;
lastChange = "2023-06-14 19:43:19 +0000";
layers = (
{
layerId = "6D97EE47-94AA-478E-ABFB-936E6C32B491";
shapes = (
{
closed = 1;
nodes = (
(302,-8,o),
(369,46,o),
(400,91,c),
(379,109,l),
(354,86,o),
(315,65,o),
(270,65,cs),
(175,65,o),
(107,154,o),
(107,259,cs),
(107,262,l),
(407,278,l),
(418,380,o),
(348,464,o),
(248,464,cs),
(130,465,o),
(34,361,o),
(34,215,cs),
(34,96,o),
(113,-8,o),
(225,-8,cs)
);
},
{
closed = 1;
nodes = (
(125,363,o),
(166,412,o),
(224,412,cs),
(275,412,o),
(318,368,o),
(318,318,c),
(112,302,l)
);
},
{
closed = 1;
nodes = (
(299,560,o),
(350,600,o),
(373,682,c),
(348,690,l),
(326,642,o),
(285,626,o),
(232,626,cs),
(177,626,o),
(139,642,o),
(116,690,c),
(91,682,l),
(113,600,o),
(166,558,o),
(232,559,cs)
);
}
);
width = 430;
}
);
unicode = 277;
},
{
glyphname = ecaron;
kernLeft = o;
kernRight = e;
lastChange = "2023-06-14 19:43:19 +0000";
layers = (
{
layerId = "6D97EE47-94AA-478E-ABFB-936E6C32B491";
shapes = (
{
closed = 1;
nodes = (
(302,-8,o),
(369,46,o),
(400,91,c),
(379,109,l),
(354,86,o),
(315,65,o),
(270,65,cs),
(175,65,o),
(107,154,o),
(107,259,cs),
(107,262,l),
(407,278,l),
(418,380,o),
(348,464,o),
(248,464,cs),
(130,465,o),
(34,361,o),
(34,215,cs),
(34,96,o),
(113,-8,o),
(225,-8,cs)
);
},
{
closed = 1;
nodes = (
(125,363,o),
(166,412,o),
(224,412,cs),
(275,412,o),
(318,368,o),
(318,318,c),
(112,302,l)
);
},
{
closed = 1;
nodes = (
(245,523,l),
(386,680,l),
(363,700,l),
(232,599,l),
(101,700,l),
(78,680,l),
(219,523,l)
);
}
);
width = 430;
}
);
unicode = 283;
},
{
glyphname = ecircumflex;
kernLeft = o;
kernRight = e;
lastChange = "2023-06-14 19:43:19 +0000";
layers = (
{
layerId = "6D97EE47-94AA-478E-ABFB-936E6C32B491";
shapes = (
{
closed = 1;
nodes = (
(302,-8,o),
(369,46,o),
(400,91,c),
(379,109,l),
(354,86,o),
(315,65,o),
(270,65,cs),
(175,65,o),
(107,154,o),
(107,259,cs),
(107,262,l),
(407,278,l),
(418,380,o),
(348,464,o),
(248,464,cs),
(130,465,o),
(34,361,o),
(34,215,cs),
(34,96,o),
(113,-8,o),
(225,-8,cs)
);
},
{
closed = 1;
nodes = (
(125,363,o),
(166,412,o),
(224,412,cs),
(275,412,o),
(318,368,o),
(318,318,c),
(112,302,l)
);
},
{
closed = 1;
nodes = (
(232,618,l),
(363,517,l),
(386,537,l),
(245,694,l),
(219,694,l),
(78,537,l),
(101,517,l)
);
}
);
width = 430;
}
);
unicode = 234;
},
{
glyphname = edieresis;
kernLeft = o;
kernRight = e;
lastChange = "2023-06-14 19:43:19 +0000";
layers = (
{
layerId = "6D97EE47-94AA-478E-ABFB-936E6C32B491";
shapes = (
{
closed = 1;
nodes = (
(302,-8,o),
(369,46,o),
(400,91,c),
(379,109,l),
(354,86,o),
(315,65,o),
(270,65,cs),
(175,65,o),
(107,154,o),
(107,259,cs),
(107,262,l),
(407,278,l),
(418,380,o),
(348,464,o),
(248,464,cs),
(130,465,o),
(34,361,o),
(34,215,cs),
(34,96,o),
(113,-8,o),
(225,-8,cs)
);
},
{
closed = 1;
nodes = (
(125,363,o),
(166,412,o),
(224,412,cs),
(275,412,o),
(318,368,o),
(318,318,c),
(112,302,l)
);
},
{
closed = 1;
nodes = (
(169,548,o),
(191,571,o),
(191,598,cs),
(191,625,o),
(169,646,o),
(141,646,cs),
(113,646,o),
(92,623,o),
(92,596,cs),
(92,569,o),
(113,548,o),
(141,548,cs)
);
},
{
closed = 1;
nodes = (
(350,548,o),
(372,571,o),
(372,598,cs),
(372,625,o),
(350,646,o),
(322,646,cs),
(294,646,o),
(273,623,o),
(273,596,cs),
(273,569,o),
(294,548,o),
(322,548,cs)
);
}
);
width = 430;
}
);
unicode = 235;
},
{
glyphname = edotaccent;
kernLeft = o;
kernRight = e;
lastChange = "2023-06-14 19:43:19 +0000";
layers = (
{
layerId = "6D97EE47-94AA-478E-ABFB-936E6C32B491";
shapes = (
{
closed = 1;
nodes = (
(302,-8,o),
(369,46,o),
(400,91,c),
(379,109,l),
(354,86,o),
(315,65,o),
(270,65,cs),
(175,65,o),
(107,154,o),
(107,259,cs),
(107,262,l),
(407,278,l),
(418,380,o),
(348,464,o),
(248,464,cs),
(130,465,o),
(34,361,o),
(34,215,cs),
(34,96,o),
(113,-8,o),
(225,-8,cs)
);
},
{
closed = 1;
nodes = (
(125,363,o),
(166,412,o),
(224,412,cs),
(275,412,o),
(318,368,o),
(318,318,c),
(112,302,l)
);
},
{
closed = 1;
nodes = (
(271,565,o),
(295,591,o),
(295,621,cs),
(295,652,o),
(271,676,o),
(239,676,cs),
(207,676,o),
(184,649,o),
(184,620,cs),
(184,589,o),
(207,565,o),
(239,565,cs)
);
}
);
width = 430;
}
);
unicode = 279;
},
{
glyphname = edotbelow;
kernLeft = o;
kernRight = e;
lastChange = "2023-06-14 19:43:19 +0000";
layers = (
{
layerId = "6D97EE47-94AA-478E-ABFB-936E6C32B491";
shapes = (
{
closed = 1;
nodes = (
(302,-8,o),
(369,46,o),
(400,91,c),
(379,109,l),
(354,86,o),
(315,65,o),
(270,65,cs),
(175,65,o),
(107,154,o),
(107,259,cs),
(107,262,l),
(407,278,l),
(418,380,o),
(348,464,o),
(248,464,cs),
(130,465,o),
(34,361,o),
(34,215,cs),
(34,96,o),
(113,-8,o),
(225,-8,cs)
);
},
{
closed = 1;
nodes = (
(261,-181,o),
(285,-155,o),
(285,-125,cs),
(285,-94,o),
(261,-70,o),
(229,-70,cs),
(197,-70,o),
(174,-97,o),
(174,-126,cs),
(174,-157,o),
(197,-181,o),
(229,-181,cs)
);
},
{
closed = 1;
nodes = (
(125,363,o),
(166,412,o),
(224,412,cs),
(275,412,o),
(318,368,o),
(318,318,c),
(112,302,l)
);
}
);
width = 430;
}
);
unicode = 7865;
},
{
glyphname = egrave;
kernLeft = o;
kernRight = e;
lastChange = "2023-06-14 19:43:19 +0000";
layers = (
{
layerId = "6D97EE47-94AA-478E-ABFB-936E6C32B491";
shapes = (
{
closed = 1;
nodes = (
(302,-8,o),
(369,46,o),
(400,91,c),
(379,109,l),
(354,86,o),
(315,65,o),
(270,65,cs),
(175,65,o),
(107,154,o),
(107,259,cs),
(107,262,l),
(407,278,l),
(418,380,o),
(348,464,o),
(248,464,cs),
(130,465,o),
(34,361,o),
(34,215,cs),
(34,96,o),
(113,-8,o),
(225,-8,cs)
);
},
{
closed = 1;
nodes = (
(125,363,o),
(166,412,o),
(224,412,cs),
(275,412,o),
(318,368,o),
(318,318,c),
(112,302,l)
);
},
{
closed = 1;
nodes = (
(282,539,l),
(129,721,l),
(71,673,l),
(256,517,l)
);
}
);
width = 430;
}
);
unicode = 232;
},
{
glyphname = emacron;
kernLeft = o;
kernRight = e;
lastChange = "2023-06-14 19:43:19 +0000";
layers = (
{
layerId = "6D97EE47-94AA-478E-ABFB-936E6C32B491";
shapes = (
{
closed = 1;
nodes = (
(302,-8,o),
(369,46,o),
(400,91,c),
(379,109,l),
(354,86,o),
(315,65,o),
(270,65,cs),
(175,65,o),
(107,154,o),
(107,259,cs),
(107,262,l),
(407,278,l),
(418,380,o),
(348,464,o),
(248,464,cs),
(130,465,o),
(34,361,o),
(34,215,cs),
(34,96,o),
(113,-8,o),
(225,-8,cs)
);
},
{
closed = 1;
nodes = (
(125,363,o),
(166,412,o),
(224,412,cs),
(275,412,o),
(318,368,o),
(318,318,c),
(112,302,l)
);
},
{
closed = 1;
nodes = (
(382,575,l),
(382,623,l),
(82,623,l),
(82,575,l)
);
}
);
width = 430;
}
);
unicode = 275;
},
{
glyphname = eogonek;
kernLeft = o;
kernRight = e;
lastChange = "2023-06-14 19:43:19 +0000";
layers = (
{
anchors = (
{
name = _BOTTOM;
pos = (268,0);
}
);
layerId = "6D97EE47-94AA-478E-ABFB-936E6C32B491";
shapes = (
{
closed = 1;
nodes = (
(257,-240,o),
(298,-218,o),
(321,-190,c),
(310,-174,l),
(299,-183,o),
(280,-192,o),
(261,-192,cs),
(226,-192,o),
(206,-168,o),
(206,-135,cs),
(206,-96,o),
(238,-48,o),
(289,0,cs),
(297,7,l),
(342,26,o),
(379,61,o),
(400,91,c),
(379,109,l),
(354,86,o),
(315,65,o),
(270,65,cs),
(175,65,o),
(107,154,o),
(107,259,cs),
(107,262,l),
(407,278,l),
(418,380,o),
(348,464,o),
(248,464,cs),
(130,465,o),
(34,361,o),
(34,215,cs),
(34,96,o),
(113,-8,o),
(225,-8,cs),
(230,-8,o),
(235,-8,o),
(240,-7,c),
(170,-61,o),
(137,-108,o),
(137,-162,cs),
(137,-217,o),
(176,-240,o),
(225,-240,cs)
);
},
{
closed = 1;
nodes = (
(125,363,o),
(166,412,o),
(224,412,cs),
(275,412,o),
(318,368,o),
(318,318,c),
(112,302,l)
);
}
);
width = 430;
}
);
metricLeft = e;
metricRight = e;
unicode = 281;
},
{
glyphname = etilde;
kernLeft = o;
kernRight = e;
lastChange = "2023-06-14 19:43:19 +0000";
layers = (
{
layerId = "6D97EE47-94AA-478E-ABFB-936E6C32B491";
shapes = (
{
closed = 1;
nodes = (
(302,-8,o),
(369,46,o),
(400,91,c),
(379,109,l),
(354,86,o),
(315,65,o),
(270,65,cs),
(175,65,o),
(107,154,o),
(107,259,cs),
(107,262,l),
(407,278,l),
(418,380,o),
(348,464,o),
(248,464,cs),
(130,465,o),
(34,361,o),
(34,215,cs),
(34,96,o),
(113,-8,o),
(225,-8,cs)
);
},
{
closed = 1;
nodes = (
(125,363,o),
(166,412,o),
(224,412,cs),
(275,412,o),
(318,368,o),
(318,318,c),
(112,302,l)
);
},
{
closed = 1;
nodes = (
(116,571,o),
(130,596,o),
(169,599,cs),
(218,601,o),
(243,545,o),
(311,549,cs),
(362,552,o),
(401,616,o),
(418,652,c),
(397,663,l),
(379,634,o),
(365,610,o),
(326,608,cs),
(278,606,o),
(253,661,o),
(184,657,cs),
(133,655,o),
(94,591,o),
(77,554,c),
(98,543,l)
);
}
);
width = 430;
}
);
unicode = 7869;
},
{
glyphname = schwa;
kernLeft = o;
kernRight = o;
lastChange = "2023-06-14 19:43:19 +0000";
layers = (
{
layerId = "6D97EE47-94AA-478E-ABFB-936E6C32B491";
shapes = (
{
closed = 1;
nodes = (
(250,-8,o),
(289,12,o),
(329,50,cs),
(373,91,o),
(407,160,o),
(407,242,cs),
(407,363,o),
(326,465,o),
(216,465,cs),
(139,465,o),
(72,411,o),
(41,366,c),
(62,348,l),
(87,371,o),
(128,394,o),
(173,394,cs),
(270,394,o),
(331,309,o),
(334,205,c),
(34,189,l),
(19,81,o),
(91,-8,o),
(189,-8,cs)
);
},
{
closed = 1;
nodes = (
(164,45,o),
(119,91,o),
(123,149,c),
(331,165,l),
(321,99,o),
(277,45,o),
(217,45,cs)
);
}
);
width = 431;
}
);
metricRight = o;
unicode = 601;
},
{
glyphname = f;
kernLeft = f;
kernRight = f;
lastChange = "2023-06-14 19:43:19 +0000";
layers = (
{
backgroundImage = {
imagePath = HP/LOWERCASE/f_1.jpg;
locked = 1;
pos = (-63,-275);
scale = (64.451,64.451);
};
layerId = "6D97EE47-94AA-478E-ABFB-936E6C32B491";
shapes = (
{
closed = 1;
nodes = (
(283,0,l),
(283,30,l),
(263,30,o),
(220,33,o),
(188,46,c),
(188,400,l),
(334,400,l),
(334,456,l),
(188,456,l),
(188,481,ls),
(188,594,o),
(190,653,o),
(225,692,cs),
(248,718,o),
(279,730,o),
(310,730,cs),
(344,730,o),
(382,709,o),
(408,681,c),
(474,745,l),
(447,772,o),
(401,789,o),
(351,789,cs),
(297,789,o),
(239,770,o),
(189,722,cs),
(112,648,o),
(107,546,o),
(107,456,c),
(53,456,l),
(42,400,l),
(107,400,l),
(107,46,l),
(80,33,o),
(45,30,o),
(28,30,c),
(28,0,l)
);
}
);
width = 364;
}
);
unicode = 102;
},
{
glyphname = g;
kernLeft = g;
kernRight = g;
lastChange = "2023-06-14 19:43:19 +0000";
layers = (
{
guides = (
{
angle = -8;
pos = (7,3);
},
{
angle = -8;
pos = (7,81);
}
);
layerId = "6D97EE47-94AA-478E-ABFB-936E6C32B491";
shapes = (
{
closed = 1;
nodes = (
(355,-284,o),
(469,-204,o),
(469,-94,cs),
(469,0,o),
(385,25,o),
(299,37,cs),
(201,51,o),
(126,50,o),
(126,87,cs),
(126,103,o),
(136,116,o),
(152,130,c),
(172,121,o),
(194,116,o),
(218,116,cs),
(309,116,o),
(388,194,o),
(388,292,cs),
(388,313,o),
(384,333,o),
(377,352,c),
(468,351,l),
(476,415,l),
(349,401,l),
(318,439,o),
(271,464,o),
(216,464,cs),
(120,464,o),
(48,383,o),
(48,288,cs),
(48,229,o),
(78,176,o),
(124,145,c),
(89,123,o),
(53,93,o),
(53,60,cs),
(53,22,o),
(89,-1,o),
(137,-13,c),
(86,-46,o),
(28,-89,o),
(28,-151,cs),
(28,-244,o),
(128,-284,o),
(234,-284,cs)
);
},
{
closed = 1;
nodes = (
(180,-242,o),
(107,-205,o),
(107,-138,cs),
(107,-99,o),
(124,-60,o),
(175,-21,c),
(218,-28,o),
(252,-31,o),
(285,-37,cs),
(338,-45,o),
(392,-61,o),
(392,-120,cs),
(392,-194,o),
(327,-242,o),
(245,-242,cs)
);
},
{
closed = 1;
nodes = (
(173,162,o),
(126,230,o),
(126,300,cs),
(126,360,o),
(155,416,o),
(209,416,cs),
(264,416,o),
(310,345,o),
(310,276,cs),
(310,219,o),
(280,162,o),
(228,162,cs)
);
}
);
width = 494;
}
);
unicode = 103;
},
{
glyphname = gacute;
kernLeft = g;
kernRight = g;
lastChange = "2023-06-14 19:43:19 +0000";
layers = (
{
layerId = "6D97EE47-94AA-478E-ABFB-936E6C32B491";
shapes = (
{
closed = 1;
nodes = (
(355,-284,o),
(469,-204,o),
(469,-94,cs),
(469,0,o),
(385,25,o),
(299,37,cs),
(201,51,o),
(126,50,o),
(126,87,cs),
(126,103,o),
(136,116,o),
(152,130,c),
(172,121,o),
(194,116,o),
(218,116,cs),
(309,116,o),
(388,194,o),
(388,292,cs),
(388,313,o),
(384,333,o),
(377,352,c),
(468,351,l),
(476,415,l),
(349,401,l),
(318,439,o),
(271,464,o),
(216,464,cs),
(120,464,o),
(48,383,o),
(48,288,cs),
(48,229,o),
(78,176,o),
(124,145,c),
(89,123,o),
(53,93,o),
(53,60,cs),
(53,22,o),
(89,-1,o),
(137,-13,c),
(86,-46,o),
(28,-89,o),
(28,-151,cs),
(28,-244,o),
(128,-284,o),
(234,-284,cs)
);
},
{
closed = 1;
nodes = (
(180,-242,o),
(107,-205,o),
(107,-138,cs),
(107,-99,o),
(124,-60,o),
(175,-21,c),
(218,-28,o),
(252,-31,o),
(285,-37,cs),
(338,-45,o),
(392,-61,o),
(392,-120,cs),
(392,-194,o),
(327,-242,o),
(245,-242,cs)
);
},
{
closed = 1;
nodes = (
(173,162,o),
(126,230,o),
(126,300,cs),
(126,360,o),
(155,416,o),
(209,416,cs),
(264,416,o),
(310,345,o),
(310,276,cs),
(310,219,o),
(280,162,o),
(228,162,cs)
);
},
{
closed = 1;
nodes = (
(384,673,l),
(326,721,l),
(173,539,l),
(199,517,l)
);
}
);
width = 494;
}
);
unicode = 501;
},
